<mxfile host="b883a727-46fd-4b1b-8b9e-632d63ec63dc" modified="2020-09-06T14:19:21.311Z" agent="5.0 (Macintosh; Intel Mac OS X 10_15_6) AppleWebKit/537.36 (KHTML, like Gecko) Code/1.48.1 Chrome/78.0.3904.130 Electron/7.3.2 Safari/537.36" etag="vyD0ZomOT2MEjxXj6lLD" version="13.1.3">
    <diagram id="6hGFLwfOUW9BJ-s0fimq" name="Page-1">
        <mxGraphModel dx="833" dy="1714" grid="1" gridSize="10" guides="1" tooltips="1" connect="1" arrows="1" fold="1" page="1" pageScale="1" pageWidth="827" pageHeight="1169" math="0" shadow="0">
            <root>
                <mxCell id="0"/>
                <mxCell id="1" parent="0"/>
                <mxCell id="2" value="" style="verticalLabelPosition=bottom;html=1;verticalAlign=top;strokeWidth=1;align=center;outlineConnect=0;dashed=0;outlineConnect=0;shape=mxgraph.aws3d.ami;aspect=fixed;fillColor=#E8CA45;strokeColor=#FFF215;" vertex="1" parent="1">
                    <mxGeometry x="510" y="220" width="92" height="60" as="geometry"/>
                </mxCell>
                <mxCell id="3" value="" style="outlineConnect=0;dashed=0;verticalLabelPosition=bottom;verticalAlign=top;align=center;html=1;shape=mxgraph.aws3.ec2;fillColor=#F58534;gradientColor=none;" vertex="1" parent="1">
                    <mxGeometry x="186.75" y="197" width="76.5" height="93" as="geometry"/>
                </mxCell>
                <mxCell id="4" value="" style="shape=flexArrow;endArrow=classic;html=1;" edge="1" parent="1">
                    <mxGeometry width="50" height="50" relative="1" as="geometry">
                        <mxPoint x="330" y="259.5" as="sourcePoint"/>
                        <mxPoint x="480" y="260" as="targetPoint"/>
                    </mxGeometry>
                </mxCell>
                <mxCell id="6" value="保存" style="rounded=1;whiteSpace=wrap;html=1;" vertex="1" parent="1">
                    <mxGeometry x="360" y="210" width="70" height="30" as="geometry"/>
                </mxCell>
                <mxCell id="7" value="新規EC2作成起動" style="rounded=1;whiteSpace=wrap;html=1;" vertex="1" parent="1">
                    <mxGeometry x="170" y="160" width="110" height="30" as="geometry"/>
                </mxCell>
                <mxCell id="8" value="EC2を削除しAMIを自動保存" style="rounded=1;whiteSpace=wrap;html=1;" vertex="1" parent="1">
                    <mxGeometry x="477.75" y="160" width="170" height="40" as="geometry"/>
                </mxCell>
                <mxCell id="9" value="" style="shape=image;verticalLabelPosition=bottom;labelBackgroundColor=#ffffff;verticalAlign=top;aspect=fixed;imageAspect=0;image=data:image/png,iVBORw0KGgoAAAANSUhEUgAAAyAAAAMgEAQAAAAh6RKgAAAAAmJLR0T//xSrMc0AAAAJcEhZcwAAAEgAAABIAEbJaz4AAAAJdnBBZwAAAyAAAAMgALRUOFkAADuTSURBVHja7d2NcdvIti5Qh6AQFIJCUAgKQSEwBGXAEBwCQ1AICkEhOAS/9x0PrzUa/QAgAO7uXqvqq3p135kZmwSB3uje3T9+AAAAAAAAAAAAAAAAAAAAAAAAAAAAAAAAAAAAAAAAAAAAAAAAAAAAAAAAAAAAAAAAAAAAAAAAAAAAAAAAAAAAAAAAAAAAAAAAAAAAAAAAAAAAAAAAAAAAAAAAAAAAAAAAAAAAAAAAAAAAAAAAAAAAAAAAAAAAAAAAAAAAAAAAAAAAAAAAAAAAAAAAAAAAAAAAAAAAAAAAAAAAAAAAAAAAAAAAAAAAAAAAAAAAAAAAAAAAAAAAAAAAAAAAAAAAAAAAAAAAAAAAAAAAAAAAAAAAAAAAAAAAAAAAAAAAAADA6G5ufvy4v/86h8OPH09PH+e7f/buzmcMAABdOg/6Hx7+Fgg/f/748fz8N79+/fjx+/d18/Ly989zOv39s6bQOf8dUhgBAABXcnv779mIc2Hx+nr9gmLLpGA6FyvvZ10AAIALnJdDnYuMDLozW9BzgbFWgZKC7FycWPYFAADvnAuN47HO0qjekuLtvMQrn3dmkQAAoGvnWY0MgjMY7n3JVCszJvk+0iujKAEAoGlZ/pOZjSwJsnyqvaJEAzwAAKWdZzcso+pv+VaWx5klAQCgTMFhoD5OsnQus1qPj2ZIAADY0HlJVfo3DMTloxkSAABYLG+3M6jM224N4zI1KVBTqFquBQDAtzJoNMshay7XyuyI80gAAPg/GRyml8NOVbL1DluZTbNUCwBg0KIjb6YtrRLFCAAAm8jyqsx0KDpEMQIAwGZFR3o6LK+SVooRPSMAAA3KGQ0ayaX1Bna7aQEAFJa3xlnK4hRy6XFr3xTVAABcWc7qyMDMEisZaYmWWREAgJ2Z7ZDR8/xsVgQAYHMZcGXgZQAq8ndWJLu7mRUBAFhJllnZPlfk+2RW8P7ePQMAYJG80c2AysBSxPIsAIDN5A2uZVYi62zlm0Iks4gAALyjv0Nk2z4RhQgAwD+Fh/4OEQ3rAAAKD5GOG9YVIgCAwkNEFCIAAAoPEYUIAIDCQ0Q0qwMARLbTfXkxqBNRiAAAbFx42E5XpJ9zRAAASnJyuUi/hUheLAAAlJBlGlmuYaAm0ncys3l3554HAFxRlmdkvbjBmcg4OR71hwAAO9PnIaJR/XBwLwQANpa3nvo8ROSc7HSnPwQA2ETedlpuJSKfHWRoWRYAsIo0nVpuJSKWZQEAm8rbzDSbGliJiN2yAIBNZU139v43mBKRpcn23AAAX9JkLiIOMQQAdvHwoMlcRJwdAgBsLIOC08kASUTMhgAAGzPrISJmQwCAzdnhSkSufYChnbIAYBB2uBIRO2UBALvIw96gR0SqnRtye+v+DABdycM9Sx4MdkSk6inq6UkDADqg0VxEWknOIdKgDgCNcqigiGhQBwB2kYe3JVci0vKSrMdH93IAaEIe2pZciYglWQDA5pztISKWZAEAm8sbQkuuRMQuWQDA5nKwoCVXIuLgQgBgc4eDAYmIjHdwob4QALgCW+yKiL4QAGBz+j1ERPSFAMAu8sZPv4eIyN9kKSoAsIG86VN8iIh8fF4IALAizeYiIprTAWAXms1FRKY3p9/eem4AwCJ5k3c6GVCIiMxtTrdDFgAsKD7sdCUiYocsANhc3twpPkRELs/jo2cKAHxbfNjpSkTENr0AoPgQEbFNLwD0IcsEDBJERBQhAKD4EBHpqAhxVggAig+DAhGRXc8KUYQAoPgQERFFCABs5Xg0ABARUYQAwA6yBtnDX0REEQIAig8REUUIACg+REREEQIAig8REUUIANSi4VxERBECALuw1a6IiCIEABQfIiKiCAFA8SEiIjVyOnmWAaD4EBGRHZMNRACgtPt7D2wREUUIAOzg7u7Hj1+/PKxFRHpLdjMEAMWHiIjsliyvBYASslPK66uHs4iIIgQAdig+sl2jB7OIyBjJjDcAXE22afRAFhEZJ1luqwgB4CqyM4qHsYjIeMmyWwcVArCrw8EDWETEaemehwDswEGDIiLijBAAdmG7XREReZunJ89GADaSqXbFh4iI2J4XgF3YbldEROyMBcAu7HglIiLfFSGa0gFYhR2vRERk6s5YAHCR+3sPVBERsTMWADu4vdV0LiIimtIB2ImmcxERWRpN6QDMoulcREQuyeurpnQAJnLSuYiIrJHnZ89UAL7hpHORKbm7+/37cPj9++np9+/T6ffv5+c/yf87/7fHx9+/b299TiJOSgfgC5kq1/ch8lXR8fPn79+/fv2e7PX1T0GiGJGxkx0VAeA/9H2IfJQUD5nduFQKkZsbn6c4pBAAfuj7EPk4WWa1psyIZCbFZyv6QQAYmPM+RD5KllttIUu40iPiM5bxcjh45gLwQ9+HyH7Fx1uKEHE+CAADyu4kHogiexcf55kQy7FkvOSll34QgEFlVxIPQ5G3eXj4vauXF5+5jJjj0TMYYDh5+5RTaj0IRc7JDlVztthdS3bH8vnLeHl48CwGGIotd0XeJ4XANaTosT2v2JoXgI7lrZOHn0iF2Q+zIDJ2TifPZIDu5W2TLXdFtj7vY8ksiO9BLMUCoEN52+SBJ/I+OSDw2mzLK5ZiAdAZS69EKux89ZnnZ9+FWIoFQDcsvRL5LKfT7zKcCyKWYgHQCUuvRD7K7e3vUnIIou9FLMUCoHEOHBT5LMdjrQLElrxiKRYAjXPgoMhXuebWu5rRRT5KXpoB0LDj0cNM5ONkoF9RduTy/ci4yUszS7EAGnV350Em8nmy61RV9/e+Hxk5eXkGQINeXjzERD5OdpuqTDO6SF6iAdCQw8HDS+TzZIBfXXbo8l3JuHl+9iwHaIYzP0S+SnaZqth8/t7Tk+9KRs/jo2c6QBN+/vTQEvk8h8PvJmhGF3E2CEADnPkh8l0ysG+FLXlFNKQDFKfxXOSrZHeplmSnLt+biIZ0gKKyVtaDSuSrnE6/m6MZXURDOkBBGs9FvksG8i2yJa9I8vDgWQ9QytOTh5PI18muUi3Kjl3Zuct3KE5IB6CI21sPJpHv08LWu5rRRb5KXrYBUIBtd0W+SwbwLbMlr4hteQGKsO2uyJRkN6nWZQcv36WIbXkBriw7g3ggiXyVu7vfXdCMLnJOlh4DYPZDpGgycO+FLXlFkiw9BuAKsiOIB5HIV8nuUS03n7+Xnbx8ryJJXsIBsCOHDopMyeHwuyua0UUcTghg9kOkcDJg783Dg+9VxCwIgNkPkXLJrlE9yo5evl8RsyAAZj9EiuV0+t0tzegiZkEAzH6IFEoG6D07Hn3HImZBAMx+iJRJdovqWXb2yg5fvmsRsyAAZj9ECqSnrXc/8/joexYxCwJg9kPk6snAfAQvL75rEbMgAGY/RK6e7BI1iuz05TsXMQsCYPZDRPP5Ln7+9J2LmAUBMPshcrVkQD4azegiZkEAVvby4qEi8n0yEB+h+fy97Pjl+xc55/bWuAHgIplO9kAR0Xz+uddX373I3/z8aewAcJFMJ3ugiExJBuKjenjw/YuYBQG42N2dh4jItGQ3qJFl5y/Xgcg5x6MxBMAimUb2IBHRfD5NdgBzLYgkv379+HFzYxwBMEumjz1ERGy9O93x6FoQ+ZvDwVgCYJanJw8PkWnJLlD82QHM9SByTs7PAmCGTB97gIhoPp8nO4G5JkTOeXgwngCYxMGDIrbeXeblxTUh4mBCgNkcPCgyNdn9qcpZHFUOQby7c12I2JIXYDJb74q02HyePpQ0gVeQHcFcHyK25AWYyNa7Ii1uvZtiqFJBdHPj+hCxJS/At3KD9LAQmZIMsKsseTqd6i0JOxxcIyJ/k95KAD6QPcs9KERaaz5/eKj350pPiutE5Jz0VgLwgexZ7kEh0tLWux8N9KvMzLwtjEQkPZYAvKH5XGRq7u9rNZ+///NVaUZ/uzRMRNJjCcAbms9FWm0+r7w710d/PpFxm9EB+Eeaz518LtLa1rtfzTBUaUbPbIzrRkQzOsA7Tj4XmZosearYfP4++f+rIP0orhuRc04nYw6A/8kN0YNBpPXm86p/1uzM5doRcTI6wD9yI/RAEJmSKrMKnzWfV52teXlx7Yj8Tba8Bxiasz9EpqZKX8XU5u5K/Sp3d64fEWeCAPxPboQeCCK9NJ+/T/63FWTnMNeRiDNBgOE5+0NkaqqcrTH3gL9Ky8ZublxHIn9yPBqDAIPKDdCDQOS7ZOBc5XTxKc3nVZvRDwfXksifvL4agwCDyg3Qg0Dku2QXp5aaz6s2oy8pnkQswwKw/EpkuGQXp5ZPFq/Uv3J/73oSsQwLsPxKRD5NBswtNp9XbUa/5O8gYhkWgOVXIt0nuze12HxeuZBaMosjYhkWgOVXIkM0n1exRv9ElWb0JX0sIpZhAVh+JdJ9qjRvrzVozy5UFWRHMdeXiGVYwFAcPijS0ozBWsuWKs3oZGcx15iIZVjAEG5v3exF2jrAb83G7So9Lc/PrjGRP3l6MjYBOnc4uNmLfJ8MkHtoPq/cjH535zoT+bMqAaBrz89u9iLtnJuxxeF9VZaWZTbG9SaSZHUCQJdubtzkRb7P8dhX83nlZvT0pbjmRLI6AaBLj49u8iLfN2pnYNzzmRmVmtFTDLnuRE4nYxSgUz9/usmLfJ3sztRj83nVZvQtlpiJtBmALv365QYv8nVeXvpsPn+fNIBXkcZ4157Iw4NxCtAZp5+LtLRD1B4zA1WKrS1nekTaiVPRge7YfleklWVJWzWfV15utkWvi4jteAGuyva7Iq00Zu81IK/UcL9HwSViO16AXbmxi3yVDIBHaD6vOuuTQsh1KJLdKgG6cH/vpi7SxuF8WzefV25Gz5Iw16KMnexWCdCFNLa5sYt8lgz4R2o+r9qM/vzsWpTR8/pqzAJ0Io1tbuwinyVLnkZqPteMLqIPBGBDNzdu5iKfJwPe0ZrPKzejpyfFdSn6QACapv9D5Kscj2M2n1f9HFIIpSBybYo+EIBmPT25mYt8nipv/vduPq88E6QZXfSBADTN+R8iLfQ+XKP5/H3SBO6zENEHAnAhN3KR6rs/VTmIr1JBdn/v+hR9IAAN0v8h0sL5F5V2f9KMLlIh2T4foEmHg5u4yMepcgL4tZvPKzfl25JXxk22zwdo0unkJi7y8bazlVyz+bxyM3qFZWki1wtAk7KThpu4yPscDprPNaOLVE+WUQM0xQGEIp8lA1tv+dtoRrclr4ybLKMGaIoGdJGPkuVOms/baUbPbIzrVhxICNAEBxCKfJQ0fGs+/z6ZmVGkiTiQEGAGDegilRusqzWfV/6sbMkrGtEBmqABXaTyFrMtNFhXmS3KcrDsXOYaFo3oAGVpQBep3NfQyhazlfplNKOLRnSA0jSgi1Te2amlvoYqO4bZklc0ogOU5gR0kfd5edF83noz+v2961hGy/OzMQ3QiLwxceMWOefuTvO5ZnQRjegAG8obEzdtkXMycNV83sfWxZrRZbzc3RnXAA1wwxY5JwPWSlpoPq/cjN7i5ydyWR4ejGuA4m5v3axF/uZw0HyuGV2k5eRgYYDS7IAlUnHg3FrzeeVCrqUeGhE7YQEDyJsSN2yRJLsmaT7vbynb87NrW+yEBVDI8ehmLVKvebqHpUOVmvlbXcomYicsoEN2wBKptn1sL83TlWaUjkfXuIyUmxvjG6Cw11c3apFaB+j19Ma+Sk/Nr1+25JWRkv5OgLLcqEWSDFD1LPTdjP746DqXUfL4aHwDFJXDityoRTIwraSngXKlZvSXF9e62IoX4MpswSuSZMahiszE9Pb5VmpGT1+Ka176z+lkjAMUdTi4ScvouburNfvRY7N0pWb0FEOue7EVL8DVOANEpNLb+Z63i83ypyo0o0v/+fXLGAcoKlO0btQybjIQ1Xw+Xp9ND1scizgLBGiUM0Bk7FTaoan3XZoqFXs9HPIo8n2y0QxAOZmidZOWcVPljIpem88rL3d7eHD9i7NAAK7ADVrGTaXG6FFO6q7U8H86+Q1I73l4MM4Birm5cXOWkZMBqObzsZvRR/nMxVkgAEU4A0TGTQaelfTcfF65GX2EWSdRgAAoQEQKJLsgaT7XjD5C3404CwSgEIcQyriptPXuiIPgSs3oIxV/ogABuDKHEMqYqbQEaNRlQJWa0dOT4nchChAABYjIZkm/heZz38NbKYj8NsRhhACbcwq6ePOu+dxMVGRJmN+HKEAANucUdNF7oP9AL85ZmuP9RkQBAqAAEely9yU7MP1J+l+qOBx8H9JjnIYOlPLy4sYsIyUDTM3nzmP5zOur70MUIAAbc2OWsZIBpuZzzehfeXjwfYgCBEABIrJC7u9rFR+2fq3ZjH46+T5EAQKgABHpsPlcz0HdZnQzU9JXsuU+gAJEZNg+g4/euNt9qVYzut4cUYAAbCJTsm7MMkaenn6XluVYox+EV6lItDuZKEAAFCAiXTWffzboHb0BOrNBzmcRUYAAChARDc47ymzNqN9VCjCbBIgoQAAFiIgtXneWP/OofSGVZqtGXxYnveR0MuYBFCAims8nHYo34gC4Ur9Odk7zO5L28/xszAMoQEQG3np3bl/IaL0I1ZrR7VAmChAABYjIpGTgWOlsCW/i22xGd1aLKEAAVnM4uCmL5vN2pCl6lLfxlZrRsxTO70kUIACryK4Ybsyimbm1JVmj9IVU+v7u7/2eRAECoAAR+SIZMPZshGVBlZrRsyTM70oUIAAKEJFum8+n9oX0vCQrf7dK0hzvtyUKEAAFiEhXW+8u6QvpeWBcqZAc+YBIUYAAKEBEGlm6s1dfSJq2LaXb/nP2+xIFCIACRGSI5vOR39BX+j5HO5NFFCAAChCRwbbeXdIs3VtfSBruq3h+9hsTBQiAAkTkTTJAHF36QnraqrdaM/oo2yCLAgRAASKi+XxWv0JPy4UqNaOPdiq9KEAAFCAiA2+9O9fxqBl9i+JulBPpRQECsLL7ezdl6WmZTgaGfNy30MOAuVIz+ggHQYoCBEABIqL5/KK39q33LlRqRk8x5HcnChAABYgMnDRe0/c2stVmubIszG9PFCAAChAZMJX6A1qQXplWl2RV6vPJlsd+f6IAAVCAiOZzJm7Vm13DWvuus4yskhY/Qxkx2XQGQAEi0uUZEa31hbS4jKjScrteT58XBQiAAkTkk2QAyFg7OlXacEAzuihAAGa5uXFTFluzcu5naKUvpFozek8HPooCBGAHbszSbh4eFA5r94W0slVvpb6fnLPi9ygKEAAFiAyQDPyqHfjX+nbAmVlIYacZXTO69JTHR+MdQAEicmEy4Kt6xkYPu3Idj5rR525t7HcpdZOeT4Ayfv1yY5YWkwFytZmDqqd2XzKjU7kvpFIzer7/Vs9WEQUIwM5yOJGbszgRe4sZg2xxW+3PuWSXp8p9IZrRRRQggAJEZKg339/1AOT/3kNfSNXBdaWZMFvySt1k10sABYhIF2v/p+yClBmbHvpCKvY5VOsFavFgRxkhAKUcj27M0lIywKvafP5deugLSfFXrdeh0m5omtFFAQLwrewN7uYs7aTaTML75vMpZ5e03heSP3+lN/3VluTZkldq5fXVWAdQgIhc0Hzew3a1aepuvS8kMqOjGf2/np78VqVSstQaoJSHBzdnaSUZ2LXSfD6lmDqd+ugLqbAkSzO6iAIEaEa25nODljaSgV1LzeetFlVL+kKuveyoWjO6LXmlTtLrCVDK3Z2bs7SQ9E602nw+Sl9I/h6a0dcrTkXWSZZaA5TjBi31U2lwuaT5fEpfSLUZntb6H6oVqZrRpUYOB+McQAEi0vjymqXN51P6QqoVWkukt+VafSGVirgtrhERp6ADnXAYodROpQbjPd5uV/z7LmnEzqzOyBsVZJas2pkpogABUICINLbF6l7r+9Nf0kNfyN7N2JrRRRxCCDTBaehSN9UOmdtzUNlLX8jeS5EqbW+cHcL8jkUBAvAfDiOUuql2YN/azedT+kJ6OLQws0Z7LUeq1oxe6dR4GS0vL8Y4QFEOI5SayQxAxYP3rvFZ5L/buhRve/WFVJo5utY1I+IQQqAwhxFKzVQcdF+jsbrycrSqS9iqHfCoGV0cQgjwLzc3btJSLRmwVVNhPX8KoNab08+zAlsOyqs1o1/zfBRxCCFAUW7UUiuHw7jN56P0heTvsOV2xpWa0bMkzO9abMEL8C+24pVaqbb7U8UzHXrpC9mqSTv/3krSHO+3Lfvm7s74BijsdHKjliqptotR5UbiijNFS+Tv0Xshu8f5MSK24AUaYiteqZNKS2cqNJ9PedPfQ19Ivve1Z5mqFWhbLjkT+XdeX41tgOJsxSs1Uq15uJXD5PK59dIXsmaxV20zg70PZRRb8AIUZiteqZEM0DSfLx9s99IXsma/RKXPpGIvkdgBC+CK3LDl+qm2lKjFAWMvfSFrzRZUa0ZvpaCV1vP4aFwDNCDrRd20xUF7LTSfT2nk76EvJI3baxSAlZrRW1jSJ7bgBdiJrXjluqnYw1C5+XzKoYU99IWkeLj0e6g2K7TV1sMidsACGmMnLLnuYFnz+TZ9IRV3FVuyFO6SpUvVmtFbnVkTO2ABrMxOWOJQvV7X6j899dEXcsnAvdo1phld7IAF8L8TU9245Tpv6Su+ce9tgNhLX0hmppZ8N9Vm2bY6fFHEDlhAY9y4xa5NPS+RySC8UkP2JQXikj6KSj0x+R78/mWbZEUDQDM0osv+qTggbrn5fMqMU3aX6sHcWYRqO62ted6JyN/c3hrPAA05Ht24Ze9lQZrPHfp46WzV1CVZ+d9VWoaWDQLcB2Td/PplLAM0JgcXuYHLfqm4Q9NIB8Xl79pLX8jUWatqzei3t+4DogEdGJpGdNkvGXhpPtcXsuZ3N2VJU7Vm9LVOfBfRgA40zA1cxl0CNOr5DCm6eji0MLLlcEvN6Cmc3A9EAzowOI3osk8qLv3pufm81fNYlvZWfDWTVa0ZfaRlf6IBHeADTkSXfXoPNJ/7brbe5vazgrJaM7prT5yADgzOieiyfSpuA+st9L/7JHpoTs/f4bPvtdoSwNFn32SNnE7GMECjbm7cxGXrwa3mc30h1270rrYJwqj9R7JmDgdjGKBhmcZ1M5dx+gwM/j4vQnrpC0kx9b7IrDYTpwiWy3J/b/wCNOznTzdy2WpAq/m8veTE8R7k2nv7XVfrd5l7srvIvwPQNAcSyjgDWQ3A03J/30dfyPt+n0p/pzTOu9bEAYTAoLKNnxu6rJ+KB95pPp93eGQvfSFZWpYZuWrN6FMOUxRxACHQKX0gsv4bdM3n+kKqzX5Vuy5zhonrTPR/AIPSByLrJgMrzef9JCeO99IXUm1pWWaaXGOi/wMYkD4QWXfpTkWazy9Llgv10hdSfdtgEf0fwAD0gUjfb8s1n693rksvfSGVZmVcW6L/AxiUPhBZJxXfkms+X7cvpOISu1526hL5Ond3xitAR/SByOWpdtaC5nN9IS3IIYmuKfk+v34ZqwCdeXhwc5dLU+20ac3n2xec+kL0KMleOZ2MVYDO3Ny4ucul/QEGdmN+7xXPfGnxrBLXk3ydbBgD0J3sruEmL8tS8bwIzef79YVUnP1qrRndUkH5OtkwBqA7h4MbvCwdgGo+l2onjbfmcHANyWd5eTFGATqV3TXc6GV+MnDyRln0hVwmS9lcQ/JxjkdjFKBjtuOV+anYA2BN/XX7QhQhy9zfu37ko9zfG58AHctbFjd7mZ4MmDSfy0fL8hxaOF/OWHH9iO13gcHYjlfmpeKhdJrPbU7Qsttb1428Tc7pAuhe3ra46cv3yUCpIs3nDqhsWQ55dN3I3+TFIED3nIou7Z6GrflcX0gPW/K6ZuRvck4XQPdy2JGbvmg+F30hZvHE6ecAu3AqurS7rEbzef0iRF/I93Kwo+tFnH4ODCZvXdz85fNUPPla87mzY3qimBbLrwDLsEQ0n8vKWzjrC7GcUCy/ArAMS5rcWlXzebvFrL4Q17RYfgVgGZZ8uYa/4ltrb4v1hWhGF8uvAJrnUELRfC5jb+t8bdlpzrVh+RXAYBxKKPW33tV83k8eHvSFvJdeGdeG5VcAA3Eoofy7adgyFdnj0EJ9IZYXjpu8+AMY2v29h4FoPpdr9IWcToqPszTruy5GSV78AQzv9dUDQapuvevtsL6QEeRzcD2Mkrz4Axje8eiBIFUHgprPx9j4YPS+EM3ooyQv/AD4/25vPRRE87lcuy+k4jWo10nWzdOTMQfA/3l58WCw9a4BmVy7L+T5edwCJH9310HvyQs/AP6RLQE9HEZNxUGf5vNxczxqRpce8/xsrAHwLzmR1Zkgms81n4u+ENe9OPsDYDfOBLH1ruZzqdUXMloRYubP2R8Ag7m785AYb819xQGe5nN5e42Odmih3qcek90mAfiEZnTN59d3OPhupI2ZOlvyiuZzgItpRrf17vVZgiItFcxbuL/3fWs+BxiGZvRRkgGOJlzRF+J3IJrPAQpwMrolLd78Su2d20boC7Elr5PPAQbiZHRb71r7LvWb03vvC3l68j07+RxgKKeTB0e/ycBG87n0kFwzmtGlbrKsGYCJ7u89ODSfaz6XVvqZeu0LeXjw/babnK0FwExZu+oh0lsyoNF0K/pC2nA8+m7bTc7WAmAmW/L2mOdnzefSb1/I6WQZlth6F8AsiGg+N8gSPU52wxoqWcYMwELZwcPDpJdkOYfmcxllqWEvfSH6QGy9CzAYBxP2tDyl6oBM87lsdWhhD30htuN18CCAWRBpMo+Pms9FX4gCRMx+ADTBwYQ9pOqbYM3nMvLyQwVIbzkcjBkAVpP9zD1cWj4nQfO5mAVssy9EAdJKslzZwYMAZkHkf8kyJ83nIn/6QqoexOl30nqyXBkAsyDyvzXwVWk+l2v9Jqqeh2OZotkPAMyCOBNB87noC1Goi9kPALMgMjVVl5t4qyt2h/teNo/wPZn9ADAL4oHT1GFsms9Fvu8Lqdqcrv/D7AcAZkGaStV17gZVUrEvpNpW1SmKLL8y+wGAWZBmcntrTbtIyzvG2X7X7AcAZkE02Go+F30hZj/E7AfA9WZBcvP1EKq6nKTqmnbN56Iv5Hvp3/I9VM/jo7EAwO4y9ewh5A2u5nPpdxnjNfpCMnvp86+e11djAICryNSzWZCKqdZMq/lcWp5N3LMvxBJFsx8AmAVpLlnipPlcZP1Zxa2XZCk+WsnLi2c/wNVlKtpDyS4+BlfSf1/IVrOLZgdbyv295z7A1WUq2kOpynKRqjSfSy/J9rhrzYbkrJ4UNj7XVvL87JkPUEZuyh5OFQqQDPQrxvcjvf3WLilEUnj4XbSY7AAJQBGZkvZwEpHxCpH0h5xOXxcj+f/L/yZLrbK7ls+uxRyPnvUA5TicUETE7J9DBwHYjcMJRUSkxxwOnvEAZdmWV0REbLsLwK5syysiIrbdBWA3GtJFRKSHpLcRgEacTh5cIiKi8RyAnWhIFxERjecA7EpDuoiIaDwHYFe5iXuYiYhIS7m78/wGaFZu4h5mIiLSSpx4DtCB3Mw91EREpHqyjbzGc4AO5GbubBAREXHmBwC7cTaIiIhUTraPB6AzlmKJiIgzPwDYjaVYIiJSMQ8PntEA3bIUS0RELL0CYFeWYomIiKVXAOzGUiwREbHrFQC7shRLREQcOAjArp6ePABFRMSBgwDs6OXFg1BERPbN3Z3nL8Cw8hBIE6AHooiI7JHMvgMwuMPBA1FERLbP87NnLgD/yD7sHo4iIrLllru3t563APzD1rwiIrJlnHYOwH+kH8RDUkREbLkLwG70g4iIyJrJbosA8CX9ICIiou8DgN3oBxEREX0fAOzK+SAiIuK8DwB29fjoASoiIs77AGBHP396kIqIyPRkCW+W8gLAYtnBxENVRESmNJ1nCS8AXCRvsvSDiIjId8nSXQBYhaZ0ERFx2CAAu9KULiIiHyXnRwHAJrKtooetiIi8Pelc0zkAm7IzloiIOOkcgN3kTZedsUREFB92vAJg1yIke717CIuI2PEKAHZhZywRkTFzOHgGAnDFIsTDWERknKQPEACuyva8IiK22wUARYiIiNhuF4B+2Z5XRETxAQCKEBERuWi7XcUHAIoQERFx1gcAhIMKRUQUHwCgCBEREcUHAIoQERGplft7zzAAFCEiIrJDsq06AChCRERE8QEAihAREcUHAChCRERE8QEAihAREcUHAChCREQUHwCgCBEREcUHAChCREQaPmTQOR8AKEIMCkREnHAOAHsVIaeTgYGIiOIDAHb086cBgoiI4gMAFCEiIs0my1wz0wwAfOLpyYBBRETxAQA7yvaQBg8iIsuT3jrFBwDM8PDwZ92ygYSIyLxkOSsAsECaJhUhIiLTczh4dgDARW5vnRUiIjJlpyunmwPASrKO+fnZAENExDa7ALAj2/SKiPx3p6vMFAMAG7FDloiIna4AYFf395rTRWTsHI+eBQCwK83pIqLZHADYVZYe6AsRkVHy+qrZHABKyL73Bici0nOyE6B+DwAoRF+IiPSapyf3eAAoKW8H9YWISE/9Hg8P7u0AUF52hzF4ERHnewAAu8lbQ0uyRMQWuwDAbvL2MI2bBjQiYskVALCbNHAa3IhI9V2uLLkCgI5kl6zsoW+gIyJ2uQIAdpFdsk4ngx0RcbAgALAjDeoiUqHR3MGCADAQDeoiotEcANjd4WA2RET2SZaAmvUAAMyGiIhZDwBgf2ZDRMSsBwCwq8yG2ClLRNbY4cqsBwAwmZ2yRMQOVwDArjKAyEDCgEpEpuTl5c+hpwAAF8mAIgMLAywR+azJPD1kAACr0qQuIh81mad3DABgE1mW9fOnQZeIJnPLrQCAHVmWJWK5FQDA7h4fLcsSGSWZ/bS7FQBwdRmQPD0pRER6zfOzPg8AoKAMUPSHiNhWFwBg90Ikb0wN4ETabTDP8koAgKbkzalCRESDOQDA7oWIHbNEahce6ePSYA4AdCVLOrK0w4BPROEBAKAQEVF4AAD0XYjoERFReAAA7Eqzusj2u1opPAAAPihETieDRRHb6QIA7MiBhiKXn1z+8OBeAgAwS5aLZNmIhnWRaUnhfnfn3gEAcDEN6yJfN5Zn5hAAgJXl7W7e8mbQZfApoy+z0t8BALCTLM86HCzPkvFmOyyzAgC4suyeZVZERpjtsI0uAEAhGZxlkPbyYsAqfWyhezzq7QAAaEIGbXbQklaXWNlCFwCgYVkvnzfJlmhJ1eQATkusAAA6lDfL+kVE0QEAgGJEFB0AAIzhvExLz4hs0dOh6AAA4FNpYM8ZI05el0t2r9JIDgDAbHlrfV6qZXZEPpvlyNKqFK22zAUAYFXn2ZEMOPWOjH0wYLZ5ziGYAACwm/SOKEgUHAAAcBWZIUnDcZZsOZG97SVVCg4AAJqTHpIMYjOYzaBWH0nN2Y1z07geDgAAui9KzJTsN7NxXkqVYiPL5wAAYFgZEGdgrDC5fBvc86xG+nNS7DmDAwAAJsqyoAyiM5hOcZLB9ehnlLwtMs4zGvo1AABgBxl4vy1QMig/Fymt9Zycl0klaeTP3+fcDG4mAwAAGnLuPTknu3WdB/jnZNB/LgDWyHk3qfd5++fQiwEAAAAAAAAAAAAAAAAAAAAAAAAAAAAAAAAAAAAAAAAAAAAAAAAAAAAAAAAAAAAAAAAAAAAAAAAAAAAAAAAAAAAAAAAAAAAAAAAAAAAAAAAAAAAAAAAAAAAAAAAAAAAAAAAAAAAAAAAAAAAAAAAAAAAAAAAAAAAAAAAAAAAAAAAAAAAAAAAAAAAAAAAAAAAAAAAAAAAAAAAAAAAAAAAAAAAAAAAAAAAAAABwVff3f3J357O41M2Nz5P/XguHw48fT0/z8vDw95/PvwuAGuOlx8f59/Qkz4LzvyOBIeXH8OvXjx+/f//N66sfxdLB5s+f//4sW/48b2+n31Dzv/VQ+vNgyTXw8vLf62Ct5Hp6fv7z38lnn4fgiL/X/J1dn39/q0sHQ5fmfP0pkl2rvckLxFzfx+Ofe+77sdLayb8//53T6d+FimuC7uRH9dWPwdv7ecXHd4PO1gaJ+fNOvXGOOADOd56HUx4WWz6UlhQn59mTnh9c+Tu6Pr+/j18juQbz58o1qChxrbZ2T8/Lna2LjaW/q/zZzoUJNPvGbMrFzjQfzXx89HajpYexAuTz386U77tKct2lSMpDq6eXCgZ1tYrfr5I/ZwZ2oxYjrtX6z7qW7unGaHQ/YHYznK7HG4YC5L9vx1p8SL1PBkMGde3LgL61ay/FcL630QoRBUjdZ1yeya3ey/M8guYGUlOnF13g6w7UkyxNUIC0N9irOCW/JL18V6MP6loeOJ0LEQWIAuQaMovdyuzhCC+TGMjcN2fW8K5bgCRZG60AaUPFNfaXpJff8+iDuh4K4vTNjdBgqwCpI8/eXl4mtTCOgH9Jo6oq+7oFSG6A1R+8CpA+lly9b1I3qOtDL9dk7oW9b3iiAGnz5avZbLjyYLmnQUuVz/T89q/y2+jRC5A0bff0sOqtaVEB0lcR0vNgSgGi+NgiMMQbXVN96xcg1XtsRi5ApuwSt8Z2uR9lyzNEeprNVID0V4T0OhOiAOm3+PjqXv5R5q5AUYAw/KDKdm/bFCBJbo4KkFoubfDNQ+Z8mNSlp92+PU39fNjc+WCsuQ+znl4kKEDmFZ5bZO1BVf49PfYcKkCuO+5Zo+cj12ZeGJ4P3lzrOj3f23NvPv+u8uz47uBDYzK6vQl+FKdxblOAVD30cdQCJN/F0je4KQyu8V3mv3k+bTkPr89mUXr6DStAar0pzYAsg6hLD3FrZZdA12r/L5NSdGQp7rXvm2/v7+eXT3YopSmXvqXq8cFQpQCp+OZv1AJkyTLFqmcb5HvJAzRFSW+9XAqQuks18lvI97O0EOntZZcCpK1nc+6VVVcmQHPWWAOZhwnbFCDn04IVIO0V6vqjDOoUIB9LIbGkp6m3t7sKkOtYMvuRa8/RA3DlH2JL/Qo9FCDVmoRHLEDm9klldgGDOgXI5zKYW3LoW0+DQAVI/Xu5g5ehyA/xq61j2a4AqfQAGrEAyWyG7akN6hQg6xchc2dCenrZpQDZ39xt1BUfsIGpa9qnLj3p/dCoaxcgWepW4e3fiAXInIGCAzoN6hQg083d3KHaklTXalvmzLpVeeZCV/KjmtIImP/N1Le/3hRsW4BUmWlSgBgo+K4UINd4GdZbz6H7yv7m9PJ5mQQbmNp8fi4qpv5ovS3YtgCpsOuYAsRAwXelAFnTnCWOPR205r5S+/fhiAG44luA87KqqesmNd9uX4Bcex20AsRAwXelALnmn9t9hSXm9L3q5YMrDiDfLvfJzIYf7XYD9bmNmFmGcK2eGwWIItygTgGytjk7MipA2PrZ5URx2MDU9bbv37JP/eecf7BsoD53S+QULddY8jZiATJn55SemmQN6hQgChDX6ojPZAcsw8qmzmR8tPvD1N1KDMCWDdSnbgxw7cb/EQuQucvprB02qFOAKEBcq+3exzWgw5VueJ8NbKcuFTIAWzZQX9I3sveSnxELkKmFuyLcoE4BogBxrdY0Z8tnS7BgZZee6TF19yzTl8sH6nMPStr7DJYRC5A5xbdtqQ3qFCDb/r5cq2z9+9DPCiuautXhV2dNzDk/RAGy/OEy57Ck881yr36QUQuQqcW3IsSgTgEyz5wZxgpnIblWx3iRZCUHrGTqFPd3W7wubWJXgEx/uOSBPOfApD2njEctQJb06Jy/F+fjGNQpQNYp7nuaXVeA7G/OoZf6QGAFU/e//qj5/L2p6yh7elN1jYF6Pue5A949bpijFiCxZHnc+Xc1ekFuUKcAufTlWG/fmQJkf3MOvZwyHgK+kbdGay4ZmTqNea2zKnooQGLJsp+tt0EeuQCZc+1/Nhsy8m/CoE4BcsmAsLd1+QqQ65izusCGInCBOUtHpg6Opg6MR14Dv9ZAfc6U8fmtzZZrV0cvQPLZLlmK9f53YX2xQd3oBcjcZY29zSIqQOp/7g6XhQtMLRbmLJma8+AYdQpzzYH63LfuWy5/G70AiSXL4z4qFPMgNMVvUDdiAZLrfs59rcddiRQg17v25vZYWkILC0y9yc/9gU19Mz/q24M1B+pL3rpvNfukAFmvCFGIGNSNWIDMLT56/a4UINczZ+nf22eq+zSsPFhc0mw1tbF91P201x6oL7lhbvHWRgGyfhFy/g2mV8vSLIO6nguQfOZz3z73eq6UAuS65i5vPo9nzIbAij+wpW/Lp+5eMuLNc4uB+ty1qxnUrt30rAD5tyVvc/WIGNSNVoDks56z29UIJ1IrQNq9d6cQyeoO92n45Me19c1tan/JiDtJbDVQn/sQzw12zWljBcg6xeHUQsTAw6CuxQIkLz4ya5vZi7kzHlvdu1yrbPECKdd37tX5PjMmyne1ZhQ5dHtzu3SJ1NQlKKP9iLYaqC9poFuzAFSAfD3oWns25PwW2ADEoG7tAqRyRjjAUwHSTxGyx+9BIUIzpg5SL20Sn3rGyGinim45UJ96GOQWmwEoQKYNLNbqDbH+2KButAKk154P12rtIiQv6ir/LhyMSBPmNCxfekHPOWVdAbLew2XJqdxrPMQUINN/F0uaHOcUIh5GBnU9FSB5Rmx9kKprle+eq1u8PForo73IpUFT+wTW2qp16n9vpLe3ewzUlxxSeOmgVQEy//Na0nxrC1+DutEKkHPfxyjFtQKk5oujre7Xay3FgtI/oKkX81pvm6Y2o4/049ljoL5k7eql34ECRCFiUKcA2WM2pPdrWgFSa9y01Yy1AoRhTO3JON/k17qxTZ22XHtb2JELkFhyFsUla6wVIAoRgzoFyF7JcsNe7yMKkBqqL7safUdRGpGBx5If0hoNylNvplud0D1qARJTZ6DWmP1SgLRRiIzarK4A6TM9NqYrQK4/Xmph1mOLVSuwuiUD0beFwSVvTuc0o4/whnbvgfqcma9LDilUgLRTiPT89tigbqwCpMdzQRQg1y0+qm+9O+rLWxp16Q8q//wlS6SmbmO31pawCpDLvv8lD3QFyDbyu9vqbVx+l6PsIa8AUYS4Vtl6rPTVS5+8UFozuX+b+aCbAe9WWyFO3f730sMPFSCfv9WZuwRv7lsVBci2tmqGzHUxQuGvAKlxEvpnRfalp6OfixDXKktden89n3x+PvUc/KhWHrQs3W966oOl9x/utQbqSwrROf0CCpB9pJjc4kDD3k+YVoDULUA+upcsXX7YQ0+IAmR/c85I++hlne8BPhisbLXl29zBytSbau+7OVxzoD7nwTZ3dzIFSPuFyNL+H4M6BchWg8Il13fr358CZP976ZLrLOOgUZawwmxLTsWeM904Z7Ay5xySnn/U1x6oT+3Hefs9Tyk2FSB9FCK97pSlAGmvADlf33PX5be+lFcBUvfzHqlfFS4yddlTBqVLmq/mDlamDn6XLvNSgEx7oM9dZz1lVkoB0lch0lsRogBpswBZWoS0fP0qQPa9tubeM0fdyhwmm7OmMTexS/a+nrruduqfKTcEBch2D5clhxR+VxQqQPorRHpajqUAabcAicyKz7mmW54FUYDsZ+4qETMfMMHU2Yb3N+qly7amboM49e17r28ZqgzUl5wN89WfRwFSrxC5dAOKns7mUYC0XYAseTa1WkArQPYzZ2YtPR/AhLdFl1T0uakteYM6pYl16kOk1x97pYH63AFqvt/P+nMUIDXl93jJgYa9HHKlAGm/AJnzAqvlHbEUIPu9pBlpcwPYxZzTrz97w5mB5tJDeb6appzzo++xGb3SQH3J2urP9tpXgNR2yYYUPfwOFSB9FCBznm2tnguiAKn3LO7ljBnY3NTZi+/ebmaAOnfXpLf/7s+Km6lv3nt5+1p5oD53bfVnbxYVIPVlNmTJQW/OVlCAVLqGe/m7uFbb+Zx73hgHVjNnbf/Um9eSberObw0+ens6dbDa0xr0ygP1JYcwve/RUYC0YcRtTQ3q+hq0994HogDxOUOTpg4u5g4qlh4KlX/mox/vqM3oVQfqc5Y2fNTvowBpqwiZ+1tufRmWAqSfAmROAd3id2lgvI85qzt8zvCNOdPTS7aTy79/aV/I+ynMqWvSe3j72kIBEnObld/ufKYAacvcWS+nSytAqphzn1KAMOp1BLuas6vR0qVNl/SF5J87/3fnNKP39OOvPFBf8mb83KejAGnPnJcJre9/rwBRgLhWecsMCKw4eNxza825S3bevjU/L90ZsRm9+kB9bpPneXCqAOl7oNN6E6YCpJ8CZM5GCgoQfM6wsTnbbK71Y0p/xtK+kPyzcwatvWzJ28JAfcmWrde4/rj896sAUYD03ITe4iYmBsZewEBTpr4VWrunYunWnuftPaf+s73cAFqZKVi6zM5Dsx1z+kAUIAqQ1q5Z2/Cy1gsYp6DDCjflLdZy5y3T0tOWp86g9NKM3koBsmS7Vg/Nfgc6re9GpwDpY9A+p8+x1UGjAmQfc5cb93gwMlxsztvqLaekl/aFjDIIaqkAOd+glyyx89Ds775hFywFyLXN3SSj1Vk7Bch+RrieYDOpyvdsPv/OnGnNuelhGrS1Zu0tvk8PzbbuG62upTeo66sAmXsgbouHELpW676Eafmagk3MmXXY62a11ZvzHqZBW9wtau2ZLQ/Nth68TkJXgFzb3OUyLV+zCpC6L9jenn0Fw6vaQ7FVD0HrW/K2ul3tmt+lh+Z1zd3lLAWoAkQBci15lszd6KTl5boKkJpjKEUILKzer3WQ2JymwalN6y3/+FstQDLztNasVi8PzQwU8pnkGs9GEC1cl0u2WO5h2YECpM0CJPeduS8/Wp+xU4DU/bw/Os8MhjTnxnzNwdHafQQtv91q+cC+OX/2ER6aH/3+0qeUB1q1v2MGcku2Vu5l+0kFSHsFSIr6JS897NjGHHM3N3jfmG42hOHMWRNbYdnSmn0hGfgpQNp5W9TjQ3NKE3eu97cFyTUeVPlzZgnV0t9eT7NVCpA2CpAUHku3de+hYFaAXOeau2RVRu6xlfpT86zJtZFrKS+eEljNnKVNVW5SS6bTe7vxtl6AxKWHFPbw0Fw6q5frP7/dc1GyxUMrxX6WWi0dxPXU+2FQV7sAyfWfzzu/p/wuLnlJlX+2h7Ma5lyruZ/kd149LSxXWmO5eL6P3Df33PAn/63c7/PfzWf92W8IVqtuWz3AL3/2NX7orTaj91CALGkK7W2At/ZJ8eeBRB4iGYDkgZLPaUryv//u4bPkz9PT0gIFSP8ZcbbOd7Puc23tjXPynDzPgieZaZl6Xz8X5ud/9nyPX3qf17PCKuY0kl6r+XzNv0NPZxP0UICc37yMPFDYapvpCsnfrbeHlQKk7/RwSK0CpM8ipEpS/MDF5rx9rjxIz03pkoFc1eJqhAIkli5Dan2At1YzvuJDAaIAUXwoQBQhe8RJ7uw6+GlhmdIlfSEtNhz2VIDEkuV0rQ/w1j6YsUp63lpSAaJYVoAoQOYUIWsfIXDtaETnYnPWnrc07TnKFqG9FSBL3ha13ih6Pv+jp4dTHrY9byc5egHS2xvdPC96vV4VIHUs3Qq6Ylo/H4cCswU9X2xzb7wKkBrmbrHcizycLt25p8JDaYStPEcvQHp5m5vrtfe17Jf01ylAtnnJ1stLJ9jlIdpif8TcNw4trv3tsQA5f28jTwPn75+lWZfsDrb3QK63tfMKkHVeXlVdHjjS9XrpFtoKEIWInbBY1ZwLv+Xp6fxIvlsy0OphhL0WIPFdb0Sva7Y/GuxlsJRiq1pBkj/TiLuhONxt+aYR1yySc08ZcdDUWyN0b7+p8/29eo/U24NwYZeHR6tnZLy/AX/2A8+PqtUCq+cCJD5b6pHBxKhvX84FydpndUx9COU7yX+/5x4PBcj0lzsVlw2ezzfI95RrtYcDBdd4BubzaGVWdcTfVL6j8+z3NQvGt+eN5PdjpgNWemCeD+JJ/LDa+85GWjoxpyg5n2Cbz+iSA6beH2ZoEAdwHR/d19eazXh7WO35UEMAWL2Q++6kXEUGQFsFypSMPGMNAAAAAAAAAAAAAAAAAAAAAAAAAAAAAAAAAAAAAAAAAAAAAAAAAAAAAAAAAAAAAAAAAAAAAAAAAAAAAAAAAAAAAAAAAAAAAAAAAAAAAAAAAAAAAAAAAAAAAAAAAAAAAAAAAAAAAAAAAAAAAAAAAAAAAAAAAAAAAAAAAAAAAAAAAAAAAAAAAAAAAAAAAAAAAAAAAAAAAAAAAAAAAAAAAAAAAAAAAAAAAAAAAAAAAAAAAAAAAAAAAAAAAAAAAAAAAAAAAAAAAAAAAAAAAAAAAAAAAAAAAAAAAAAAAAAAAAAAAAAAAAAAAAAAAAAAAAAAAAAAAAAAAAAAAAAAAAAAAAAAAAAAAAAAAAD8+H/Nqnfg2Xv3qgAAACV0RVh0ZGF0ZTpjcmVhdGUAMjAxNi0wMy0zMVQyMzoyNToxMiswOTowMJLwzSgAAAAldEVYdGRhdGU6bW9kaWZ5ADIwMTYtMDMtMzFUMjM6MjU6MTIrMDk6MDDjrXWUAAAAF3RFWHRwbmc6Yml0LWRlcHRoLXdyaXR0ZW4ACKfELPIAAAAASUVORK5CYII=;" vertex="1" parent="1">
                    <mxGeometry x="340" y="390" width="110" height="110" as="geometry"/>
                </mxCell>
                <mxCell id="10" value="" style="shape=image;verticalLabelPosition=bottom;labelBackgroundColor=#ffffff;verticalAlign=top;aspect=fixed;imageAspect=0;image=data:image/png,iVBORw0KGgoAAAANSUhEUgAABK8AAAStCAYAAACCzHjvAAAAAXNSR0IArs4c6QAAIABJREFUeF7s3WmQ3ed15/fv+d/bCxprY0eju9EgwBVcxEWiRC0k7VhjKbYnThXpqaRSjjOJlcS2YrvKzkuCr12RHVG0hqqZklOVSjKUbcmelGWPRXGVKBIEQZBoACQaQANoNnYQey/33v/JiwuNaYXEpSQS3bf7+6l6XrDqPqeI5Rae/v3Pc/4gSZIkSZIkSZIkSZIkSZIkSZIkSZIkSZIkSZIkSZIkSZIkSZIkSZIkSZIkSZIkSZIkSZIkSZIkSZIkSZIkSZIkSZIkSZIkSZIkSZIkSZIkSZIkSZIkSZIkSZIkSZIkSZIkSZIkSZIkSZIkSZIkSZIkSZIkSZIkSZIkSZIkSZIkSZIkSZIkSZIkSZIkSZIkSZIkSZIkSZIkSZIkSZIkSZIkSZIkSZIkSZIkSZIkSZIkSZIkSZIkSZIkSZIkSZIkSZIkSZIkSZIkSZIkSZIkSZIkSZIkSZIkSZIkSZIkSZIkSZIkSZIkSZIkSZIkSZIkSZIkSZIkSZIkSZIkSZIkSZIkSZIkSZIkSZIkSZIkSZIkSZIkSZIkSZIkSZIkSZIkSZIkSZIkSZIkSZIkSZIkSZIkSZIkSZIkSZIkSZIkSZIkSZIkSZIkSZIkSZIkSZIkSZIkSZIkSZIkSZIkSZIkSZIkSZIkSZIkSZIkSZIkSZIkSZIkSZIkSZIkSZIkSZIkSZIkSZIkSZIkSZIkSZIkSZIkSZIkSZIkSZIkSZIkSZIkSZIkSZIkSZIkSZIkSZIkSZIkSZIkSZIkSZIkSZIkSZIkSZIkSZIkSZIkSZIkSZIkSZIkSZIkSZIkSZIkSZIkSZIkSZIkSZIkSZIkSZIkSZIkSZIkSZIkSZIkSZIkSZIkSZIkSZIkSZIkSZIkSZIkSZIkSZIkSZIkSZIkSZIkSZIkSZIkSZIkSZIkSZIkSZIkSZIkSZIkSZIkSZIkSZIkSZIkSZIkSZIkSZIkSZIkSZIkSZIkSZIkSZIkSZIkSZIkSZIkSZIkSZIkSZIkSZIkSZIkSZIkSZIkSZIkSZIkSZIkSZIkSZIkSZIkSZIkSZIkSZIkSZIkSZIkSZIkSZIkSZIkSZIkSZIkSZIkSZIkSZIkSZIkSZIkSZIkSZIkSZIkSZIkSZIkSZIkSZIkSZIkSZIkSZIkSZIkSZIkSZIkSZIkSZIkSZIkSZIkSZIkSZIkSZIkSZIkSZIkSZIkSZIkSZIkSZIkSZIkSZIkSZIkSZIkSZIkSZIkSZIkSZIkSZIkSZIkSZIkSZIkSZIkSZIkSZIkSZIkSZIkSZIkSZIkSZIkSZIkSZIkSZIkSZIkSZIkSZIkSZIkSZIkSZIkSZIkSZIkSZIkSZIkSZIkSZIkSZIkSZIkSZIkSZIkSZIkSZIkSZIkSZIkSZIkSZIkSZIkSZIkSZIkSZIkSZIkSZIkSZIkSZIkSZIkSZIkSZIkSZIkSZIkSZIkSZIkSZIkSZIkSZIkSZIkSZIkSZIkSZIkSZIkSZIkSZIkSZIkSZIkSZIkSZIkSZIkSZIkSZIkSZIkSZIkSZIkSZIkSZIkSZIkSZIkSZIkSZIkSZIkSZIkSZIkSZIkSZIkSZIkSZIkSZIkSZIkSZIkSZIkSZIkSZIkSZIkSZIkSZIkSZIkSZIkSZIkSZIkSZIkSZIkSZIkSZIkSZIkSZIkSZIkSZIkSZIkSZIkSZIkSZIkSZIkSZIkSZIkSZIkSZIkSZIkSZIkSZIkSZIkSZIkSZIkSZIkSZIkSZIkSZIkSZIkSZIkSZIkSZIkSZIkSZIkSZIkSZIkSZIkSZIkSZIkSZIkSZIkSZIkSZIkSZIkSZIkSZIkSZIkSZIkSZIkSZIkSZIkSZIkSZIkSZL0gUSrD0iSpFnoyaz0vXO0q7jUyLHzIzUeeaBBRLbaJkmSJLWbaqsPSJKk2Wfg+JE1UdTvozMn+9f07Rh79JnjQL3VPkmSJKndGF5JktSGyqKxuiB/OTLLaFQWbVje/2bxZwfGa2XH+bE/HJhotV+SJElqF4ZXkiS1oUrZWJgRN2bEIHB7WcTuMvLlSkfjWbbmm2yNslUNSZIkqR0YXkmS1IZKsiOIXmDwyupPWF2W5aLBlQf6+Oq+o42ifvzt3735dItSkiRJ0qxWtPqAJEmahSrVBN7dXbUqgvsI/qeE/zWj8q8qZeeda/7k2ML3KyFJkiS1AzuvJEmaGzqbK3uBlUQuzWB1x4LLQwNfPfBmdtQOrCkunNj+pXtqrQpJkiRJs4mdV5IkzT2LgDuAh4L8fSr5X1FW7z3ZWDIw9M2D3Wx9ukpmtCoiSZIkzQZ2XkmSNPcUQNeVtTCSKsHaLIu7G5fLXUMrhnbU/3Ts0Bj4VkJJkiTNeoZXkiTNbV0JN5BsTOLOyHitEeUyqrXtG54YPVKj89z40XWTvp1QkiRJs5XhlSRJc18AnQHrILuA/qLITzfq5Y8qTLw0tGH0jVGYbFFDkiRJmhGGV5IkzR+dwFpgbRJDUeaqLFhRv9xYseHx0UNTjdqpY2fG3mHrg/UWdSRJkqRrxvBKkqR5KZcSfDyS64n4xczyR52VyvOb1gy8tB9OtNotSZIkXSuGV5IkzU9VoBfoJVkPuTiTFdONYnD94yO7E0Z6Gnli5MvXT7UqJEmSJH2UDK8kSVI14WZgA+T9RbId+PZkJV7pe2J8fLx33RQPURKRrQpJkiRJHzbDK0mSVABdV9YyiE5gAcnHKtMTb244NvJa/EV1z6hD3SVJkjQDDK8kSdK7BbAeWBfwCYI3M4q/y4lGMfT4wbcnLi+4cPzSnimHukuSJOlaMbySJEk/qbiyVgEdCYsouauMckfXgsvb+5b07RiHUy1qSJIkSR8KwytJkvR+CmB5c8WtmWzMyLXFdHXJ4Nf27Z0uObEIzjvUXZIkSR8lwytJkvRBdAbclMnqCD6ZWWyvVniqkbEdONRqsyRJkvSzMrySJEkfSMLigMXABoIVkfTUgr71j48MBxyZYurYyd/ZcrFVHUmSJOmnUbT6gCRJ0nsYAH6NzN8psvhfIot/0UnP5s1f3beErVmQGa0KSJIkSR+EnVeSJOln0QV0BSyFXAb0FJnXTRXF8PrVo7srXy/ePAzvtCoiSZIktWJ4JUmSfh4FsBq4H7gT2BuN8oWywt8PPHZ43/Rk57njl/ZM8cgDDSLy6qUkSZKk/z/DK0mS9POIK6sTWAlsiWApWd6UUe7o6J7e1tczsGscxq5eRpIkSXpvhleSJOnD1Av0ktwWcAPEmqKMFesfO/hGx+MHj09Xu86P//a6CbuwJEmS9EEZXkmSpI/KEMEXg/x4BPvq8EwxPfGjLY/ufnMYplttliRJksDwSpIkfXR6gKHmiusiWZhk74Xl3WvWf23/4UpRPXn4xIELbH2wfvUykiRJms8MryRJ0jWQS4H7i4ibMuK+CvlS1hsvbFoz8Ob+zJNeI5QkSdL7MbySJEnXQhVYlrAEclkGy4nsrzXYOfi1/cPxxOiBQ0cPnrQLS5IkST/J8EqSJF1LAawkWUZwexJ3E7xIvfz+xpUbXr/4+PDpkydPTPLIAw27sSRJkgSGV5Ik6doKoHJldQE3kyzMzME6MbwgFrw+uLx/d/EXowdGYfKqlSRJkjQvGF5JkqSZtITgFuB6yDsy2USlWN24WPYMPX5wbLradX68d90UD0ejVSFJkiTNTYZXkiRpphU0u7DWA58j2RTBfY3MFzumLv1w1cnd+07CxRY1JEmSNEcZXkmSpNmiG+gH+pLYDKzIoljSVXat7fvzAweKyY6TY+dHzjvUXZIkaX4pWn1AkiTpGisgl0Lem/DfBfH7lTJ/s9Ix9bFNawaW82RWWhWQJEnS3GHnlSRJmo2qQC/QS7AKWFlGLJuuc8OG4/vfKr52YP/B1RvHnIUlSZI09xleSZKk2W4RsAXYTHB/SbGtEfmP/affeqb6zYOnRxcO1XiIkohsVUiSJEntx/BKkiTNdpUrqwvYDNkVyXIaHTfVL5d7Byf2761/o2fPOFxuUUeSJEltyPBKkiS1kw5gIzAA+YnI2EHyXFGfrKz/2p792bF0Yvzom9MOdZckSZo7DK8kSVI7iSurE1iV5F3A6ijy9iI6d5aNqRc3rRnYsx9OXL2MJEmS2oXhlSRJaldFwGpgFXBjJteT5bKpjJWDX9u3t95RHh8/On7WLixJkqT2VrT6gCRJ0iwXQE/ADQG/EcGXM4v/uVIrPt23rm8ZW9PzjiRJUhuz80qSJM0FkbCY5lpHwTqyWFDUK6v7V4zsK/78rcPl5IKjY384MNGqkCRJkmYXn0RKkqS5poNkEPj1yPzjiOJ/IItfKrtrg0PfPNjNk1khM1oVkSRJ0uxg55UkSZprCqDrylqW0EEWy6vJpvJyY1f/hYN7+dOOkTE406KOJEmSZgHDK0mSNKcF9EOuTbgXYheVfCorU8+t/9qe12N60eWx8yM1HnmgQUS2qiVJkqRrz/BKkiTNdZUrq4vkViIWRXJrQefu7Kj/cGjV0M5RON6ihiRJkmaI4ZUkSZpPeiOzF7gl4U5oLK+Xsaj/6wf3dfzZgeOVonF25Pc2T9uFJUmSNHsYXkmSpPmoC1ifEb8acCdl7mtU88UyO/6RR585AtRbFZAkSdK1YXglSZLmq+6ADcAg5MYkVhCNng0rBl4vv7rv0MTCxolT//qmC62KSJIk6aNVtPqAJEnSHBcQq4DPJfxhWcTvZcQXe6aqN6x6fHgRW9PzkiRJ0gyy80qSJAk6gKXAUpKOiFiYJdd1sWB4/cqR4c4/O3Dg4O9f51B3SZKkGWB4JUmS9M+tAj4L3BvkaBHF39c6yqeHHj/4Gj2cHT00WueRBxoOdZckSbo2DK8kSZL+ucqV1Q1cnwkBQ2WWe8pLuXNw9fqdnY+NvD0CUy3qSJIk6UNgeCVJkvT+FgC3Q2zO4O6C2ExZLJmusmvT10eOTBQ9F8ePrptka5StCkmSJOlnY3glSZLUWg+wPuF+iM2UsbdG+WpH7dLz/UvG9o7BRKsCkiRJ+tkYXkmSJH0w3UB/c+WGjFifUSymY2rthsdHRxtTleNj/f3neDgarQpJkiTpg/PVz5IkST+9FSQfJ/K3I4o/btB4uKhO39X3zlu9bE3PV5IkSR8iO68kSZJ+eh3A0ubKlUVGV0aurtYq1w2sPLi38b/vH+2J8vjIl693qLskSdLPySeDkiRJP5/uJO8keCiJ30n4rytVPj0F/Vu2DnfyZFbIjFZFJEmS9N7svJIkSfr5FDTnYXUDiwuyKzPXRlHcdGHVgjcGTu/f2/VYHh6B8y3qSJIk6T0YXkmSJH14uhKuh9iQsIXM16PBM9MR2zc8MXqgRue58d51UzxESUS2KiZJkiTDK0mSpA9TXFndwHrIBUkMRPCJst7YXmlMvjJ46vCuw7HhnRZ1JEmSdIXhlSRJ0kejG6IP6Eu4joz1FLkqG43ega+PHKjV8vj6rnNnt3/pnlqrQpIkSfOZ4ZUkSdJHbwnkxyAGobyPRmyvVuIHZ8tlLwAnWm2WJEmazwyvJEmSPnpVYBnkMiL6gOWRsaJW5qqBrx7YXS04PNXRfXL8S32XWxWSJEmabwyvJEmSrq1O4Hqgr8y4N4p8rRH53Y769Lahbx48OHpoaJpHSAe6S5IkNRleSZIkXVsF0A3ZHdAL9JQZi8jGzVxm14blI7s7HmP/CJxvVUiSJGk+MLySJEmaOQH0B6wj8q7M2JOV4ns18rmBxw6PNjqrZ8d7103xcDRaFZIkSZqrDK8kSZJmTlxZBcSagM5MlmUUH4P6G0V9evv6E3u3vQ2nWxWSJEmaqwyvJEkzKzP4FgWA3SWa5yrASmAlmVsiuJGMdZFdnUOPHXyLgrP1qeq5sT8cmGhVSJIkaS4xvJIkzaxvUVwHi4pFpDN+pP+kO2EzsIzIOxrkcJaxrdpR/wGwt9VmSZKkucTwSpI0o1Z20VNvcFt5mSUDf5knGlWOd77DydHfislWe6U5btGVtSFhICJXN5Le/sf2rS0qeXjq0pLjx/9o7aVWRSRJktpd0eoDkiR9lBbA4kwejILfzIL/plryYGMZ6/v+Q/aQGa32S/NBwDrgQSL/xyiKP86s/HLXggtDqx4fXuT3RJIkzXV2XkmSZlRjimqlg+WR3BBwQ8KGTIaKOsP9f8W+6rfz8Oivx9lWdaQ5LIDOK2sZSS9kUWYx0J3db61/fGRv1xP7dx/40qZzLepIkiS1JcMrSdLM6iSjpJbQGTAA3BRwNyU7suD5DH7Q9x/yrWKCS2MwzUOURGSrstIclcAyiAciuBs4WKHyTH26LDZ9fWTf1ETXhbHzIzUeeaDh90SSJM0VhleSpJmXZAYF0EWzu6SPoFLAyrLBLZUGu4oqOwYq7D0SMd6imjSXxZXVBXQFdCXZTbBhusEbRVdtZ1/v4M7xiMMt6kiSJLUNwytJ0qwQzY6SxpX/LIB1CasJbiG4tUz6ssGygW/nzgqcXljj8vBD1Owu0XyWsBi4DWIL5G1JDhVVlgx+dd+OSlk5PbWg+8L4b6+b8HsiSZLameGVJGk2qwBLSG4gWRbBrSSv15Mfnq2wjWc4BtRbFZHmgQJiQyY9BXFLFpW3GpXyxY7apW13f2P7G9uh1qqAJEnSbGV4JUma7QJYQrAEWJ8wGMEKkhUD53iz8u08Uq9xfOzhmGhVSJrjegI2JLkB2FyWsTIoVp6YXrGq788PjHZX8tiB3usu8nA0kCRJaiOGV5KkdtLV/OGc5RHcS/JGHV4ou/hHns79PBh2YUlNvRHcB9wM5ecrZTzXyPxu/9jY3jE402qzJEnSbGJ4JUlqJwWwIGABsJpkaQTLipIVg2cYzr/KQ7UGo8cejpOtCrW9Rj2IotLqY5q3qkAvZC/QB7mgQSymo/bG4GMje4uisn/05NAJtkbZqpAkSdJMM7ySJLWrBNZQsiyCOzLYR/JCZ4Xvr/ybfGnDMSa3H6XBI+RcHFYdUSkhJ2nO/KrQvF4pvZdO4PZINhO5P4ltJfnd/jVvvVo+Mf7OeO+6KR6inIvfE0mSNDcYXkmS2lUAVYIqsBDozoJFkQwuaPCxYyvZvmkVw/thbnZhVcozNOIloAu4nmZAIb2Xgubfky7gpoRFZK6NesfHK1x+df2JA7uXPTo5OgzTLepIkiTNCMMrSdJcsTSSOzK5IYJ7iqBvqmRB/1+xr/rtPLmwxuXhh6jNle6S6lRxstaR34syGxFRK6EvroR4NDuxpPeyMOBG4Hoi70kYCmLlxeWdCzd9feTtiaLn4njvuimHukuSpNnE8EqSNFcEEAQLEwaB/zwq3ELJvjJ55XKFZ3iUIzSvG7a9XBrnmKy9lI2OMaL8QUFxV2b5CSJuB3pb7de89ePrpRVgbRD3k+X1ZVH8Yq3BS0Vj6sWVF97cfQouXK2IJEnSteR8DEnSjOr7Tg5UG/xuBr8KDNEcxv5haQDjwLaEv0/Y1REcvVhw+tSvcXGudGGt+ZNjC7t7Lt7RKPlMFPEpMm+EWAUsBTpa7ZeAyxAvZ+QzJNsSRmD69LJT5YXhrVu8TihJkmaUnVeSpLmsAqwBPgfcUkmGG/DDBXWe7/8Wu8ZgosX+tnD80pqJzV0XdkVHdbzWqD9fUHws4YtB3gWxlubMI+lqFkB+LJL+hM8V8FrS+dS5NfWdPJnHvEYoSZJmkp1XkqQZ9RF3Xv2kUwk7gVcCXiPZX8DYoTc4ztYoW21uC09mpf/k/o2Uxf0ReSfkZohNwADNgd1SK5dJDkTkj5LitSD3UjQOdtbj7ZEvXz/VarMkSdKHzfBKkjSjrnF4VSeZyuBSwBHgOZJnOoMf7a9zmt0kj5BtfZ0wM7Y8urvj0tKennpRriqqcVOW+csEnwfW0fz9DTwD6P2VQA2YgDwKsTMzvkdRPlu7vOjo8UtrJtr+eyJJktqK1wYlSfNJlaB65a18S4AOCtZMJzf0V9nVcRt7er7F0WFo3xk/EXnl/3+arXl+aNXohTJzoowcDeJjwJaA6xIWtyqleaug2aXXBbEwoaeIXJKwsXPBxV3reyb2dn2jPHgAzrUqJEmS9GHwqaskaUZd486rd0ugDLgMjGfyIsE/RMHr1WneLhYxOfIytba+TpgZPErAM8XQ0qFF9Y7yvoh8MDPuC9gELKIZUvgwS+8nr6wacApyeyY/KOAHlUYxcrnWc/H4pT1TbH2w3qKOJEnSz8zDqiRpvgqgcqUDaQPQmTBIyZ7pKjuZ5kebP8FbI9C+M36a17oSKEfh7MY/O7C93sHJIuIlMm/L4D6SW4G1Vy+keezHV0y7gLVkfDyCtQl3NKr5eldxaftA96bdR5pv9ZQkSfpI2HklSZpRM9h59X7GgZ0kTwHbig6OVCY5cwAuzpU3rt39xCsdJ8plN1LGL2VyX5BbklgRzauUXXg+0NWVwEXgLeC5yPhRvcLrZb1xplrvvjj2B/2TzsOSJEkfJg+nkqQZNQvDq2ngQsLJIjhA8nwJLxadvH74V+KdVpvbxZo/ObZwwaKJVY1aDkRR3kzEZxPuJRkAulvt17xXBlxKOJ1wgOCNyPxRSbzasbA4PPpbGydbFZAkSfqgDK8kSTNqFoZX73YZeIVgG7CdkhGqvN3VwemRL0b7Xid8l7ufeKXjTG15XwPuTfJe4DZgI82rhAvxrKDWLiccDniViFeBN2g09lcWV982xJIkSR8GD6SSpBk1y8OrkmaAdQ54m+TlgGcrsO3gf8lhgLa/HpUZWx7d3XFpaU9PvShXFZW4s4RPB3k/zRBrIc23z3lm0PspaXYsTtDsxHqNiGep5z8sfWfy0DC31Nv6xQeSJGnGObBdkqT3V9B8I98iYDnBwoSVteC6/u/wRllwYPpvcvzUv4wLLerMXhE53AwepoGzfY+PTFazeCczjhDcSpY3ErERWI0Blt5bQfOqaTfQG9BNmUuo5tpzK7p3r6+MHsgn3hwZ/9KNp1rUkSRJek8eQiVJM2qWd169WwINYDJhLIKdUfJ0JtvLgoMLurk48jI1HiHbthsrM/gWxdCl0Y7JC/XFHUXlZuAzRH6G5HZgGdBJ8+GXZwi9l6TZiVWjOdR9L/B8wFPVDl4pO4up0UOjdR55oNG23xNJknTN2XklSdIHEzT/3VwUzZCtJ4N1CXdVklcnJth53S3sORBx7uplZrFmmNAYvRLS9X/lSCO76ucr8FYZuSUy7oTcQvPX7xlC7yWAypXVDWwBFmfEdbUa92a98WrfqoHh8Ud5m2bQJUmS1JJPTSVJM6qNOq/ez0ngtYQXiuSHWXCwAqdHl3GRB6PeavOslxl93zi6IGoT/UXyaYLPAPcA64DFNDuxiqvW0HyXwCRwBHgK8jkq7KrV8nj34uqF0UND087EkiRJV+NTU0mSfj7LgTsD1lNwL8mOsuCltSf50bFmsNXeInIcLvd/5ciRRtfU96olbxG8lMS9wGeAQZodNtL7CZqh9ADwBYgt2Yi91YJtXOSF/iVjh8aaw94lSZLek51XkqQZNQc6r95tIoO9kbyc8HylZHfZwfGc4p2xh2Nu/HC+9elqX+9gX6XIu4j4LOSWJDZEsxNraavtEs1rqeOQO4jiuaQcrpaV0aKzPHrgS5va99qtJEn6yBheSZJm1BwLr0qSCYLzGRyLkp0U/Mds8Mqa04xu/1LUWhWY9TJjy6O7Oy6sXrSwiHJpvd64uYj4ZGZ+noiPAV14vtDVJc2B7peAc5BvRsaPosj/2Jjq2jH2B/2TDnOXJEnv5uFSkjSj5lh49W4NmjN+tpG8RsHuaLDvcgeHT/3LuNBqc7vo/8qR5ZWuqZtK4l7K+BhFbiTZQPOKmOcMfRDvBLG3jHy5IF9tZO6rdnSMHvrS0NFWGyVJ0vzgoVKSNKPmcHiVQJ1mh8kJYC/J96LgmXqVQ+vGObf9KI22H1T9ZFaGLo121N+p9mRXfbAoy09SxANk3g/08k9vnvPMoffToPk9mciI0ch8moxnqw1eqhSNsyNrN9d5iNJuLEmS5i8HtkuS9NEIoOPKGkjoiWAxyU2VOq+eWsPOodXsHoWzVy8zyz0cjdFm+DDZ/5UjE5WO+mQj60eJGM6M2wNup9mFNVdCSX34fhxwdkdmF1CNyA31StxTi9ix8cTBV5d/48z49mbAJUmS5iGfgkqSZtQc7rz6SXllXQZeJXkuCp6pB291JhcW1rg8/HBMt6gx+2XG0F+MdtUu1FdWKpVPUpafz4g7af7ZLqQ5E6u4ag3NdwlMA6dInkv4f6nErrJSGy8u9VwaO98/1fYdi5Ik6adi55UkSddGXFmLgFsJVmRyd5G8Xk9eulzhVeDQ1Uu0gYgchUm2Pn1sYMWmH5aVxlglGzdkxp3ALwA3AZ1XL6J5LmiGnGsIPhswQMn+SlZ3ll31pzcvH9kzAlOtikiSpLnDzitJ0oyaR51X76UB7AdeyOTFomBHWeMYcGbs4Zhosbdt9D3x5sqi0bmFsvwCcE8B/QmrgKU0r4tJLcRpyOGAv6dkWxHFWC0mT769+qazPByNVrslSVJ7s/NKkqSZU6E5D+oLEdxDyT6q/ENZ4bmhb+ah0d+KyVYF2sH40fGz160bfK1O4wj1yveykp+ijM8QfAJY1mq/BLkUuCOJ/izyFzMaPyrK7uf7x8a2jcGZVrslSVJ7s/NKkjSj5nnn1U86RfIiwUuRvBnJ/o4e9o98Mc632tgu+p4Y7ymmJm+NyLsi8u4kbgAGgXU0r4pJrUwAu4BXM2I7EW9VGnG4I2vjI1++3uuEkiTNQYZXkqQZZXj1nyRX3toHnAMOkjyfBd+pwlsrTnBp+1EabT+oemsW/UvGuoAFZXdtVbUsP5kUD0J+BthAc5j7j+eDSe+lpDnQfQI4meRLEXw/4YU11bOHth+9u8EjJBHZoo4kSWoTXhuUJGl2CJr/Li+6shYT9ETJ6kaw48QaXh/qZd8oHLtqldlua5RjzdBhgifz3MCxkXpUOJPj/PNZAAAgAElEQVTk/sy4PcgtEIM030wovZcC6L6ylgZFNTN7g9h0cnr564PLR4Yn/nz68Em42KKOJElqEz7VlCTNKDuv3lfS7DBpAG9E8hQVXoiCXZVJziyAieGHqLV1d0lm8CjRv2Ssq6xMr6pW447M/AJwT8KGgMU030zoUHddzY87sU5m8npEfDdLtnV1lKNTE10Xxvr7p3mIsq2/K5IkzXN2XkmSNDsFzdCmEnBDBt0kd5R13iwr/HAq2MG32E8z3GpPzTAhx2Di7ideOXq6vmK6VsTJStl4CbgN4l7gdmDJ1QtpnvtxJ9a6CDrIckVE8YnpevFGdNZe3nxs5LWRuH7OzI2TJGk+svNKkjSj7Lz6qR0leDpKnisLdmTJ+HSDsydhgoejfYOsdxn880O9kbWbyyweCPLTJVwXxCrIH3diSa2cDWJPmflspcIL0Sj212Ly5LJT5YXhrVumW22WJEmzi51XkiS1l5Ukv5DBTZHsj+Dl7grPDhXsG4WzrTa3g8MrB89f986B4WzUj5GV5yjzPiI/DXE30IcP39Ta4iRviWBtWfJZisaLRVZfOLuc7WzN8bZ/8YEkSfOMhz9J0oyy8+pnlsCZgNcTfhjJa2WFN8sKR8cneGeudGGRGesfO3h7FHw8Mu/M4KYghiDX4FB3fXCvA69kxI4icw9F4+DUpSXHj//R2kutNkqSpJlneCVJmlGGVz+zpDnvahK4kLA7khej4JmO5I3uOmfbfqA7QGb0/+lYd3Ze7KkUlaVlWdxRJF9I4lMENwAdVz7pmUbvJ4FJiMuQ5yFeD8q/KzNeXHp68s3hR25p/++JJElznAc9SdKMMrz60JwBRkjeiII3EvZEycjiBmPDD8ecmfGz4YnRdY1a487IuJMi74jk+oRBoBfPNfpgjhHsIHNHUOwsM/dMFZMHT/7OloutNkqSpJnhIU+SNKMMrz40JVAPmEo4FPAi8EJR8nJRcrRYxOTIy9TaftbPk1nZfGyk2igqa2tR3hwZn4P4FJQ3QCyn2YlV4BlH768B1IHjELsh/5Hg+VqjHF1xZvqcnViSJM0+DmyXJGluKIDObL6Nb1NCF7ChXnB3FLxWTLBz5Z3sOwUXWtSZ3R6Oxgg02Pr02xuXbZisd+RpyDciizuT/BhwG7Aawyu9v8qV1Zdkd2Qug7its4gXLy7v3Hb3N7bv2g61VkUkSdK148FOkjSj7Lz6SE0DpxNeJXiO5KWosG9yivMnYWKuDHVf8yfHFnYsmLi1yPKTGdwP3JiwMmAx0I3nHbV2nuAHlPH9qJRPdwRHGt2V86OHhqbbvltRkqQ5wM4rSZLmrk6aIc4nSAaAe6LB9s4qzw0Fe0bhbIv9beH4H629dN0T+/fWpspTCTshbiuK+ERm3g2xmX8a6i69n8Uk9xC5how7apkvlOfL7w9tGD0y2nwpgiRJmkE+iZQkzSg7r66p08Bekuci2BHJ/qLK2wenODVXurDY+nS1v3dwYxR5FxGfSLgjiI1BrspmJ5Z0NY1sfk9eLuCpRuTOrMf+ziXFidHf2miIJUnSDKm0+oAkSR+lxf9q69Ii+QTBjcAy7JL5KHUGrCC4GbglYU0JtcUFJy7cvHWKZx5t/yHVT/9FLt9z7lKd+ttJZU9Rxn4oyyyKRVeuEXa2KqF5LQK6AtZB3B6wuiiImC5Onfvun82JTkVJktqR1wYlSZo/qle6jxYDywkWR7KsAoP9d7Cv8tc5Guc4OPpb0b4dJhE52rzmNUnm6U3/Zv870/XKVEH5NsGWTG6EuA6yl+aQe+ndgmaAvgxyWUIlYEFZNJYOPr5/WzFd7Br9g42GWJIkXWNeG5QkzSivDc6YEmgETGZyKn481L3ge+U0B8dWUeNZyrYeVp0ZfIti6NJoB5dZVpaNTRTxWZLPJ9wArKAZVNiJrvdTBy4Bh8h8roz8v6Zj+o2TJ09M8sgDDSLav1tRkqQ2YOeVJEnzUwEUCR0EC7MZ4qykwfV08Fr/OV6ufYoDx5s/uLenZrDQGIUGcGzoTw9O1jq5VGTjIBRbCG6HvBMYvHohzWNVYCmwCaIoiI5uup/t6x38wbpvbD+6HWqtCkiSpJ+fnVeSpBll59WskTRDngvAzgi+Q8krDTg0VeXcqSkuz4mh7pnBo89U+lZv2FTN8t7M+AJwD0Qv5EKgC89Hem814CzJ8xHx78tG7piqTh49ueqWiTnx3ZAkaRaz80qSJEEzsKnSHJp/ewlLI/hckezuafDcdfDyATjXosbs1+zGqhdfOXK40lmbrMMombcQeS/JPVeG2XuNUO+lA1hO5CczWRSVeHZB2fXs4KnDuw/DO602S5Kkn53hlSRJercAlkeynOQGgutLWDxdZfH6b+eBasnxjgWcGfliTLUqNJuN/eHABHAIOLThidF9jXrjRJCnSU4TxUCQqxIW4lB3/XMViD6CXsiFSdEdZaNn4LHDw0tOXzg1vHXLdKsCkiTpp2d4JUmS3luwANgUsBz4TCTbGgU/KCZ4nidzbK5clVrJqVNHq4ufo9ExXC35h6R8IInPA9fTnHck/aRu4DaKXJ0ZgxH1py6uW/g94GirjZIk6adneCVJkt5PAfRcWeuBxZEsrwXrNlTYnX+Zo9WSsQMPR1tfJ9z+pXtqwCng1Jo/OTbW1XNpguR8EjdDbgY2A6txFpb+SQBLSBZDFgkdWW/U+x8f2Ta2atPBuRLsSpI0WxheSZKkDyJpDtRfG3BfGewieGq6wnP9T+YbYzDNQ5RXZkq1reOX1kz0V8a2lwsv7+2YKgYalco9Qf46yV00u7A6aIZ6Bln6sQHIBRA9RbJ46OTo344+mSfnwvdBkqTZwvBKkiR9EAF0XllLaL6Vb2EkQ1nhtfWwi2+z7204fdUqs93WKMdgApjo/8qRS1lMXyqIcwnbibw1kpsTNuEZSk1XvhexmuSeJCplNroHTh54ccmjkzuHwRlYkiR9CHxqKEmaUX3fyYFqg9/N4FdpdvYsaLFFs0MCDeAsMELwj5E8X0neulDlzIZjTG7/bept3XmSGTxKwDNFX+9gX6XKpzPjgSA/DayjeZ2yE4e6q6mk+UbOtyD+tpLx19OdXYfHf3vdRFt/DyRJmgV8aihJkn4WQfMcsRy4mWRhwu31YFd3ne0n1vISj3KMZsjVnpqBQwLluideOXq0vuyFjshDJbwIcW8S90bmjTRDLKmgebX0poCyHuWSqF36G77FyzSDXkmS9DOy80qSNKPsvJpTpoD9wEsZfL9Sshs4Wuvk3PivMGe6TzZ/dd+Sqah+KqN8ELgniI2Qy4GFNGdiSZeBg5D/TxbF3052TR889a9vutBqkyRJem+2uUuSpA9LF80A8l9E8kdl8OUy+OXqFBs3f5fOFnvbxsiZzRezVt1Wicr/Qeb/Bvy7hO3AGdq500wfpu6AQYj/Isr8zZ6p6g1sTc/dkiT9jLw2KEmSPkw9V1Yf0AsspsLa2gSvD/5ljpYlR8ce4p227sJqDnU/A5xZ9fjwkZ5G57FGpXIecpTkRmADsAbmTmCnn1qRsBi4BahmWZweWHWgmHx8eM/J39lysdVmSZL0z/kESJIkfVTWAr+QyX9fFvweFX4tKtw69B2WsjULMtt+fMHJVbdMNOrdezOn/u+yEY8F+W8jeDbhKM23Fv54bpbmp66A6yB/g8zf6C66htj6dHUu/N2XJOlasvNKkiR9VDqAZcBSkqXZnAk1UE9uHLiNN/Nb7F/6ZJ4cfjimW9SZvR6OxlgzpJrYsnX4wvnlnRcp8mxEvJUZtwfcTLMTa1GLSpqbimz+2W+GmM4G5zesGvhe/MXoq6Mw2WqzJElq8qmPJGlGObB9Xvhx91EDOAeMJLxE8mwGw/WFvN0/yvT2ozTYGuXVS81imcG3KLbs3l15Z111SaVWfDqp/EKQ99Ec6t5D8yphpVUpzTkJXAIOQf5NEdX/M3ry4Oh/OzTV1ldoJUm6Ruy8kiRJH7W4sgpgBdARsJTgBmBn1yVePbaKnZsHODTSfGNhe2qGEI3hZkh3auCxw9uKonY6k50ZeXvAXZncGLC6VSnNOUGz83AjxH9WZp24yN/d/Y3tL2+HWqvNkiTNd4ZXkiTpWgpg6ZV1Y8CmDAYr0Ds5xWt938mjtWneOfkQl9q9I+XI7w2O82QeHzx1eDgatTeJOA6cBW6l+etfSLMTy074+SFovszgVoiFGTlxqr7yTN8T44fGv9R3udVmSZLmM8MrSZI0UwpggGRhwo0RvFlNXi46eJFneBWotyow6z0cjcNb89zQ0tHhelGeoMjXiojbE+6FuAOyH99KON90Bwwm8ctZNqod9el/D+xptUmSpPnM8EqSJM2kBcB6YH0mA8CqApb3v8Py4jt5uFFy/O1ezvFgtG+QtTXK0WbH1dmV/27vse7LHWMBJ4gcJ/PWjBgKWIch1nxRJCwGtmRAmeXY0NcPTiw8fnl8eOuW9n15gSRJHyHDK0mSNCsE9AL3Jlwf8ECWvFCFpza9w679cKLV/nZwavGNl/vPjY00Fl4+Wp0qXiqjcldBeX9J/FJAP81uNK8Rzg+LgRsCfqVRL6vnVyz+W2C81SZJkuYjwytJkjRbdFxZS4DVBD1lsmIabt7w17mnVrCvd5rjww9H+3anPByNMZgAJsg8PfRvRi+XZXEuKI9Hxk0JG/8/9u49xu7zvu/85/mdmSEpUpQokqJIUSQlUTfSupm2bMdJbKdp3XYToOiuhe5/Sf+It9jE6C4QYP/z6L8C3Sa7zlXeem20QNLKSRzn2mQTW7k4jmVRvom6kaJIihzexTvnen7P/nGkpHZsHskWOb+Zeb2AA0v28zyQjAHOmTe/v+dk8Foz5CQWvl6Sm5L6zlIyV+vMmS2/+tJXD62762AeLf1hmwFgKRGvAIAuWp6aB5LcleSH2uSZXj9/fK7JM+s+X4+dWp3JfDD9hX6p+4HjBw5v2njPidHMPF1n+ztKzY/Ukn+U5OEMQl4vprEWsybJxpq8p5Qy1fZ7vc2HD589PF7PZry0wzYDwFIhXgEAXdRkcAfUWJLtSVam5OamZNeKuezeeibfPPhk9mYhX+o+CG9zE4N/h8ubHn9xtjc3cr6k7q+1PFiTh0rNfSm5ZdhRLFglg8/j62vK+1JyKcvnjmxa+dKeieTUsM0AsFSIVwBA163I64/T1eT+lGxta9ZuPZ3l5Yl69FJy8WQyudAftZr46D2nMl5fW7/+ueeX95Y9U9ryj5OcS7IzybokKzOYxmqudA4L0rKk3l6S99RaJ8psM7Pt069cPPBT26YX+nQhALwdxCsAYCF447G5DUl+OE3uaGs+kCZfXV7z1PYV+fq+5PyVDlgQxkt7Mrm44d8fe2V07NIfNCXfaku9r2nKI7XmfRlc6r5s2DEsSCXJ7aXmXzZppmbOt0d2PvbcsT3Jwr3jDQDeJuIVALCQjCbZlJpNSe5NsrGWrJuezk1bfqvu7Tc5dsvJnN/90TI75JxOO/7zt1xKsnfX408fODWz7uVa2+NJPZda35FStiZZn8EkFovL6iQP1JIjTVOOXF634q+SHBy2CQAWO2PnAMBCdV2SB5P8q7T5P2qTf1OSd59al3UZr4viM87un9k1N1pnJ+ZGZ7/QJp8opfnV1PoHSV6OiZzFq+a9Tan/erbUXds/sdekHQBLnskrAGChapKsLsnqlNxakhtLsqyf3LX5gewtn6t7V8/m1T2PloUbeUqp+5LpDF6nbvulQxdrM3O+tOVYSvtAUu6syW0luXnYUSwoa2ryUEn+8Uya83c8/vJX93/0znPDNgHAYiVeAQCLQa8OLnXfWEo+kOS5WvOH50fzhQ1/Uo8dP5epfCTtQr/8+tXTL5/YsPK+v1q16uIzU7V3R69tP5TUDyTl3UmuT9LL4O6kN+4IY+FamZoP1yZj/en2dJ6o31wMP8MA8P0QrwCAxaAkGXv9tTLJqpJcl5q7Ry/ma5ubPDv92ew/mVy88jEdN/6huePJ3PHk0rpPvTC5crI309bmYCl5piQP1sFjlLdkELFY2EaT3JpkV22aD2w+9Ur/hscmX3CBOwBLkT+VA2BebfrdettIPz9bS34yybYkK4ZsgTejJmmTnE/NX6fkyabJ36afVy73c+Hk+kzlQ2Vu2CGdVmvJYymbNh5dPtZO39yfaz9USv6HmrojKbdkcCfYWHzeW+DK6Zr65ZL8Uero5189/fKJjH9oYf/sAsBbZPIKAFiMSgbTR2tS8u6UbGzb/HCSr103ki/deSbPvpycGHJGtw0eH6sTyeVdjz995PTI2i+2/fZQKdleax5M8oEkd2UwwcOCVVeXml1JLpQ6u/eWmzbPHhuvpzNe2mE7AWCxEK8AgMXultTckuShUnJ7m6yerblpy+/W53olp+trOXfgpzK9kO8S2v3Rd80mOZBaD97+f7/ybH8k+2vqdJIzGTx6dlMGj1N6nHDhGU3Jxpo8nFI+sKyUy9tv2nf+9Yv8AWBJEK8AgKVipCbbk9xYS95b2jw/W/NkbspT2/84ry6KGFBKvenxp1872V//dD/9Q71+vpjUD5ZS3pvUd9RkVTxGuCCVZEtq/Rdtbc5NzY2+kMXw8woAb5IPLwDMK3deMU9mUnMkJV9J8tWSfKvt5ZXZ5Tl6/MPl0rDNC8W2X3zlxrbXvqs29b1JeSSDC91vi8+AC9VMkj8spXy6N5unXvm3dxwftgEAFoNm2AIAgEVoJCW3JvlnSf6Xmvzr0s+HRydzxx1P1BvyRO2l1gUfeA7cuu3CZG/qb9uUJ5L6GyV5dtgeOm0kycO1rf/z3GgezHj1WR6AJcFjgwDAUtRk8E18Y0mur8lYSdaWmttnR/PsrW1eWP657F/wl7o/Wvonk4t3PP7y8ZmZeixNuZQFe7MXGfzc3pIm70qbPVvXH3x16t8fO3T8529ZNNOCAPDdiFcAwFJXSrI5g4vdH07ybJP89Uybv771t+uemX7ObjmT6d0/k7mFeqn75el2bLTXG0tbex4YXPCWpWZTSvtIv+b4ilWTk6n18kL92QSAN0O8AgCWupLBt/D1kixLcn8puTHJfb2SPct72X3i5uzJY3klMbfEvCtJViTl4VLrpX4/L+187LmJPbXOClgALFbiFQDAt1tbk5tScndNdjYlm2rN2s3vyMplv1OP9c/l/IGfyrRQwDwqSW4rJe9M6jvPrlt+bNtnDhw6kEwN2wgAC5F4BQDwD5UkK0qypSYfrjU7UvLemZIv1+vzpW2fyasHhALmT0mSmtyclA83pc5MXZj7bPxMArBIiVcAAN9dSXJdkutKyS1JNpU2a9Pkprkb8ty236oHRq7LxL5/Xs4POQeullWp9cGaenJspHxl0+MTlyZ+ZuOkqUAAFhtfrwsAMNxIkk215Mdq8rGSfKzfy/80fTl3b36irsh49ZmK+TCSknUl5e7algebucubdn1ytz+cBmDR8eYGADBcSTKWZKwka5KsTM3q9LK2NPnmbffn5fa36/4j/2M5POQceDuVJKNJtqaUf1LaeungyKrjSWaH7AOABUW8AgB469Yk2ZWaHbXkQEn+ppR88fbP19n6Ws4dWJnZfCStx7e4Rtan5seTnFw+NbI7T9TLebT0h20CgIVCvAIAeOt6r7+WlzZjtWRFqbltbi4P5YY8vanJMxOfzUQSAYFroZfUm2op9zW1vG/b6QNzB5IDwzYBwEIhXgEA/CBKVpbk3iS3p+ThJLf12qzY3OS5Zb9Tj03P5cLhj2TKFBZXWSnJtpr6Y3Nz7antn9h7dN/PbZ/xcwfAYuByUQCAt8eyJLck+bEk/2tp8r/PJv+qaXLHrk/6A0OuiVtS8v6mlAcmk/U7H3tudNgGAFgIfJACAHj7jCa57fXXPW2yOU2WnVyXjdt+qx6ea3Pi8HM5m/HSDjkHvh8rU7OtJg/1mmbP1IZlTyU5MWwTAHSdeAUAcHWsKcm7ktxZm+xra/6m6eUv79iRp/fXet7jXFwlTVIfrCmnZ2uORrwCYBEQrwAAro6RJDckuaHUrK3JqrRZPzeaOzf/bl7q/V49OFtyfOIny+VhB8Fb0CTl1po8XGrz5PZP7N2775btl3z7IAALmXgFAHCV1WRlkodScm9qfqwkX+rP5QvNXJ5MIl7xdipJVpVka1vrjqmR3ksbDh5/+XhyadhGAOgq8QoA4OprkixPsrwmq1LTKyW9ppfnkxwZshfeqibJmiQfaNp6fvnqqZMRrwBYwHzbIADAtTWSkjuSvLsmNw1bDN+nZSV5Vy35QO3Pbdo5vmcstZZhmwCgi8QrAIBrr0kyWhufxbhqmiSrasrW2i8PXLh5dPOuT+721AUAC5IPTAAA86Am/VLjGwe5WkqSptS6PiXvKenddzSbRodtAoAuEq8AAGDxuinJD7dtfXikP7ts2GIA6CLxCgAAFq/lSbaVlHv7td267lMvXO/uKwAWGvEKAAAWrybJippsLanvHpse25THIl4BsKCIVwAAsLg1SbaWWj84mrp92GIA6BrxCgAAFr+bk7ynrbl708ajyz06CMBCIl4BAMDiN1aSm9PmtjI7uXnTJ4+uGLYBALpCvAIAgMWv1GRFSraVmvub9sKaYRsAoCvEKwAAWBqapN5bSj6U/tjmYYsBoCvEKwAAWBpKUjbV5OGkv2nX40+PuvsKgIVAvAIAgKWhJFlVki0pza1Hc/0NeezJ3rBNADDfxCsAAFg6eklWNzV396ZH79t2w7ZVwzYAwHwTrwAAYGkZaVN3ppdHsjw3DlsMAPNNvAIAgKVltKTeW2v7YNufWzlsMQDMN/EKAACWlpGkbGzSbC+1bNj26VeWZ7z6vQCAzvImBQAAS0tJUmrq2ppyf71cbt+29cDYsE0AMF/EKwAAWIpqrq8l99Xav3Pkwpx4BUBniVcAALAUlayoyfa2lG2TzdzosOUAMF/EKwAAWJqWl+TOUuudtYxeN2wxAMwX8QoAAJamZUk2J+X2pjRrMl6b1FqGbQKAa028AgCApakkGUnq2tJv77j9xlfW57N+PwCge7w5AQDA0ra6lHJff6zdvOvMbr8fANA53pwAAGBpu7Gm3JPabJo6usJjgwB0jngFAABL2+qk3ltTbzu1cq1vHQSgc8QrAABY2lYluafWbCnLLvjWQQA6R7wCAIClbSTJjSXZMDpaNmz+hVdXDNsAANeSeAUAALRJWZO55o7eyv6NwxYDwLUkXgEAAKWmrq+lvadt59YOWwwA15J4BQAApCQ3l1LuqbUnXgHQKSPDFgAAAEvC2lJzR9r+mmELAeBaMnkFAACUDL51cFNpsjrj1e8JAHSGNyUAACBJRtpkTa3N9du2HhgbthgArhXxCgAASJJSkuU1de3M5f76XY8/PTpsAwBcC+IVAADwhqbUbBhJ2Xr68tqVwxYDwLUgXgEAAG9o0pS1qWVTva6sGLYYAK4F8QoAAHhDSW1vbEtuzkyWD1sMANeCeAUAALyhScpNpWZDSV02bDEAXAviFQAA8IYmyZpS2w2zjckrALpBvAIAAN7QJGVNLdmQIl4B0A3iFQAA8IYmqatqyrqmrWPDFgPAtTAybAEAALBklCRjpWZ1qeIVAN1g8goAAPjvlTRZVku5buf4nrHUWoZtAICrSbwCAAC+XU1TSm64cPOqlXnsyd6w5QBwNYlXAADAd+rVZHWv7a/emZv9zgDAvPJGBAAAfKempr2uLc1151avNnkFwLwSrwAAgO+qtLUOWwMAV5t4BQAAfKcmKStqnVvRruy5sB2AeSVeAQAA32m01Lq+7fXWL8/k6LDFAHA1iVcAAMB3alLKqtrW62cujbnzCoB5JV4BAADfoTRJxkqpo3XsoscGAZhX4hUAAPAP1ZRai98XAJh33owAAIDvqjTxbYMAzDvxCgAAAIDOEq8AAAAA6CzxCgAAAIDOEq8AAAAA6CzxCgAAAIDOEq8AAAAA6CzxCgAAAIDOEq8AAAAA6CzxCgAAAIDOEq8AAAAA6CzxCgAAAIDOEq8AAAAA6CzxCgAAAIDOEq8AAAAA6CzxCgAAAIDOEq8AAAAA6CzxCgAAAIDOEq8AAAAA6CzxCgAAAIDOEq8AAAAA6CzxCgAAAIDOEq8AAAAA6CzxCgAAAIDOEq8AAAAA6CzxCgAAAIDOEq8AAAAA6CzxCgAAAIDOEq8AAAAA6CzxCgAAAIDOEq8AAAAA6CzxCgAAAIDOEq8AAAAA6CzxCgAAAIDOEq8AAAAA6CzxCgAAAIDOEq8AAAAA6CzxCgAAAIDOEq8AAAAA6CzxCgAAAIDOEq8AAAAA6CzxCgAAAIDOEq8AAAAA6CzxCgAAAIDOEq8AAAAA6CzxCgAAAIDOEq8AAAAA6CzxCgAAAIDOEq8AAAAA6CzxCgAAAIDOEq8AAAAA6CzxCgAAAIDOEq8AAAAA6CzxCgAAAIDOEq8AAAAA6CzxCgAAAIDOEq8AAAAA6CzxCgAAAIDOEq8AAAAA6CzxCgAAAIDOEq8AAAAA6CzxCgAAAIDOEq8AAAAA6CzxCgAAAIDOEq8AAAAA6CzxCgAAAIDOEq8AAAAA6CzxCgAAAIDOEq8AAAAA6CzxCgAAAIDOEq8AAAAA6CzxCgAAAIDOEq8AAAAA6CzxCgAAAIDOEq8AAAAA6CzxCgAAAIDOEq8AAAAA6CzxCgAAAIDOEq8AAAAA6CzxCgAAAIDOEq8AAAAA6CzxCgAAAIDOEq8AAAAA6CzxCgAAAIDOEq8AAAAA6CzxCgAAAIDOEq8AAAAA6CzxCgAAAIDOEq8AAAAA6CzxCgAAAIDOEq8AAAAA6CzxCgAAAIDOEq8AAAAA6CzxCgAAAIDOEq8AAAAA6CzxCgAAAIDOEq8AAAAA6CzxCgAAAIDOEq8AAAAA6CzxCgAAAIDOEq8AAAAA6CzxCgAAAIDOEq8AAAAA6CzxCgAAAIDOEq8AAAAA6CzxCgAAAIDOEq8AAAAA6CzxCn0CahAAACAASURBVAAAAIDOEq8AAAAA6CzxCgAAAIDOEq8AAAAA6CzxCgAAAIDOEq8AAAAA6CzxCgAAAIDOEq8AAAAA6CzxCgAAAIDOEq8AAAAA6CzxCgAAAIDOEq8AAAAA6CzxCgAAAIDOEq8AAAAA6CzxCgAAAIDOEq8AAAAA6CzxCgAAAIDOEq8AAAAA6CzxCgAAAIDOEq8AAAAA6CzxCgAAAIDOEq8AAAAA6CzxCgAAAIDOEq8AAAAA6CzxCgAAAIDOEq8AAAAA6CzxCgAAAIDOEq8AAAAA6CzxCgAAAIDOEq8AAAAA6CzxCgAAAIDOEq8AAAAA6CzxCgAAAIDOEq8AAAAA6CzxCgAAAIDOEq8AAAAA6CzxCgAAAIDOEq8AAAAA6CzxCgAAAIDOEq8AAAAA6CzxCgAAAIDOEq8AAAAA6CzxCgAAAIDOEq8AAAAA6CzxCgAAAIDOEq8AAAAA6CzxCgAAAIDOEq8AAAAA6CzxCgAAAIDOEq8AAAAA6CzxCgAAAIDOEq8AAAAA6CzxCgAAAIDOEq8AAAAA6CzxCgAAAIDOEq8AAAAA6CzxCgAAAIDOEq8AAAAA6CzxCgAAAIDOEq8AAAAA6CzxCgAAAIDOEq8AAAAA6CzxCgAAAIDOEq8AAAAA6CzxCgAAAIDOEq8AAAAA6CzxCgAAAIDOEq8AAAAA6CzxCgBgkWuWtbX0a1tL2iR12HoAgC4RrwAAFrmR/vJ+bcpMKaU/bC0AQNeIVwAAi9xkvThbaz2TNi8l+XpSJ0pyIUk7bC8AwHwTrwAAFrmT63dMLq/twVL6/7XU8u+S8kStdU+S6WF7AQDm28iwBQAALHCPlv6+5HySPdt+8ZUj7Wh9rZbmZFKPJrkzyeYkNyTpXfEcAIB5IF4BACwhB27ddmHdhRefWnap92JJ789KU3+4JD/RJjtLsi4m8wGAjhGvAACWkkdL/9TgvqsLO8f3nDh384qpWnOh1LqjJHfXZEeS22IKCwDoCH+yBgCwRO35+I7ZDb3Xnp/O5G/Wfn41pXy6JF9KciiDxwxn41J3AGCembwCAFiqSqm7B4FqdtfjTx84Nn3DZNPrnS+1Pl2TB5M8kOS+JCuufBAAwNUjXgEAkN0ffddsksOp9citv/LC7pKxl5IcTzJVki1Jrk9yXZLRK50DAPB289ggAAB/r5R65NS9Z5b16tNpym80pfy7WvIfk/LlmpwZtp3FpbYpw9YAwNVm8goAgG83XtqXkxNJTmz/xN4XZ5sc6Zfe6SY51absLLVuTLImybIhJ7Fg1Vqa9NPWfmZW1WGrAeBqMnkFAMD3tO/nts9MTV7/YmlHfqef5j80Nb+Y1L9McjSD+7JYnGpNppNMN8tb8QqAeWXyCgCA762Uejy5lORSaj266VdfPt2rmU2ph2pb7mtKttfBnVgudV9MauZS6pna652ZXDY5N2w5AFxNJq8AAHjTJk6+enSqTP9B+vXXS+p/TMqfJtmf5FySuSTtlU9gQSiZKymnS+mfXn5upXgFwLwyeQUAwJtTSk0ydzK5mCfq5ObTL03VuXq2lOb5UuvDtZQHk9yVwX1YLGy1bWvby0i/P2wlAFxl4hUAAG/do6V/uNaJPJajmzYefaqZufR8k3K0lpxPzd1JbszgUcLRISfRUaWUuf5cf25kTXXnFQDzSrwCAOD7M5jEqhPJ5Vt/+flvtc2y19Jv/zYl7ygpP5LkwQzuw2LBKXOltKfK6OipAwf3e2wQgHklXgEA8AM78rP3nU5yOuP12c3rX95bUs/X2ryW1PuTbMjgUcLlcefqglBTZ0qaM4fWbTmff7OlzfiwHQBw9fjwAADA22e8tCPX9Q7Xduz3U+qv1JJfSPIHqdmfZHLYdubd4BHBUibTr5P5SNrXJ+wAYN6YvAIA4G114Kdvn0oykSfq8a1nDh6us/1zNeVEat2ZkjuTbE1yQ5Jy5ZOYBzXJZGo9k16mhCsAusDkFQAAV8dH0q7LqVOTZerJOjL7eJP6K0n9rSR7kpxJMps3Jn3oijbJayU5VttMDVsMANeCySsAAK6OUuruQaCaTXJx8y+8OllGZ86nZKKWPNDUPFCTu5LcGlNYXdEmOVGTV5vaXh62GACuBfEKAIBr4vD5zWeTJ7++Mzd/88K6sbtSmx8vJT9Sk4eSrEuyIoPPp54OmD/9lBwvNQd7Te/SsMUAcC2IVwAAXBvjpU3S7kmy6fGJV8Zmpv+kX+rzSd1ea31vSdmV5M4ky658EFdRm5rjNTk42fZNXgHQCeIVAADX3MRHN11O8kKSFzY9/uIzzdzIsbT1XEq5kGRzSVbXv5/E4tqZrTXHmtIerNPXi1cAdIIPAwAAzKuJNXefuX3ilS+1I+2Bfm2+UlLfWVPfl9LcldS1w/bzNqqZTFOOTGbm4MmtG1zYDkAniFcAAMyvR0v/leR4xuvJrRsPHq2z/aMp5USt9cGS3Nsmm0pyU3x2vdoup+RoU3Pi5M/uvDhsMQBcKy7DBACgGz6eui6nTl1eMftUb7Z8Oim/1tb6m03ydGpOJplOUocdw/elJjleU/eU2p4athgAriV/egUAQDeUUncns0lmTyUXtn9i7+Rsk4s1OZ6UF5NyX0q9MzWbM7gPi7dPScnhtPlqSW9i2GIAuJZMXgEA0En7Xtt+cdWpmWcvr5j7nX6vPF7S/pdS61+k5uUk5zKYxGqHHMNwNclsrfVA7fW+2oy1R4dtAIBryeQVAADdNF7aPclMkpntn9h7YGakzmaud6T2yjeatn2glvJgkruSrBlyElc2neREk/JK6ZWD+48eujRsAwBcS+IVAACdt+9jd00n2b/r8adfPdve+M3ZfnkhpRxPqedTc1+SVRk8SjiapFzxML5NTc6Xkj1tW/aOjNUzGf/Q3LA9AHAteWwQAIAFY/dH3zX78vFXX+s3M18r6f+XmvxaST6VlC8nORGPEb5lpeZEqfmLXu3vOXDwgHAFQOeYvAIAYGEZ/9DckeR0ktNbfvXgRG3nDqXkRJKjSXYk2ZxkbZLlVzqG9JNcSPJSqfWrc83coeSD4h8AnWPyCgCABevQui3nZ6ZWPt8r5bebtL9cUv/fmvqFJEeSTA7bv8RdKinPl5KnZ9uy78ipY+cyXsQrADrH5BUAAAvXo6V/PLmU5NKux58+fbR/06WmX0+n1FdTyo602Z6SbRncicVAff11MqX+VVuav8noslPuugKgq0xeAQCwKOz+mV1zG3uv7Z+6bvZP+/3yeKn5VCnlj5O8lGQqyWzciZUM/j84n5KXatt8YfbSiqcnjm6cGrYJAOaLySsAABaHUuruQaCaTa0Xt37y4Gyd659Nm/1p8mCp5cGauj3J+mFHLXL9lHw5bX6v37bPH//5Wy4N2wAA80m8AgBg8SmlHqz1WB578uS2G7Y92x9rd9fS/tPU5oeSem+SNRlc6D6apfU0wlSSI0n589Kb+9OxVaMnhm0AgPkmXgEAsDiVUpPMHUjObv/E3hdnmlxOyddTs6OW8nCp9aGabEmyYshJi8mLSf68tO3fNqtGJw781Lbp/PSwLQAwv8QrAAAWvX0fu+t8kj2bf+HV/SOjc3vnSns4tZ5Mcn9KuT3JTUmuy+KdwrqY5HiSvy4p/210pO59+advnxKuAFgIFuubMwAA/AOH/7fNU3OzIwdHZ8uflVp/LSW/Xks+l+TFMvjWwjrsjAVoppayt5T8dkr5vX6mn7mxOXtm2CYA6AqTVwAALB2l1MPJZAav45t/7cVzTX/0dEo9VttyX9JuLaXcUlPWJfWGLOzPy7UmJ5M8W9p8qaQ+2euXPa/82/tOHxm2EwA6ZCG/GQMAwA9kQ3PhxOGLm8+O9mZ3N2NTG1PKrjZ5Z1PrAzW5K8mGDJ5WKP/dq+tqBt+6eLEk30jNb/ZSvjxS68S+swcvD9sMAF0jXgEAsGTt/ui7ZjMIPZcy/sXzW26+dbLW5tWUPJPa3JWSu2qttyW5tQxC1vIrn9gJp5K8lOSbKfWp2i9fGilzh/Z97K7pYRsBoIvEKwAASJKPf7B/6LEcSJ48tG3rtpF2cnZTW5u7m1Ieqm0eKCX31ZoNKVmRZCyDz9Ijmf97ZNsksyWZqcnlpH49af6ypvz58v7c8/vOvHo5H/9gPx8bdgwAdJN4BQAASVJKzeCRu/ZAMrdzfM/hqQ3LLs7221eblKfaUjaUZEubckdJuzXJlqRsS7Liex96TcymZm8t+Wat9Rul1BdrrfvHxuqhfR+963ySZPzKBwBAl4lXAADwXewZ3zmT5MTrrz3bP7F32dzoyMY6l3tq09zV1Nxda70nJRszCFjLkyzLYCpr9PW/f7unsmaSTNVkKq9fPN8kR2vy9VLK3/T7eWrNmeljr/+zA8CiIF4BAMCbsO9jd01v/8Teo7PN3IU6N/Z8U9pVNb1VJWVNSt2etLenNJtLrTfX5OYktyVZPezct2A2ycmaHGxK9rc1e1Ozr5ZyuNT+qd5s7/T1Z6fOCFcALDbiFQAAvEmvX3o+neT03/2X47W57aZ9+9pe2VLaurEk69PU9allU5J1SRktqcvqYCLr9VcdSykjqSkpqUnyxl+XmrYmcxlMVk3VZKYZ/Of5knKypn01tTlYat3flplXDv/sfX//zwIAi5B4BQAAP4iPpy77pRw+l+njK3qrRmfmZkaWZ6Q3U/qjTbKsKfWGzJU1teSGpNxYmtyYWm5MratqSSn19XiVDG7cSpmtqRdLzYna5ERTc66kPZOmnm1LnV6W3mx/qszMXLd8ZuLoIVNWACx64hUAAPwgSqn7BtNY09/1fx//4sgdG7es7Kd3XX9ubmXbb1aO9NqVabO8ppRS69/HqyT9XtNPW6b6vXp2tNecH52evbTvlu2X8mjpf9fzAWCRE68AAOBq+vgH+/sfy4XsyMU892TZtfH6kiRTR1eU77Vl+cbJuvvohZodH6x5LjU/l28LXACwlIhXAABwNZVSk7+PT7uvsPR7Gh+2AAAWr7f7q3sBAAAA4G0jXgEAAADQWeIVAAAAAJ0lXgEAAADQWeIVAAAAAJ0lXgEAAADQWeIVAAAAAJ0lXgEAAADQWeIVAAAAAJ0lXgEw/0pKTUoGLwAAgL8jXgEAAADQWeIVAPNqtJ+5tuRUSU6VZHbYegAAYGkRrwCYV3VZptJmb5I9NTmaZDLJXJJ65Z0AAMBSMDJsAQBcTc3JTLbX59naZKrU7CvJQzW5P8kdSVYN2w8AACxuJq8AmFcHfrpMHX42L284kT8rY/lULflPKflCkmeTnE5yOSaxAABgyTJ5BcD8Gy/t7qRNcuaWJ+rXRkZzNsnTSd7RJO9pk50luXnIKQAAwCIkXgHQKcceLSeTnNz+R/WF2ck835acbmpeqyV312RDSW5MMjbsHAAAYHEQrwDopH1P5eL6HXlp5Whe6zf5Svq5vzR5f2p+JMnGeA8DAIAlwQd/ALppvLQnk4snk4u7Hq9Hjq/NsVLzWkrOlpr7as1tpWRDTa4fdhQAALBwiVcAdN7un8nc9j/OoamLOd0byTfakoeSvL8t+aHS5u6ULM/gS0jKkKMAAIAFRrwCoPtKqfuS6STTeaKeu72Xy3M1r5UmB1LyjiT31WSbS90BAGDxaYYtAIBO+UjaV/o53LuQvxjp5T+nyadq8ocl+XqS40kmk/ST1CsfBAAALAQmrwBYWEqpSfoHkn5qnd7yh5lpZ3OhtHmxljxUkncmeTDJ+niMEAAAFjzxCoCFq5R6KDmT5Mz2P6r7J6fzYtpMlJKLSe5OsiHJ6iTLrngOAADQWeIVAIvCvqdycf2O7Ltuec7V2TxTS+5PzXuSfCAltw/bDwAAdJN4BcDiMF7ak8nFDF6vbPtcPTJXcrK0uZjkgZJsqINJrBuvfBAAANAl4hUAi9LIshydncqTteRbveTumrwvyY8meXc8RggAAAuGeAXAorTvn5fpJNNJTt/6O/V0Lzmb5HhN9pfkrprcnsGl7r0rHgQAAMyrZtgCAFjQai1H5nJ2bHm+Ojea32hLfrEmv1VKnkkykUHg6iepVz4IAACYDyavAFjcSqlJ+vsGgWp60+/Xy5nNXGperSU7Ss2DSR5JcuuVDwIAAOaDeAXAkjLxk+Vyat2z7TPZ196Ur9V+9pVkrib3l2RtklVJlicpQ44CAACuAfEKgKWnlHogmdr26Xp4dnWmmuRALdlRknfX5D1J7ksyOuQUAADgGhCvAFiyDvx0mUpyOMnhbU/Ul9uxHCv9nGlLTpbktiTrktwQl7oDAMC8Ea8AIMnaMzl9bH3+pozk+abNn7Y17y/JDyd5V5I1w/YDAABXh3gFAEl2f7TMJjmd5PSm368TTT8X08+pJEdKyT01uT2DO7E8TggAANeQeAUA32Fid6a2bc03ejfkldmSr9Q270nyT1Nyf5KNGbx/NnGpOwAAXHXiFQB8p/HSHkimkkxt+v16cXQ2l2vNidS8oy3ZWZIHMpjEMoUFAABXmXgFAFcw8ROZzGN5cdfG7Du1Mbszl4drzWulZDrJLUlWJRmLS90BAOCqEK8A4EpKqUnq7qTd+UQ9cn5Zptt+jjbJl2rNe1OyqyT31eT6YUcBAABvnXgFAG/SnkfLTJKJJBPrPl+fXTGb46XkZE1Ol+SOmqzLIGKNXfkkAADgzRKvAOD7cOprubR5R75aR/Ny08//V5NHSsk/qjUPZ3CpOwAA8DYQrwDg+zFe2sPJa0ley3jdf9sDOZs2l5IcTcnOlGxKzbok1w05CQAAuALxCgB+UB9P7X0m+2bW5VhvOrtrkweTfKAku5JsySBglddfAADAWyBeAcAPqpR6IJlKMrXp9+vlZjrnSsnJ0uT5WvNQkntLcrtL3QEA4K0TrwDgbTTxE5nMZ7N/Z3LwXD+7Sy970uRHa82PJNmaZHUGF7r3rnwSAACQiFcA8PYqpSbp70n6eaIeu20kT7dzOdEr+VZNHqjJQyV5KMlNw44CAADEKwC4eh4t/VeTiYzXY9sfyXOTU3mpqZkoTaZqzY4kN2RwH9ayIScBAMCSJV4BwNU2Xtp9tV6447N5bmZZTpY2X0/yQJIPvD6JtSUucwcAgO9KvAKAa6GUuj85l+TczifqobMjebWUnC81x5LsSM3mlGzIYBILAAB4XTNsAQDw9trzkcyOnsuhdiSfr01+pZT8cpL/luRAkotX3g0AAEuLySsAuNZKqQeSqSRTeaKe2Zy8lpGcb0peTc2OmtyT5O4M7sQCAIAlzeQVAMynj6Q9nBwbOZcn+zWfrDX/T5LP15o9Sc5mELn6Vz4EAAAWL5NXADCfSqlJ+gcGgWpqyx/Ub5XpXKzJoTq41P3BJDuS3HqlYwAAYLESrwCgQw79RDmT8Xpu8448n7F8vWnzoTY5V5J3JlmTwYXuY/HthAAALBHiFQB0zXhpDyeTG/6k7h+7nMtJvlna3FOb/GjavC8lm5OMDjsGAAAWA/EKADrq+IfLpSQvZ7y+sm1HXuiXnEvJ+ST3JrktyYYkq654CAAALHAubAeArhsv7dozOd0fzZ+VJr9Ukv+Q5L8meTnJZJJ65QMAAGDhMnkFAAvA7o+W2SSnkpza/EQ91ozkbJILteShmtxdarYkWXvlUwAAYOExeQUAC0mt5XByrp3L7qbk10vNLzdtfq8m30hyMsl0kjamsQAAWCRMXgHAQlJKTdI/PHhccPKOJ+q3ZkYzk5q9Se4rJQ/Xmh0Z3InVu+JZAACwAIhXALCA7f9Izuez2b19Vb4xN52Nc21+vJScK8l0HVzovjyDbyYUsgAAWJDEKwBYyF6fxNqX9Hc9Xo+c2pg/z1z2tyX3lJqHa/LeJLfHtxICALBAiVcAsEi8fqn7K/lifXXbyTw31+Rg6eV8kgfTZltK1iW5PqawAABYQFzYDgCLzYfK3NozOV2bfKWt+WTT5v9K8p+SfD3JhQwudAcAgAXB5BUALEKvT2GdTnL6jifq8f5oTjZtLtQmE6nZnuTWJDdncB8WAAB0lngFAIvc/uTippE8O9rm4GzNl5s272tL3l9KHknNhgwCVnn9BQAAnSJeAcBi92jpTySXk1ze8Cf14uiFTDZNJmqbF5K8IyX3pGZLSlYOOwoAAK418QoAlpDj/ySX82SeW38y+69bnq/W2eyqNT+Wkvck2Z5kWQaTWO7FBACgE8QrAFhKSqlJ5k4mF3c9XqePrcts08vx0s83asnDteSRUnNXklXDjgIAgGtBvAKAJer1S90PZ7xObNuRvW0vL9fkbE3OlMFjhOuSXJ+kN+QoAAC4ajwSAABL3Xhp157J6bafZ0bafCYl/2dKPpOSryS5NGw7AABcTSavAIA3prBeS/La5ifqwaaX421yNsmZJHfUZENJNiRZfsWDAADgbSZeAQDf5vBzmd60Ky+MTWZidjRfapKHmpr31+RDSe5IUoadAQAAbxfxCgD4duOlnUguJ7mcJ+rJLb2cTy+nS5uJmtyf5O4ktyVZfeWDAADgBydeAQDf20fSHnoyhzbM5PjYVHanzTuS/LO0eV/K330r4UjcowkAwFUiXgEA31spNcnc8WQutV6+5bOZHevlUtvk2VKzM8kjSR7MIGIBAMDbTrwCAN6cUuqx5GSSk9s+V/f0a76ZktNJ5lKzJSVrkqxMMnrlgwAA4M0TrwCAt+zAN3J++yN58fJszvdm83Rp8nCteU9KHkmyadh+AAB4s8QrAOCtGy/tvuR8kvOp9aXbPvf/s3enT5Lcd37f31l9zn1jTmBw3wABEiRAgveK2pW00koKi4qQQxF2hI9/g37s8BNZDj9xhOQntsUNK8SVd6Vd7i6PJZfgCYAAiGsADAaY+z56umf6SD/4VKp6euroo7qquvv9isjoKyurKjMru/JT3983OVnWOF+UXAaeKOFgAXtwOKEkSZJWyPBKkiStTFGUs/+x/HB0kgtzNV5hiKeY4+sUfAl4GhjqtAhJkiSpFcMrSZK0Yqf+YXETuAmcOfr/lpfmSm5QcKYo+YiCh4B7gR1A0XZBkiRJ0gJe1lqSJHVPWRYf7+b83Bg/nJvh3xY1/nUJf1rA28AFYBqYA8r2C5IkSZLCyitJktQ9RVECM6dghu+Unx5+lgng5lzBsaLkKQqeKUueLeCeTouSJEmSwPBKkiStlu8UcyfL8hL/Ez/f+zxvbpnhkdn0wZoCniAN3TcBozicUJIkSS0YXkmSpNWTSqzyAlzne+X743CtnOGtouA54IuUPE/BA9jUXZIkSS0YXkmSpJ648EfFdeA6cOzon5THyxkulumD9QxwpIA9JWzBnpySJEmax/BKkiT1XHGR08UW/mJulF8VszwwV/DNEr5M+mJt6XR7SZIkbRyGV5IkqeeO/7fFFHAGOPPwn5Wf3r7FVFlyiYJPgYeAQ8BOYKTdciRJkrT+GV5JkqS+OnaDif07eGXoKu8Pj/BKOceLFHyNNHU/QPphOZRQkiRpgzK8kiRJ/fXtYvYsTAATh/99OTFU48ocnKiVPFsWPFuWPF6kEssqLEmSpA3I8EqSJA2Mk7/lMl/j6v3HeWtmF68zy4tFwTcL+GwJ+0hD91Gg6LAoSZIkrROGV5IkaXB8p5gD5o7DzP4/Lz8cmWKymOVj4BXgOeCzwNNkKKEkSZI2AMMrSZI0kM7+fjEBHOO75UdH4HfFMB9TcImSW8ChAnaUsBmDLEmSpHXN8EqSJA22bxezO75bnp+Cn92a5SMKfkrBiwV8FXgc2NVpEZIkSVq7DK8kSdLAe+vbxW3gHHDu4T8rj9+6zQXmuELBCUoeAQ4Du7GpuyRJ0rpjeCVJktaUYzeY2Aevjo/xQa3kx3Mlz1Py+xQ8T5q629BdkiRpHTG8kiRJa8u3i9nzcAO4sf/Py6tjk1yZm+MK8FYBT5KhhA/i+xxJkqR1wTd1kiRpzTr7Myb5Gu8dOc9HwyP8dAY+V5R8i5IaBQdIFdYwUOuwKEmSJA0owytJkrR2faeYA+Y+hRm+W35yeIgZalyk4M1ijueo8RlKHge2dlqUJEmSBpPhlSRJWh++XcyehE/5Tnnqvhd4vZzmPUrOAhPAwwVsL2ETvv+RJElaUyyhlyRJ68t3irkTv+Lq7DC/KWv8P7WS/xn430v4NXC1080lSZI0WPzkUZIkrT/fKeZOwQXgwsN/Vr43dZsTxSxTFJwhzdwPA/cAI22XI0mSpL6z8kqSJK1rx/4et+eG+IBh/m/m+F+Kkn9dwA+A88B0p9tLkiSpv6y8kiRJ61tRlKfgJnCTH5TnHrjE+emCm7WS0yU8DTxMKrE2t1+QJEmS+sHwSpIkbRxfZ/ajH3Ly0A3OF3P8rJjjy2XJN4EvAUeBcfL+yOp0SZKkAWF4JUmSNo6iKIGZUzAD3Dz03fKV4REuMserZY1nKfks8Ciwu/2CJEmS1CuGV5IkacM69c/4hD/m5P4dvDIyydO1Oc6XBdeBJ4FtpBJrBCjaLkiSJEmrxvBKkiRtXKnEmj0LEw9+t3xnepgJSn5TFDxZwksUPE/JIXzPJEmS1De+EZMkSQI+/HZxFbh65LvlB7NjvFub4UIBl4AnSEP3vaQSyyosSZKkHrIZqSRJ0jyf/jOmarc4MQR/Wpvjfy0L/jcK/mMJHwO3Ot1ekiRJ3WXllSRJ0nxFUX4Kk8AkZXnm8L/nPCWXioKrwNMUPAAcwqbukiRJPWF4JUmS1MaBC5y9ei8/mZ3krTl4eha+XMDLwFOkqfsQVrNLkiStGsMrSZKkVoqi/DVMk+naA98rp8pZrlLwEfA0JU+X8DDpiWWAJUmStAoMryRJkhbpo1c5/7mDXDp/mLdmp/nFUMHXypIvFyWfo2AfMEbeX9nUXZIkqUsMryRJkhbrO8Xcr2EOuLzvu+X0yBiTtWneL2r8mpIX5gpeKNIPa6TToiRJkrQ4hleSJEnLcP7bxQ3g3fv/Tfnx9A6ODcHJouQ68AQFh0lD983tlyJJkqRODK8kSZJW/+361AAAIABJREFU4Ph/w60jf8wn5Rg35mb5ba3gybLkxQK+CTxJGrpLkiRpmQyvJEmSVqIoyk9hkkynHvheeWZ2lgtlyfWixidlyeESDhZwT6dFSZIk6W6GV5IkSV20+wyXrt7Lz2/e5p2hWR4oa7xUg6+VJS8D2+uz2dBdkiRpkQyvJEmSuujX/2MxDUwD1/Z+r7yyZZrrZY2zRcEHJTwBPErJkQJGyjlqHRYnSZK04RleSZIkrZILrzJx9CBvXr2XDyan+FkNXqbg9yn4IiVXiyFmOi1DkiRpozO8kiRJWi3fKeZ+DXPA9FPfLaeujTBblpwuSn4LUJvjZIclSJIkbXj2W5AkSeql75ZD9w1xdK5k6+gcH3/47eJqp5tIkiRtZPZZkCRJ6qVvF7O1a5y6NceHH+5jotPskiRJkiRJkiRJkiRJkiRJkiRJkiRJkiRJkiRJkiRJkiRJkiRJkiRJkiRJkiRJkiRJkiRJkiRJkiRJkiRJkiRJkiRJkiRJkiRJ0sZSdJpBkrQhFNz5P6Fc8FWSJEmS+sLwSpI0BOwENgNzwAwwDVyvf5UkSZKkvhnuNIMkrZICqAFjJDRpdjwqgVngFnCz/v1SFCSYGSf3UWsyT0nCmsn6tBErjYaAA8ARsq7myLo4X59myTq6Cdyu/3011lNB9oNqezX7gGWG7A+3yGNZjBpZ7mj961B9arY/tDJH1sMsjf1yljyGpe6XkiRJkpbA8EpSvwwBu4Gngd8HDjeZ5zYJT34DfB+41GSedkaB/cDngd8DtjeZ5yZwGvgJ8GMSimw0Q8A+4AXgM8AuGoHeBFknJ4AfAm8BV+t/77Zx4CDwJeBrwKYm83wKvFqfjpFQqZNhEsw9BRwl+8ReYCuLr0C+Bpwhz/16/etp4B2Wvl9KkiRJWgLDK0n9UgO2AY8CfwQ81mSe28BxEjD8lKWHBMMkiHkO+OckLFtoAngbuAj8LRszvKqRIOco8DJwaMHfb5PQ6hzwCXCD1QmvRkio9AXgX5Dqq4XeIY/3JPBBk79Xhsj+tZsEo4+TEPOR+s8HyXNerOvkuV8ErpDg6o3616Xul5IkSZKWwPBKktTJKAkBt5JhnksZbtcPBXmsnyVVXC8B9wM76r8fJ89jKbaSZRwCpoBTJOj8UZvbSJIkSeoCwytJ/Vb1D2qm6iu0mKFhrZQ0+hU1Uy1/JfexXrTbFiPkf8ZqB1edtle1rdr13DoAPAt8A/hK/fulVFk1U5BKsM001tNuEuxJkiRJWkWGV5KkxShZnSbt3TYEPAN8G3iRVEuNt7vBMlQN7Gcw9JQkSZJWneGVJGmQVFehbPX/qbpSYLNG61tIP6sXyFDBB2je9H2lSuAycJaN2SNNkiRJ6inDK0nSoKiGDN4iTeGbqa5+2GxY4S7g+fp0P+0rrqqhiTP1r62qymo0ArXq51ukUfsJcrVKSZIkSavI8EqSNChmgWvAMeAnpE/VwmF5HwMf1udbGDjtAJ4A7iMN2ZtVZ1UmSAD1Qf3rBAmyqtsUpM/XZtLbajONxvUj5MqLV4FpJEmSJK0qwytJ0qCYAa4Ab5HQapy7w6tLwPH614Xh1U7gMWA/rd0iodMx4A3gdeAjGkHU/PBqlARi+4Ht5PHcQ0K190no5bBBSZIkaZUZXkmSBsX88OpjMkSvCqiqUOk2MFmfmlVePU4CplZXRTwJvAL8APgV6V01QYKrOe6s1qqRKqvx+tda/fthMqzxKqkAkyRJkrSKDK8kaXE2keBijFTkDNV/P0aGlA2RMKUgIcwECVpmgan6z80Cl6XYTKp+xsljGCWhygi535Lc3zS5z6ov1K36z1M0HtNyH0fVK6oyQhqlV+tmpP616jc1TfpCXSfBVLtKpZLGurtF82F/83tVLTQO7KF9k/ZPgL8m4dWHbebrtmFgG9mG1Xqqtl+179wm26jq+3WdRrC2WFXFWBW2zf/9HLmPKqhbeLudZFtC9tWrNNbzEFnmMI3lVvvcNHm885dZI9Vq1fPdRON1Uz3X22TfuErCwOXuk5IkSVrnDK8kqbPtwEEyfGwf6XtUhTN7SI+laohbjQQOHwMXSRhxpv7zaRLgLMcIcBR4EDhA+jDtII9lG7nfWRIiXKFxJbySPI4z9ekCK+vVVKMR3NXIOrmPPKY9JADZV58glUmfAu+RIXqnSWjRLKioKpv21G8/TCMQqYKsm+T5XSHref5ySjoHIJ8CvyAVWL20lwxpPFz/fmd92kGe8ywZCnme7DOXyDo7TvprLXZ7DZH1t5sstwqLamQZ52nsl1UIOUT28adJo/sZsp5eJ9uvICHULvKYN9EIaudoPO6bNMKuXaQK7giphKv22c00KuwuAKeAN8lzneDuUE2SJEkyvJKkNg4CXyKB0S4aJ+9bSRUJ5KT/HhIuVSf0UyQ8uk6CmssktKmajb9PI1xqd7I+RoKIR4BHyeM4RB7HdlIls4UEAjWyrGlSxXK5/n1JAogLpOroTeBn9Z+Xokbu5wgJrLaREOYQjWCiekxVKAMJNC4AzwBPAr8k4VGz4XYj5Pm+ALxEwpeFYdQZMqzwTRLsLPx7p/BqgixjtXtVFWT/OUoCoftJyLePrKetZF1tpbHvXCOhzjTZdz4l4c4p0lj+PRI8tQuyxsi6fo5snzHu3C9fB14jfb5GyX51P3ls1X5+nKyfkfoyq5DyKRJw7efO8OoY8DYJRUfJPnK0Pu0j+0O1f4zWb1MNu7wIPAu8A/yOPK7zLD6skyRJ0gZgeCVJrd0H/HfAi6Q6ZYicsFcT9a9VJVKlrN+2qgSqQqVTJDj4T8DPSTgxSXMFjSDnD4G/U/95iIQJNe5+LHDnfVbmSHBxgoQIb7P08GqEhDGfI4HVI/VpJwkkqscz/yvksTwMPA98lQQaZ0lYMcOdYdMICTteBP4lCXYWeptU/pwnYeBSzdF8yGE3DZMQ6HPA14Fv0LgC4sJ9aP7QvoPk8VXbsKqkOw/8CPgT4LckfGs19HOcBFf/GHiAxjBASJD4fRrVWLuAfwh8mVSFjZPQDBIkzR8eeAD4AvAHJPCqzJHH9CtSgbUb+CIJwqrKr4X7a3W76jlOk9fCXwB/SQLOi1iFJUmSpDrDK0nqrOprtVKbaAy/2g/8MQmUFqqR+3wa+DYJDe6neQ+oxap6dS3XVlIN9RSNoYF7WfxjGiPLeB74PXK733FnkFSQ/0vVOhrjbjvrf1/u/6/FDC1ciRoZLvci8DXyfB9k+fvPVlKxVJBg6PvAT0lwN9Fk/mro5fb6/FX1FCTIepwERs/X//4sCbmqSrkhsm/unXfb+dulqjyc78n67yfr8xxtMk8nVZXdZvK8fksq0eb3V5MkSdIGtdw3/5LUKyXLDxyWc5v5JklFyBngXu4MApZjjFTgHCbLepVUmExyZ5XJCBmK+BlScXUPiw+JWrlF7qvTsLNWNpEwbb6lPqYaCTa+Sfo4vcfdVVBzJLC4TfPwaprcZhCrcqreUZ8H/inwWRIELXU9LTRCqp3uo9GMfooM71u4HuZXM93mzn12jlRQbSNh1TYa1WDzb18N85v/HmH+chfaTcLGynKe7xgJRkfIsNqq55fhlSRJkgyvJA286qT5dqcZm7hFbrdweNpiTZO+PBMs74S8mWoI1RFSUXWF9HCa34NpKzmRf4xUonTrvidINctyh81143HsJM/tXu4cMrce7CDb7AtkyOBuurPOIMvZRIKxYTIE9QyNqxMuRo0MPa2q2hYOd63mGSf3tZTt043nWVWXvUBC449Z/d5kkiRJWgMMryQNshoJcu4HvkJ6/yzFOKlyepDlDZm7Te7zNDnhH67/7hYJtqq+PZWCBAKbSEizpX6bZif2O0hj7Q+Ad7nzJH0LCUHup3WAcIsEUddJL6Nm4dwYWQcjpEH2aRqN3LutWhdVb6NWxkg10s4O861FB8hwwWfJc2xllmy3G6TqbpbsN2Nk22+j9f66nwz5e4Y0Sj9B675pCxU0rpLZSo27e6Ytxwx5jpPkNXOb3P+2+tQqHNtMKvzeIf2vJEmSJMMrSQNthJysf4ucsC81dKmREKBZn57FmCThwBskaJghjc7PkRBoftVLSQKILaSq6POkofnCvkOVTWQY2H7uroAZJ8s4SOvj9CXSJPtNUqEyzZ1N0gvSt+g+MpTtFgnJVutKbtfJcsfq0witw6kxWod6a9kDpDn7A23mmSPVfL8jzeer8GkL2RceJMHU4VYLIOvvM2S7X2Lx4dVizJJQ9CrLr9CDVBS+QZ7fhfo0TOOKhQ/RGAI53zhZB/ex8mG6kiRJWicMryQNsmoI0zjp+9RrN0jAcJ00kJ4mJ+WXyAn+bRJGFDSqjjaRCpxPSLXYN2k0w55vnJygH+Du8KoKwTbROuA5Ta7O9hoZPjbDneEVNBrDbyWhxEUy3GyK5SvJ+rhIQryLJMi7QtbHKLm64Avk/ptV11RDJ9ebPaQh+u4Wfy9JH6dfke32Ho2hf5vqt7+P7DvPk/W4s8lyRkjA8wjwkyZ/X6pZsg1PAh+Rx/YbmjeEb2WOvF7OkV5c75PhsKfJvnGF7NfHyHMepXEFxvn7+BCpvtpB9tsh7HslSZK04RleSVJrVXj1Po2wpWooPr/iqlLUp4+A10n1yvM0rhY33xhwiFy1r1mQM0f7oVvngB+TMKBVT6/TpNqquu/Z+rzLqaiphpJdAT4kFV+vkYDiOFlXs+S+/oCEZlu4O5yoLKcH2SCrhrjuofmQv5JUv/0t8H+S7XaVrLOqUm6IhJq/JfvQv6R1eHWA7D/NmtovRnURhFmyL71L9qef0ajQW0rIOUP6VP0M+DPyHC7RCHirffkdcn8P06hKbNZ7q6qYHOHu4bmSJEnaYAyvJKm1ORI4LLVp9C1StfIJcJYEOePcGeIU5BjcanhdFYS1U5J+V610c3jgBAmsXq9PH5Hnd5qEFPOdIsPEJll+uLKWjJEQch+tw7opUtn0Dgn8LjaZB7Kef0cCzz9qMc8wCckOsLyhdVVo9QmpsHqLBLTvke16kaX3vJomz+0n5CqaH9N8GVNk37hKXietQqkxUrm3mQRghleSJEkbmOGVJK2eSVLBMkEqSZpVmDQ7Ka+qnNoFCLtI36PbJGyorqo4Q4KJbg+1mgBeAf6UBB5XaVTvtJp/ikZV0Xo2RvqTtRouCNkXqisEXmszH/W/f0qj79QQd67DGo2hdcv5P36LLP9vgf9AwqbT5L6WW+U0Q4KvKphrt+8O0dhXW93XCKlk69RgXpIkSRvAct70SpIWp6rAWmrlVkkqWdqd3D8I/PfAy6Ri5iQJRk6TYVlXW9xuuWZIhdU5GkMEW6nCt+WEIGtRNeSvXR+vqtpp/pDTdvNOkoDpPGm8v7DCqmD5fcPOkaGLPyRDQC+Q8HMlqudXXYWz07ztgs9KpytXSpIkaYMwvJI0yKoQ5wbptTTN0k5mazQqOHbSvPJpsQpSPTVe/1odP9udgO+rz7uUxwyNaqortA4CqmFqj5EhXx+TYWCfkNDjFGmsPjHv63J6XVVKGtVdi1mPixn2uF4sJowpFkydzJEm6ldJlV2z4YGdwp9WrpL+Vt1o9j5fjburxJopFnxtpdM6lSRJ0gZheCVpkFXVPm+Qk+3zLP64VZKgaS/wHLny39a2t2itIMs6ANxLelhtq/+t1cn1HGlKfYi7+111cpMEUk8CT3WYdzfwDLmvKVKxc52sqxOk+fZvSB+lahiaJEmSJK0Ziz0JlKR+mCUVQx8BPyIVRYs9bpWkL9B9JGh6sf3sTVWh1VESEN1Pwqi95Ep6rVQVI3uAw8AmlhZeVU27j5Lw6kHyXJoZIb2Pdiz4/U0yjPBhspxHSG+j4yTcMsQafIut0lqqlQw5lCRJknpusSeBktQP1bDBa6Sn00mWdjK/mQzbu8byGpiPk/Dp94H/mlRdDdenxZz8D9Fo1L6Ux32TVEztJMHVEAmhquUsZlnjwBHgHuCzJMj6LvCfgbdJgCVJkiRJA8/wStKgmyNVQlMsval0jTRLn+40YwuHgX8E/H3gaVJB1Qtz5Pm+C3yP9LGqKr/uI8MWO6mR4GyUDJfcDnyT9A+r+mFJkiRJ0sAzvJI06KpKo8VUOi1UXa1sMZVK81XBz6PAPwU+T+vj5fxm3Qubq1ePezmPHXJVuL8E3gKeIEMfXwAeJ028h+rT8LzvWz3fGvAZcmW5vyRVbDbDliRJkjTwDK8k6W6jpE/UY8DB+s+tFKRK6gYZ7jc/EBon/bbGWdwV+haaI5VjJ0kj9jPAz0nPrd3ksR0hwxmriqxW1WE1Un11kPTiGiUVaa2uZrierZXQzqvtSZIkSRheSVIzIzRCofEW80zTuKrfaXJVxBvcGQbtI1cMvIf031pqBVhlGjhbnyrbyDDCh0nI9lj9+wdphFPz76+qyNpCqrY2k15gG02NbN+C7gVDy92u7RTAWH1ajeUPgm6tf0mSJK1zhleSdLchUqW0g9bHySvAT4C/JVfxu8adV/ArSZ+qf0GCouVWX7VyA/iQDC18g4RZ9wHfBr4MHKB5xdgweV7b6stYTiP7tWyMbNvLdPe5dxqeOn946WIMkwq7vbTeB9dqqLXYddBpnUqSJGmDMLySpLsVNJqdtzp5vk5Cqx8Ar9E8CClIj6lbLP6EfbFKYKI+VRVZH5M+XfeT6qpm4VWNBGntntta1azv2EL7Se+vajhmN1RVeJNt5hklgeEmOq/3UbL99pBm+wvnL8nFCybo/Hx7aW7e1Mn8Hm3NzJL1udSLNEiSJGkdWm4TYUla7zqFTbfIcMHztD6WjrL8pvHLdZZcTbDdSf9SKoDWkirwgNbP72Fy9cjnSAVWN/4PTpH1fpnWwc1m0m9sHwmkWhkmw0wfIgFWs/1mhlT+nWf5V9JcDbV5UzsjJMRr10vuFnmOC/vISZIkaQOy8kqSmusUNg3ROAFfGCBsJ8P2niKBxVL7XY2Sqpu9wE4SyFwmIclNMtyvWWixhdzvPSQgaGaWLGOS9RcK3AA+IetgJ83X+X7giyRguZ8EkFdorNOqF9YQCZk2kf+VY6RirdqWp4Dj9ek6GTZ6jazbbdx930PkMb1AKr7eIEM+Z2hshxESWL0AfIPsO83Mkv3hAoMTXg2RdfsoeT5VxWEV5pXk+e0AniY95bbQOui6TZ7jrRZ/lyRJ0gZieCVJzVXDn1oFPJvJifpxEnxM0Ag8jpDKni8BD9A8zGhnM6kQeo7cx1XS3+oycJFcdfAKjXCgRkKWR4HPAk/Q+qqD0zTCmsUM71pLrgBvkdCnVVXVVrKejgBfJ9vvY1I5NUkjvBohYcweElptJcHS3vpyXgH+E9k212ms17MkoGm2/sfJPrEL+GvyWKdIGFUN5zwC/AHwEgm7mpkh93OawRlWN0L22ZdJeHiahHlVIDhH9ut7gS+Q18UWmg+JnCMh4DWybtZbyCpJkqQlMrySpLtVJ883aR3w7AS+QiNsqE7SR0l4cbD+t300rm63WOOk+fpnSBXOHLma4WR9qvorVSf2BY3hZs/TvtF8VcU1yfoLry4CvyVXXnymxTzVsLYdJJDaARyldeXVZrIuR0kgNV7/+976basKt5JUY71KwsoHudtQ/XbP1ud5iQRRczS24Q4SAlUhWTMzwDHgHdr32eqlEfKct5H99gYJV2e5MxCsXhutKuNucefQV4MrSZIkGV5JUhMzZNjTOVpXtmwlIcSzLf4OSwus5hsDDpG+Rw+TAGWxWt3nHAkGLpFqoUEZbtZNV4A3yXDN52hUTbUyVJ9nd5t5mq3P2zSGjc6/guSn5AqUh0hw2Sy0HCHB1B5aa7ffVOHOm8B7DE54VQ0bvKfTjHWtnuNN4G0Szq3HfVSSJEnL0KmpqiRtRLfIML1jpIKklaLDtFyjJATYSyMAWezUyizpB/UhgxN4dNtN8vx+AHwPONF+9v9iqeuzRgKv/SRorJwm4dWbJCRsV9m21PusfEKGLL5O58b8/dBp/+z0HCeA35B1OGjPTZIkSX1i5ZWkfitoHaR340p91e1b3UezE+pZMgTtGBmGtov08Vnq47hNehpVV1drptkyx0lvoHvoznF6hlyZ7tfAr8iww4U6radqWyzG/GU1W167ZXV6HO0CkBkyJPJ1cvux+td7WHrfsXaGyPC3PdwZXt0APiLh0mFSAXaY1kPkluIa6XX2t8Bf0T5Ybbfuq7+v9PF0W0kqHV8n++hHGF5JkiSprhsnRZK0Uq362pQLvq7EUpZR1qePgT8hIcAfsrThe7dJYPQJCTkeonmY0OxxjZPQYzfdqZC9DPwO+HPgh/WfFyrnTc0sZf1VquUtDEo6LWulj+MC8EuyDU4D3wKeJEM9uxXaVH2wFm6fGeDHZNt/Hfgq8DnSQH65JoF3gR+R4Oo3ZOhnO+3W4SC6AfwNaYL/KgmPZ9veQpIkSRuG4ZWkfilJuHCR9O6pruxXnXAXpGrpJKk4WU7/mzly4n+WhDd7aAzlqkKM66TK4wJ3D/O6DPyChBSQK6TdQ6qo5h8/S/L4JkmFzCVynyfIY3+E3M8Yd9//pyTwmO8S8JfkuW8nVT7bSag1Vp+GuTucqJY5TcKAK+R5HScVLb8gy1z4POfI4ztJmoBfqf++Wn6NhEDnaFzhsJ0b5D63k9vUuHNZM2R5C5czS4b+nSJX4tvK3evrWP22E7R2m9zva2R5l0h4dYRUQW0h67S62l2rkKcg9z9L9sWJeV9PkxBpYRA4R+PKhbfJ+v+QhJF7yP1vJdV489cLNO7vNo2r7V0k9/UmqZx7kzy3Vmbrf3+fPNbN3HkfNfJ6azccdjlmyXqurhA4StbvEK3301tkvztDY7jnL+o/W3UlSZKk/8LwSlK/zJEQ4GNSDfQud1ZaFOQE9jJp4DzF0s2Sk+l3gb8gYcrC+5gkVTLHF/wNcp8ngO+TgOvz5Gp+CxuBl+S5XKjPf4yEZZ+S5/AcCRQ20wiqquDide4+UT8B/CsSlD1IQrN7yfDFnfWpuurdQgWNcOUDsu7eJ49lssVtZkng8lsSKOzizmBpiAQTH5CwoVN4dYEM/TpLgpr5Ic0QWQe/4+7QboYEZ2+RgHAzjW1SBR5nScB2ic6VRZdoBD77SYB1HxkC+kD9dwsDpIVmaTS6P1P/eonsD8dJ0NZM1bvpPeCvyf09QSrwDtG4iuF8BY199hx5bbxHnu/Z+jI7hTq3yW1GaQxrnP/8hklIefHum67IDNk/3iXB2xaynhfe/3zXSGXiL0m11Umyfy0nqJYkSdI6ZnglqV/myEnux+SEewt3hiLViXwVHCynyfgMjfDqCndWPkHuY4ZGgLUwTKkqqs6Sx3qFhEFbaRw/q8qdWyRcuFRfVnUbSHgyQaptFlYSneXuQGKahHZX61+P06gY2lSfRmgdXt0iz7t6HBdoH3rM0Hgcn3B34FAjQd4ZEi50Gs5VDdt7m4Qo86ubamQdnOLu5cwPr87TfH1VlVSX6RxezdKomrpRn94nIeae+td2lVfQ2AeqSqibZFterv/car3Ov++rJCz6lIQ0O2g+5LCqvJoi6/kSCbHaXfVyoVvkOV4iAefCyqchsuwLd990RaZJePVjEpxC1m+rCsGSPM/LJKz9lDx2SZIk6S4FktRfxbxp4RCq6ueS9gFDJ63uY75O91EsmBYqm3ytvm92//O/X8xV6WjytZ2SOx9Dp/U3f9mttkWndVRptY6qv7VbVrvHUVnsc1po4bpczHqEO++n2XZejIX7Trv7brYPLfZ+4O77Wcm2hISIXwL+Ien99liTea4C/wfw72gMS+y0fhc+z8U+HkmSJG0wVl5J6rdenLR24z5Wsox+3XYplhOStLKSx9zNx7HQSh7XSvXyvnt5X5WSVJpN16dO1XmSJEnSonXjKlaSJEk1MixxqNOMkiRJ0lIYXkmSJEmSJGlgGV5JkiRJkiRpYBleSZIkSZIkaWAZXkmSJEmSJGlgGV5JkiRJkiRpYBleSZKkxSpb/H6YvKcoWvxdkiRJWrbhTjNIkiSRYGr+h14zwDQwC1wCbtR/bhVwaf0bohFkDgOjZJ+4Acy1uZ0kSVJbhleSJKmToj5V7xtK4BpwHrgOnAKOA1dJqKWNaQuwGxirfz1C9o1fA1NtbidJktSW4ZUkSWqnCqo+BP4GeB+4CVwGLpDw6gLwOwyv1psxYIRUVG0i4dRQ/Xfj9b+Pzpv2ALvq3+8GDgE/B97A8EqSJK2A4ZUkSWpnjlTP/Aj4KRkmOAncJkHVbP3rJAkoHB62drTrUTYOHAC2178/TCqpNgFb63/bA+wAdtbnq4KuqkpvhASfo0iSJK2A4ZUkSWqnBK4AE8AtElpp7RkhQVNVJbWVVFKN16dN835XVVbtBDbTqKraW/9+E43Aakt9ahWEbWvzN0mSpEUxvJIkSe2UNEKrkgQRNmVfO4ZI4HQYuJ8ETVXl1D4alVO7gP31320iAVaxYJp/Rcnq+07BlJV4kiRpxQyvJElSJyUGVmvVYeDrwGeAo6SiaoRURM2vvBqv/25T06VIkiT1keGVJEnS+rUf+BbwVdJAvepJJUmStGYYXkmSJK1fVfP0apIkSVpzfBMjqR8KGn1YhjrMu9EU5Mptt8hV3CRpJUpyTKkm3/tJkqQ1xzcwkvphmPRauYdcrUoNBXATOEsuMe+V3SRJkiRtaIZXknqtIA2B7wVeBh6p/95m0FGQqqtLwAQwTaNZ9lz9bzdIBUVZn+caMAlM1X++UZ9PkiRJktY8wytJvVYAm8kl2/8+aSKsu83SCPSq8GoauAqcISEVpELrOAm7Ltf/drr+dYpG6DX/q0GhJEmSpDXD8EpSP9RIv6udwI4O8+pO+4EDZDhhCVwHniZDDW+SKqwrJMy6CJwDLgDngVP1303ftVRJkiRJGlCGV5L6ZQ5DlOUYIqFfZT93VmhBqrYmSVXWR8DHwIfAO6RK6yKp3Lpdn9wOkiRJkgaW4ZVaXKurAAAgAElEQVQkrT1Fh5+rKzmOAbtIX7GqIus8CbA+AN4lgdYZJEmSJGlAGV5J0vo1Xp/2zfvdbeBT4D3gDeAg8DYZZniVDEOcQ5IkSZIGhOGVJG0so8AhMvTwCeCbZEjhK/XpDRJgSZIkSdJAMLySpI2nqsjaDRytT3tII/gHyHDCj8gww9kWy5AkSZKknjC8kqSNrSRVWC8CTwLfAH4KfA94iwwnnKXRDF6SJEmSesrwSpI2toL8LxgGtgA7SFXWTjKM8JfAMdIPS5IkSZJ6zvBKkjTfOOmF9QjwEAmxhoE3gSkcRihJkiSpxwyvJEnzFcBQfXoSGCG9sH5EhhOea31TSZIkSeo+wytJUiu7gRdI9dVWYAL4DXAZK7AkSZIk9YjhlSSpnSHgXuCrwBywHfhLciVCSZIkSVp1hleSpE42A0eBr5CKq7PA28BFvAqhJEmSpFVmeCVJWowR4H7gZTJscIhcjXCqzW0kSZIkacUMryRJi1GQKxEeBb4JXAdOAKcwwJIkSZK0igyvJElLsRX4LHCeDB28RQIshw9KkiRJWhWGV5KkpajVp2eAf0QqsE62vYUkSZIkrUCt0wySJDVxCPg68Bywh/TEkiRJkqSuM7ySJC3HCLAP+By5CuG+9rNLkiRJ0vI4bFCStFybgKeBs8Bx0vtKkiRJkrrKyitJ0nLVgIeALwD7O8wrSZIkSctieCVJWq4C2AwcISHWIWC07S0kSZIkaYkMryRJK7UZeAJ4CtjSYV5JkiRJWhLDK0nSSo2RyquHSR8sSZIkSeoawytJ0kqNAPcBj2DllSRJkqQuM7ySJK3UCHAv8Biwo/67ovXskiRJkrR4w51mkKR16iZwHLjaYb5eq5Fj8xhpfj4GjNenTQxmQ/QhYDtwkFx1cAswBcy2u5EkSZIkLYbhlaSN6jTwr4BfdZqxhwoSTm0H7qlP+8nV/O4DjgL7GMwACxKw3UdCrBMYXkmSJEnqAsMrSRvVTeBN4NedZuyDTcAeYHf9637gEHCYDM+7r/79fjJkb1BU4dUh4BRwu/3skiRJktSZ4ZWkjarG4FYw3QLOAhdoDCMcJuHQvcBLwMvAF4ADJMAahB6Gm8jjO0CGEkqSJEnSihleSdrIBrWp+Fx9mm7yt6vABHAS+B0Jsj4L7KL/x/QxElztxfBKkiRJUpf0+0RHkrQ0N4G3gQ9Jv67T5Fj+NOmH1c8KrFHSp2s3hleSJEmSuqSfJzmSpKUrSSP0m6T66q+AfwP8vP67svVNV90Y6cO1B/+/SJIkSeoSK68kae2aBo6RoYQHSKP0R8nVCvthGNgJbMPwSpIkSVKXeHIhSWvfNeBvgD8h1Vj9NMLgNsKXJEmStAYZXknS2jcNvA/8DPgEmCIN3/uhADaToYPjDG5TfEmSJElrhOGVJK19c6T66mPgOHAJmGl3g1W2Hbi//tXwSpIkSdKKGF5J0vowC1wB3iV9sKbaz76qhoFNZAihJEmSJK2I4ZUkrR/V8MF3gMkO866mklSD9fPKh5IkSZLWCcMrSVo/poGz9Wm6w7ySJEmStCYMd5pBkrRmzAAXgHMYXs03CgzVvx8mwxmL+jRc/9v8D3OG61M3PuCZI9tllkYlWkm2z3T9+9n69zP1yYq15SvI9p6/XYdpvp1HWNnQ1qrCsNq+1L/O1H9f/a36e/U3aa0bpvE6q46V1fftjq2LVXLncbN6/VSvqds0jpnVa0+DqSAXb5k/DQMXSX9OSVo0wytJWj+mgTPkioO3Osy7kdxDmseXwF7gIDmpGqn/vAMYI2+ya8BOGldLrEKv5ZoCzgM3yAlXUf96kgSNt0mz/fMkdLyEweNKDAOHyPbbSrb7DmBf/eso2cY1sl/sZ3kXFahOrifIdrxBlnOdbMvJ+nSxPl0n2/Zys4VJa8x24DB5Xe2q/7ybvO6GyOtwDzmWjrH0AGuavG6ukmPkBDlOXievoZPAaRrHVg2uIeBB4LH61yfIfvHvgD/GD2skLYHhlSStH3PATfImf71/Gl3j7k9zx8mJ0iYaVQGbyEnW9vrt9pBwozrBWhhqFORkbA/d+R9Zcnd4dQs4RSO8ulqf5zw5YbtCTtJu1qeJ+s/9bMI/aMbJNt1OtvEmYDPZdkfI9ttWn3bSOrzatXDBSzRJ+/DqAgmtrtW/XiDbdIrG9p2qzztB9gdP5nqjRvaLg+S13o/1XpBj9S0aIfagfPAwRON1tZW8lrYCW4AD5LhavYa2kddcs/BqqcFV5TJ3hldXyeusCq+qY+hlGsHWNXL8vMHa+R+4haynHWR9r4bqQ5Or9ek6q7d+hslz2U32jXuAp4DHaYRX24DXyfOdpD+vPUlrUDfemEuSBstyKknWmp3kpLOqnpk/HSAVVZtJWFENGyxpDBWbP7SlGupC/esQK6+4qlRh2A4ab9DngKM0HzZ4i1RgnQROAB/Xp/eAj1i9E461ZDPZ9k8AT9e/P0jW6S4awWWNxon0wiFM1bZfqTGyz+2t/zxHtmWzYYMz9b9dISfeJ4BPSY+6k2Q7V0GnJ3OrqyD70YvAH5JQph9DOmskvDwJ/Bb4MdkH+q1GwofDwH3AQ8Cj9a+HSHg8So6l1Wut+h4ar6/lBleQgGMz7YcNTpPA6hTwIfA2CUWOkdfZoFex1six63ngOeBesu66/fofIiHfb4HXgDdJcN5to2S/eYq8tp4HHibH5c1kv9lEtssY+T9+m/689iStQd144yZJ0mqo3txW0w4aQdAO8sn+ribT7vrfByXEW2pfpftJBdbZeVMVZF0kQ0OPk5PcuaZLWF82kxPmQyQkqqplHiDrag/Z5gfo/TavkRO2pZgl2/Ec2YZVRdY5sq3PkFDrZH2+fl45dL3aCTwLfA34Kv0Jr6qg/CrwVyS47ufreTN5bR0iodW9NKqrDtV/PkTWVS9UofNi3E+OB4+Q4OQEeS2dJq+lU2Q9D6Lt5LG/QKqToLvhVTUc/jK5r0kS7nUrvNpEjsEHyD5SBZ1PkO2xv8ltpmlUyl6h9689SWvUYv8pSJLUC1Xj3zFy4vQgjROT6uu93Dn8a/5UvVFfy0bJG/595ARgjpzYXiXVBa8Cf00+Pb9c/1tVlbAeVNtwmFRfHAY+X5+eIMMCqz5lVTXVWtrmNRpDqh6mUaU1R07kjgN/A/yQVJEYXnVXQY4hvw98hVQWLTVg7paqUu8E8A4ZHtcr1etslAQJh0nw8wUSpBylMexviO5WpHZTSY4HW8n/iy+T18xZ4HfAz4Bf1L+fpHGs7GZAtBKjJFSqQsLVsp089w9ZeuA+X7XfDJFKqnvJcfk54HMkFN5OoxKv5O4PFarKx+3ksXQrSJO0zhleSZIGxSj5JPYzZMjBfTSqq3bPmza3WsA60SyM2UKjMfI+cpJ2jJzwvkWGFV5hfRgm2/4pclL0KDmRvpec4A1SVd1ytBuaup1s6/PkJPMYgzGMbL0YIsePB4CXSJXIavUZWozTJFR5l4QtvRzmVpL18DTwZP37Q+S1d4QEV2tBs9fTNhoVuodIsPIeGTb3Fqlq7OW6bqcKguYPu1wNVWXdblZ2P0PkOPwYOT4/TmPfOVL/22KMkNfeIAaikgbUSg5ekiR1U418ev554H8gQ8OqkGLh142ooBHgPU2GlL1GqnS2kLDjEqkuWGvDMAryKf4Ost2fA75O9oWHyQnORtkHqqskbsYTu24bI0Ho0+Tke6UN+1fiNgmtfkCClevtZ++KqjfVZjIE9yvkdfYSCYdHWFtVjO2Mked0hFQEnSHVjDvJcfMkqXTrd4hV1qfVrpwtyP+JrSx9Gxfkw6WqWf8TwJfq0yPkdbSU43J1vN9C/6oeJa1BhleSpEExTfr+TJJPzj1xv9v8AGcPaYh7gJyc/QJ4hQw1u9j01oOrRqo/XiInRA+REGsvG+/kpiBNqM/hFSa7bRvpcfUVEhAu5YS726aAN0h4dbLDvN0ySgKdl+vTEzQqGsfb3G6tKmgMUTsMfJNUrb5BhhP+gIRaG0GNRni11P2+qob9Mvlf8yRZn/vJa2o5YdhO8r+rn5WPktYYwytJ0qCYpXG58yn6f3I56Gok3NlLwp795IRgjAyPOUf/qwo6GSVDWe4nocLXgC+Sbb9RzZL+Zuex31W3VJUeR8iQ5KfJ66RfJoAPSN+6XvS6GiYVmw8AnwW+RQK83Sw9eFirxshx5ggJ7PaQiqdXSUP3CVa/+qmfCvJBwNb6NEyONa16f9VIRdU95IOEp0j49zxZfyvZbwoSWm1j4304IWkFDK8kSYNmivRv2o1vbBdrnJxc7CUnZ38F/CmDXVUwQoKrPwD+PumdcpBUB2x0E+Q1cLvTjFqUYbJvVcMF99Hf98Afk6qft+lNdd1OUtH4eyQkPkSjGftGM0yqhr5OhpB+H/gPJEy80fpm68Y4qXg6ST4oahVebSWN+79Bqq3uJ2HWcoYdLlQNlZSkJennP25Jkpq5RU7cb2F4tVg18in2VrLOqivx/Zw0KB6kHljVp+6PkKFLf5ecWO9h5SdF60FJTirPY3jVLePkKmhfpXG10n6YI9V075L+Sx+S6pfVMkRCh+fJ6+yLJOTe6BWt4yTA20WOOXMkTHyd9V+BNUL+V4xx934wQkLee8mFMl4kV598jO5eKKUg1bV7WZ/DVSWtEsMrSdKgmQQuk8tnb8ETraU6RE5O7iefsJ8lQwgH4YSs6j9zLzmZ/pdkKNM4bufKHBk2uBaGfa4F1fDaL5Jqm91t515dt0jFy2+BXwIX2s++IjXyXL8B/D1y8YPFXgluoxgjF4eoen5dJ4HiDdZvZdAQ+fCgCnCrvmBDJLh6mewzL9d/nj9vt1SvyaPkAxdJWhTDK0nSoLkGnCCNdfd1mFd3qvqa7CYnYxeBj0gj9/fb3K4XauQxPUaGCX6LVF/5yXtD1fetugraej2B7qUDJKB4igS7/ex1dRn4CfArcmXQ1ayIfIhUzvxdElwdxPf9C9VIOHOUHI8KMtz6dfLhySAE/t22hQyb3EmC1OqqjE8Dz9B4rTzI6u4vwyQUs9pW0qKt5kFJkqTluAp8QoYOavk2kauJ/REJQs6SUGQ1hym1U50kfQn4r8gVq7yi5J1myH4/RU6kDa9WZoQEpF8mFX7Nhkr1Qkleg1WvqzdYvWBkFNhBKs3+MRn2dRBDgnaGyNDKXaTy9yZwjATJ601V+XqYVHfuIyHnH5DeVvvpTSVsMW+SpEUxvJIkDZopUpVwk5z0+eZ2eQoyNOML5GpaJ8iVzS61u9Eq2kUaRv89ctl1+5ndrbpYQS+aeK93VR+4J8gQqCP071hym7z+XiNXGDzH6oXI95HeXn9AXvv7MLjqpKDRyP2fkOqkf0uOl+vNMKm6epJUIj5DKvPuJ/tKt4cINlMNH9+B/wckLYHhlSRp0EyR6itP4FdunJy0v0ACrBtk6FIvK3pqpDnv4+Sk+gXsc9LKJBnqebPTjOpoK/AwjSsMbm8/+6q6AbwK/Az4lGznbhsmgcCzwD8ggcThtrfQQptIBVZJ+pJdIX3JVnN4Z69tIv8TxkhQ9SwZYtpL1UU7dtLfYbyS1hjDK0nSoKmuNrgaJ3gbUUE+ZZ8hl4N/l6zjXhkiAcI3yePYhe8/WrkBnKb9Jey1OIdIg/Zn6O6V0paiqhy9SK4u+COybVfDVtKr6IskILY5+/IdBv6QVMf9Getr+OAu0tfqNo0PFnqt6s24g95UeklaJ3zzKEkaNBOkSmi1TvI2oh2k8ukp0m/nY3oTDo6SoYufI1VXR3CYSDs3sfJqpYZIWPUIGS74EP17vzsHnCevuTfI0MFuK0gIUYV1XyQ9rnydLd8OUrl2jmy34+R4uR4C5VH6e8XNSnUBjxHs7ydpkRwDL0kaNBMkXOn18Lb1bhOpQnmR3p28VMMFXwQ+S38+5V9Lqp5XvQgW16sx0vfpWVJhcg/9e787Ta5c90MSyK+G+cNy/y7wGbwQwkqNkqbm1dX39tO/fWi9Gyfru1/96CStIR6IJUmDZo6cvE+xvnqN9NsYGb73Er0bUnSEXF3wcdIE2ZPq9ibIVSFvdJpRLW0llX6fA/bQvwqkkmzH14GfkN5Jq2Ezacz+DdLjayu+v1+pGjlePkwuMvFY+9m1TENkGONu+lcdKWkN8Z+bJGkQ1UhPjgmsvuqWYeBBUklwiHzivVrvA6qeJg8DX8HG0YtVhVfrqcdOr1RXjNtPhs49Q/+CK8i2PE4af7/J6mzTGgnovknCq53tZ9cS7Qe+Rqr4trB6x8uNaojss/0MmSWtIR6EJUmDaI70vDqHVx3slurkfh8Jle5j9ZrljpGA7FFStbCj/eyqmyTDZddLf51eGiYh6WdIcHWQ/lZzvA/8KfAWqSDt9vashgveTy6EcB8JpNU9o8ABcgx7EsPB1VDgkEFJi2R4JUkaRCU5iT+D/X+6bQtpZv0gqxdebSXB1SNkiKKXQ1+cqudVL68GuV5sIsNiXyaBTr8qZWZJ1dUbwPdJ/77VMEQjrDsKbKM/z3c9K8h+9RAZmtmr4dYbRUEC13EcUi5pEfwnJ0kaRCU5iT+DV17rtnFSefUgqxcq7SIn1Q/Q3+qXteYW2e/t9bZ0O8gQ1d8jw5D65SapunoTOMbqDBeEvK6eJVfxNFRZPQU5jn2RVJOqe0bIOr2P1ftfJGkd8Q2lJGkQleSk7yKrW4UyTXprzdF8WE9Z/9ut+jRKGiTXmsw/ytoYtjNOTsYeYPUqr3aSKpj7cEjIYsyRqqvrpNJwrv3smqcgwdWjZLjgQ/T3w9lzwN+SRu2XWJ0gsiCVZY+SkHiQr+J5kxw7b5Pj7XSL+UZIldMgVuLsI8MGj5DHeAtfo91QDX3djuekkhbBA4UkaRCV5KTnCjnpWQ3T5ETzMjkZmeXuoGW2/reL5Gphu8kJzDCN8Kqs324nafC7mcH+/zpKQqUHWL1Pu6sw4RCDdRI6qG6TRu2X6X5vpPVuiAxP/RIZRtev4KokQdWHwJ+T8Gq27S2WbwTYS17HRxjcZtc3ybDJc8BVcjy/ToKf6lg7//h5oD7tq/+8WsenpSjI4zhA1vV+UhFsL8buKPGYJ2mRBvnNtSRpedbDG8GSNGy/wOIqr66RPjNTHaZJsrySnFhWJ1PT3P1JelH/3W2y/KvkE+J9NK+82kqGy20mVRE750331KdBCHJqpLJhNzkRO0tOMrux34yQdXAvg93rav42naxPN8g+Msvi1sUQCQK3kedZ0qgeGat/3cri1sEMqdK5weLuW1FVID0LfJ3+Duu6RYKa14G3ybFrNbZlQV63z5LX2WL2r16ojqengJMksLpIji9XyPH5Bq0vRrCVHJN21ac9JKA7SEKjfjbgr5Hj+r0k9L+K4VU3DJPtvo3B+N8oacD165+AJGl11Mixfa0P1ap6Xp0m4dIMjaF95YLvq0vSn6Hx6X6r6TIJLaqgav5yWpl/nzVaV3YUNAKNHaSJ8gOkefQz9WkPOdkcpn8VIpXN5PGdpBHarFQ1JPFhEioMgmrbzdanm+Sk+kR9ukyCo9M0Kv2aVeFVSrLtRshJ18H6V0hgtYsElrtJtcZusl6q12WNxhW2qv2patR+A4cjLcU4qbZ6HniRrP9+KMmx5xfAr8j+1WoocjfcR55vP8O6yiw5Pp8H3iPP/xek59cZsh7mH2dbrZP5r4cRGsfQ54GXgM+T0G6Mxmuol2pkvT8GfECOG1q+6gOkERrbVJLaMrySpPVjmJw472dwh5EsVhVefUKCqT3kZOEyjRDqKjnZn6j/fJ1GddXkvO/n/65XVy68SB7TxyS8+CUJdR4nvVOeItuqn7aQk8N3yUlmN8KrUVKdcITV66e1VAV5fsdII+0TpBrkEtmXbtanav+ZoXPoUAWVYzQqr+DOvj2b63+rhpFuI9Vou8mJ+fyAa4JU6lyj832r4QjwDRIM9yssrcLRs8CPSXiz2hV0e8hQyd2dZuyBC+T49iqpODtOjttnWFm/r+oYf4GEYj8n2/olcuzsdaXOMI3w6scd5lVnU+SDk3fIUNte/W+WtIYZXknS+jFCgqvDDM5QkuUqSaBwEvg1Oak/RapjzpITo6pfVfWmt1P1VC/NkpOui/Wfh0h48Qy5IlpZ/34r/ftfvIUETfvoXhXDGAkUDtH/AHWOBFLngddINcjPSYB1kfYhVUn7yqvFrK+F8+wiVXiHyOu0eq0+SE7k3qJ7IeJ6V1WYPkKuLvggi98u3TZL9rG3yLHqQ1bveFOQ572HvM6qir9+mCYB8G+A/0Ca1H9EY5j3StdBSZZ/Gfgdee1eI8Hw02RI4RC92+ZDpMryQfq73teq6qIUU+R/+6ekOu9nJPT0qsKSOurXG2ZJUvdVJzV7WfvH92pIwXngPwF/Q97czq+gmqL1lasGRXUCN0OqfN4k1QSXSQj3NRIe9cMmUvWzi+4N2ajCq8P0P7yaIhUSf05Ojj6lUd20mIqQlYahC+e5RIYkfkqjOmsLORGerf/9HIO/Tw+CUbLvPkFC4L30LsRY6DYJbv6MBOyL2TeWq0aq9vaTELRfwyQhx7D/CPwFqbo6xer0gaqGGl4C/opUtf1z8iHADnr3v666Mt7B+teq7+Fqbu/1ZIpUWb1B/g9+SCr0qgtVLKa3paQNrlcHfEnS6hshwxqO0v/Kq26dSN4kQ0bWg+oE7BqNpvFHSYAxTvcCpMUaJUPXttC97TVCTu7uoX/vMUoSUv0O+M/A/0dOrBcTWK2mklSCXe80ozraRnohPU/2t/H2s6+aW+Tk+xekguRa+9lXbIxG1d52ej90DrIfnyVDBf8c+BE5rq12xeAcqey6ST6k2QK8QO+GXxc0enFVF+aYZPWf91o2ST60qXoMvkYq9V4nVdUOFZS0JP16YylJ6r5NpBLhSfLGup/8NLq1WdIL65fAcyRAuo/eB441cp/drJAaIZVkO+jPiTUkUPgV8H+RoUZn6X9wpe7aD/wd0sS7X73VSnJS/hap7DtJqrBW01Yy9LSbQ32Xahr4KfDH5HV2md4GOFdIaDZLhj33KryqDJP1v4+E4r187mtJ9X/uV6RyuhoWXfWqtNJK0pIZXknS2leQyoP9wENkyFa/Tuggn6aeJ5+QG2LdrSTr6ASp1thH4ypavTRGGj5vY+VVXwVZ3i7628frOmnM/rP69AmrHyiod0bIEMGnSPB7hP6FpAWpBPoh6aO2GkPmFtpCju+76U94dYOEdL8EXmHlTdmX4zZpCv8audjEXvIBQK+OOaNkyOZB8n/OEKahJOHUx+Q18TbwWzKs9AQOiZa0Qr060EuSVs8QCUAeJ59Eb6c/JzaVa+TNq1dOa+8GqQw6ArxMtlsvVYHnTla+v1QN6e+hv8HpeRImvEIqrjxZWl82A88CXyLViv0Ybgs5rt0i/Xu+T0LSXqheszvoz/O+QCpp3iQXz+jH62t+P8TXSO+zZ+jdOc0oCRAPknBmoyvJkM45UhV3jFTG/WcSWF0ngaMVapJWrFcHeknS6hkhJ3TfIG+q+3FSU5klb1RvkTezau0Wad79Cf250lJBo9/WSsMrSOXVZvpXCQMJrH5K+l1Z+bf+bANeJGHvbvp3rLtEmk+/Rk7Qe/X63UT3AuflOEN6Fh2nvxWNVf+4d4HHyAc3vTJMKkx30d9j3aCorhz4DulP+S4Jdd8CJtrcTpKWzPBKktaugpzMPEBO5r5ChlD0SzUcbpL+nFitNbOk+uoyqVKbJSfjvVx3I3TnBKwautqv8Kq6DPtJctK02ld9U29V/dnuBT4HPE3/KvzmyH72AzIk6ga929f6GV5VjdrfJFfFLOjd825mklyxrtfD0aoq0630Lzztt+pDqhskyHyVVLxWYe4UfnglaRUYXknS2lUDPgv8EfB1MvysX1fdgryZPU/vG/iuZSX5dPocGQbVryGfKz0JHSKVCPfQ+95dkCq2j8nJbC/DBPVGjVTYfJk0LO/HPgaNkPQj0oT6fXp7rNtMhqvtovfByTQ5vh9jMIaET5HX/El623drmByn+3W1x0FwkwyZ/BXwa1LpepIMK/UKgpJWjeGVJK0t1VCvHWSI4LeAf0BO6Da1vllPVJeNv0hvT+jWuknSP+YK+US/14ZIGLCS0KcgJ3O76e7VCxfrNgkUjtPbKgytvoKENp8BvkYqj/pligSkr5OT9wvtZ++6URJcbWL5r9XlmCEfSpwjz3kQmpRPk/81VWAyR28CvSFyrNvGxgqvbpOhmudJaPgL4CfktXC2ze0kqWsMryRpbRkjFQhfIEMFnyMVO/2qRJjvNjm5uYRDBpZikvSSuUKq53ptExmGdJXlBz8FObEeoz8ndLfJJ/+f0t9ePOq+If7/9u60Sa7zPBP0ndg3EiRBEhR3URsl0RIl2drsttVju8ez9cT8x/nWEf1hJrrbrbDakmxtFLVQFEmJO0iKC7iBBEDsVfPhzjNVpIECUMjKk1V1XREnCgWcLFRmnnMy3zuf93kbin417Xc174UNVns3yQ/SQfuJq+y7EYagOZlvheZHaWDxVhbr2n4xDVROpB/m7M7GPy6rw6t5hGWLYCkNrX6VLjLyePpBwTvp4w8wF8IrYLtaznynGqzH7rTi4HAaLtyaVh08kk4X/Fo6TWtRruVn015Dx6Py6nqcS6fhjNVgfF96bL2Z9YdXSQdyO7Pxg8fLuZgGC+9m8c9rrs/dSb6Trig3Vk+/pfQ8fTVdyfKZzH961CS91o9xvR+acr+TxQqvhj6L70+/7srGX392pv2utsO0wbPpc/5SOjXw8bSv1TPRjB0YwRgvgACLYKgUWbQ3n5M0BBgChbuTfCbJF6fbg2mAddN0n0X6/c+kzVrfiADhegwD47Ees31pQLovnTq4GV1KKwCGxvdsDZMkX07yf6UVp2O5mIa7T6cD97cy3+NseL2a1cqg1+tcWnlzIuME7Gu5kFaNfpT5TLvekVarbuWG7cOHe6+lq0v+tzS4esCrdR4AACAASURBVCt9jViEaaPANiS8Ararw2n/lCPT78cYECR9kzhJp4IcSN8U702rrg5mpdrq7nRaxJGMt8rW1QxNs1/PeEHMZrScBlhjDQp3pO8HbnQgNub9uJhWCLyTG6seY3HsTq9/n0+nDI5VdZV0KupjSf4pnZ4672NsVzp18taM84HFUvoYXMw45/daltLfa57XnjGrTDfahfRDqKfTfla/zcoqgvM+7gE+RngFbFe3po3Ov5Nx34Aup2+Eb0p/p1vz8U/Xh0qsYRvzd72S5bQK4cOsrDg0z6qErWDs5/VGB33DlKY9ufEQbD0upb3W3ovgdKu4KcmXptvdGW8l1WGVvR8n+VFa5TNvuzNueJUs7uvPJB9/veT6LafH+bDy7c+S/GNadfVKVsJBgFEJr4Dtal86He++jPuGd6i8GqaEjLFS2426mL7hfTHCg+1qZ1oheG/GWfVyKZ22eiE3HsSxGO5KP2D4dsabLreUVpP+PK1EGTOY35lxgmG2vovp8T1UWf0+yXPpNEFTBIGFIbwCtqthxSBu3Pl05aFnMk5VAuPbkS4qcEfGWflyqP4TXG1+Q0Psh5P8ddrraqxqowtJ/pjkh+k1bsxgfjmOb2ZrKa2YfiXJP6eVhUNvqzGPdYDLEl4BcKPOJ3k2/bTWCkTb1+rpO2MwsN8aDiX5RpK/TPv87cl4x9XZJH9I8tN0QA9byfl0iuD30+rCF9OVGwVXwEISXgFwI5bT1Yf+kFYofLT27mxhyxm3OmSsgIPZujnJN5N8K63mG+t5/SDJU2kofyydlrqdjX1+X8mi/T6byaW0ovCX6bTBD9fcG2BkwisA1ms57YfxVtof41j6SS7A9Roq9+5IK68eyXhN2pPk+ST/JcmT0fcnWXl+xgoTr2TRfp/NZJhuPVYfN4DrIrwCYL2W014Zv5p+Pbv27gBXtDNdRONbST6b5PDau2+Yi2kFytNJ/jUN5bf74H5nuhDD4TRcPJPFCI2W0+q8vRmvL9pmtxwrCQKbhPAKgPUYqq6eTJu86gcDrNckyYE0uPr7JJ9ae/cN9VFaSfpEOm3w/bV33xb2JLk9DRU/Sj+oGHvlw2EK4+fSAGszrtS7KBYhiAS4KuEVAOtxLsnr6bLav4wBHrB+u5PcmeTRdMrgWFVXSfJeurrgY0lORlVK0j5kjyQ5kgaMF7IY4VXSUO2hJAcjhAHY0oRXAFyv5STHk/w6Da9eimk1wPpM0lDky0m+lOT+tXffMEtpRdFL6XTBp+O6NjiQBkSfvtqOIxFaAWwDwisArtelJM8k+c9JfhcDPGD9lpM8nOQf0p5XYzmbrpj6WDpt8MOouvokIREAoxFeAXA9zqZLaz+W5Ofp1EFuzLDakyXf2W52p1PSvpzkO0mOrr37hjqdLj7xk7SH34W1dwcA5mns+eoAbC5vJvl+OsB7J6quZmERl5+HebgpnSr4SJIH0ulp8zaExu8m+VkazJ+68u4AwBhUXgFwLS4keTEd3P1T2g/mTBa3WmiSLu1+U9r8+WC6nPq+dOWsSfoBzt5Vfz/WBzp3JflqusLaWL8DzNskyT1J/iY9/m/OOMf/cpJX0tDq6Vg5FQAWkvAKgKu5lOTtNLT6x3R1wXezGP1gJqu2HdNtT5JD6epl96RNhu9KQ6xb00HyJH0NHP7ucMZban1nGqDtmf4Ztrodabj8+SR/n+SLGaf6cDkN4X+Z5L8neW3t3QGAsQivALiaP6YVV99P8pss1nTBSRo8fSrJfelKZXcmuS0NqW5JVzK7OR0s70+rrIawa386VUloBPNzIG3S/mgaLt+UccKrs0n+lPa6eizJe2vvDgCMRXgFwOUsJzmXVlj9a5L/N8nj6ZSaMacKrp7udyANpu5L8oUkX0mnHz2Qhlc7sjIgXj0w/uQgeYxBM2xXk/T8/FaSr6cB8xjTBZOGVb9P8mQ6LXoRqkkBgMsQXgFwOctp/5cfJvlBkl+nQdaYwdXgUNrk+etpYPVgOvXvyHS7KeMNhoErm6TTcz+V5Ntp2Lx/zVtsrGNJfpTkhQiuAGChCa8AGAz9X95PGxj/MO0D81Q6VXBMO9LQ6miSz6VVG99NB793rHE7YHHsTvvQPZLky0nuXnv3DXMhyYfpte0X6SqqAMACE14BMDifViL8JMl/SSuvjmcxlo0/mA52/zrJ3yZ5KJ16dNNaNwIWyr4k30jP46MZb8ruB0l+l1aUvpDFuMYBAGsQXgFsbxeTnEjyRpKX00qEnyX5l7QCa2w70ybsX0orrb6b5M/TKixgc9mRLrBwJA2yxnIpDaw+mG4X194dABib8Apg+1mebktpA/Zn0rDqF0meTacIfnTFW8/PJO1l9b0k/5CGVkcz7qAXWL9LaZP04+lKf2PZm+T2tFn8nnQaIQCwwIRXANvLUro0/KvTr88n+cN0ezHj97Za7YG0KfvfpT2u7k0rsYDN6XwakD+RTh88mo+vCjov+9NVSj+TVna+kuT0mrcAAEYlvALYmobKqkvplJjh6ztJfjPdnkjyxySvT/9tUVbb2pHkQJJHk/wf6apk92X+A1xgti4keS6tePqrdNXBWzP/96N70mbxj6Qh2tl02vQirKYKAFzGvN8sADAfkyQn015Wr6aVBcfSaqvXpn//dtrX6vwVfsZYDqUVEd9N8u/SAe6ONW8BbAZL6fXm1ST/nC7E8NeZ//vRSVrF+XCS/yXJu+l10fRBAFhQ836zAMCNGyqpltLB1rlVf3chrSI4lfazeimdGvjH6fbGdP9FNUnDqm8n+Yt0VUEVV7C1vJfkp0nuSKuf9mac96R3p1OSn0gXq3gzixfmAwAZ540CADfm/bSq6lwaUP0pXTHrRFpNdXz69yfTPi6np38+lcUOrpJO5/likv91+lVwBVvPmSQvJHly+vVQugrhvCssd6UB2lfT3+MnaYAFACwY4RWwXZ1Je5ycyPwHTNdqOa2oOpuV0Ol82rdqCKKOpz2rPkwDrHem23uf/GGbwP60SftXptvta+8ObFKX0kD92SQ/TsOrr695i40xSfvrPZJOHTyWfgCwFP2vAGChCK+A7erdJP85nS6yK4tZ4XMxDdneTgOp5awEWkvT7WI6VfDSqu8vXu6HbQJH0ik8X02bOC9qqAjMxrEk/0+SO9MAad/au2+InUk+l15bf5ZOsz6ZXlMBgAUhvAK2q4/SKSs/SQcvi2QI0i6l1VUfZHs0Ej6cVl88nA5iFzFQBGbnVLr64G/Sc/+zSW5b8xazN0mrPu9LV0B8J8nP0wALAFgQwitgu7qYVl+9dbUdF8DS1XbY5CZpldXtaZ+r+7J4gSIwe8vpBwm/T/KDtHH7rRknuN6f5G/SHoEvpr+X6isAWBDCK2C7GqbfGZyMb3eSo2nVxT1pD5oxBq/A/F1Mp+r9OMkX0il8+zP/a8CeJPcneTTtuXc2bd7uNYLL2ZP5H6MA25rwCtjO9FRaDHvTRu2fS3JLVF3BdvN2kqeSPJ3ky2mItH/NW8zeziQ3JflMkr9Mp2u/n1ZgbXcX0sfhdNqHUTP7Lvhy/mo7ATA7wisAxrY7rbi6Nw2ygO1lOV359VdJ7k5XH7xnzVtsnLuS/Ic0uPp9hFdJV6/9ZZJfpI+J0KYr/b59tZ0AmB3hFQBj25MOVO9Jgyxg+zmbVl/dlva+O5JeG+ZdIXsgXTTi0XQa47Boxnb2UdoH7KdJfpit34cRgAU07zcEAPBJq8OrPVfZF9iaLiZ5Ncmv0xDrrenfjWFXkoeS/E/pdGbvl/sY7IoPvgEYiRcgAMa2K52qc0fGrbw6keRP6VSQE0lOZj7TYw6nPX7uT3JnDJTZnpbT6qtX0wqfO9IqrDEC7Uk6jflvkhxLG8qfzPZu3j7JysqwADB3wisAxjRJB6e3Jbk58x8YDatOnkryTJKfJXkyyQtpkPXhlW86M59Le+z8z+lUqXk/BrBITif5SXouPJrkYMY5J44k+XqSJ5L8Jr0mnFrzFgDAhhFeATCWHemKYnekfWbmPUBdTispXkjy/bRZ9EtpaPVO5hNcJV3h7IO0t85mNlm1wXqdT8/BJ5P8Nl0F8FOZ/yqkw+qDX0tXljsV4RUAjEZ4BcBYJmlVxe0ZZ2rQxXSK4ONJ/u+0wuJS5t+MeG86XXLe4d0sDUHgxcz/8WNrWUqrr15M8uM0QLo98w+vBp9Pe1/9IQ3VzscxDgBzt5nfKAOwuQ1TBvdnnIHpR0l+nuQHSV5JB6WX0iBmeY3b8W8tp4HDhxmvybZAYWt5I8k/p9VXZ6+y70aZZGX1w68l+WySfWveAgDYEMIrAMa0Ow2wxgivTqVVV4+lzZhZv6X0MTyR5MJV9t0IwxTUPTFtcas4lVY7/S7JsxnnHJ2klZF3JfnWdLtlzVtsLMc2ANuW8AqAsUzS8Gpf5vt6NFRVnUz7Xb2c8So7torlNGz4IOOEV7vS3mm3RkuEreRckt8n+a9pgDWW/Um+m+Tv0v5bersBwJzNc7AAAKtN0hUGb8t8e14tp1MG35luH8WUsxu1nIZWY/UD2pHkUMZbmY6NsZRO6f1xkqfSyr4xpqXuSnJnki8l+WqS+zPfatFLadh+KuOdXzunm9AOgFF4gwfAWHakU3DuzHz7yCynFUJvpWELszHmaoM70uld867iY+O9n04dfCLJ82nYPJbbk/x1kj9PV0idlwvp4hLvZJzwbmd6f/debUcA2Cje4AEwpl0ZZ6W9i+mAcIwqhq1ozOAqWamMuTM9ntg6LqZh86+S/CgNcMZyS5JvTrfhWJvHMb+U5Ewa3I2xmMTeJEfSStl5X6sBIIkXIADGtbxqY/NaTqc2Das1ztvedCrX/VEdshUtJ3k6yQ/THnXnMs5xtj/J59OVB7+UBjrzCK+SBlhjBe770l5ft8XYAYCReAECYDu6kDZpv3S1HbkmQx+xDzPOtKa9SR5K8pnMt38a87GU9rt6Nl0h9I9pJdK8TdIpdJ9P8h+TfCXzDdEuZZypzvuSPJBWmwHAKIRXAGw3y+lgeCnzHXhuZUtpQ+kTGWe1wd1J7k0H2Icyv2oY5mNYEOB4kp+lAdaHa95iY92Z9r76RpKjmV9geiG93xcy32vX7rTK7M506qSpuQDMnfAKgO1mkg4292W+K4ZtZctJTmdlYD1vu9JB9d3p1KZ59SJivk4neSzJT5K8N/27eYY4g73pNLpHk3w7yR1r7z4zZ9KFJj7IOPf79iRfSHJrnF8AzJnwCoBFMO+B0LD0+7z/361qmNb1TsaZ1jQEknelgcID8R5nK7qQ5PUkv0/ymySvZZweUDuSHEzy5STfS3Jf5nMtOZPkzXQFxjHu911ptdldGSc8A2Ab88YOgEUwxkBoHoPN7WIprYQ5njbTHsudSf4+ybfS5tpsTa8n+X6SX6S968YwSXus/U2Sz6bH20ZfU4bKqxMZ55p5b1pp9mCMIQCYMy88AIzpUubfv2WS9kW6NfPrVbOWi9NtjEqKWRlWQjuZ8cKEJLk5XQnuL5N8Pe3Tw9bzXhpcPZ4GWWMdc/vSFS7/Iq1Iumnt3W/Y2NMGb02rzR5Npw8eWHv3TW9o0G+8BLAAdl1tBwDYIMvpoPN05rtC3STJ4bTR8qF0cDJG8/Yd6evwoXQQuAhB2o06m+RUOnVwjL5T+9IpXN/KSk+kX6XVYJcy/+f4anZMt0k+vpAAazuT5IUkTyR5Kj1/7s78j7ekFVffTKuh3k6P/416Ds8keSPjTRvcl1ZffTMN0f5HkpeymOfWtVodUA3TyXenx9SO9Fp2Ol1NdbPeR4AtQXgFwFiW0kHY8cy3cmIY4N6cNl0+kgYd8wzQkoZWDyf5TpLvphUcm72B/Ll0cP1W5rsK22AYiH46yT+klSL3pCvUvXzlm41md/o4HUiPvxPpsThGMLGZLKeP17Pp9MFb0ud5DHuSfC5drOBXaYD1QTbmenIqybH0/xjDJA2wvjr98/k0uDo2/boZ7UrPwTvTXl73psfSHWkPv18leTKb+z4CbAnCKwDGspwOxk5knBXqDqZTX76Q5HfpgHOjTNKgYn8aVNycNhX/ZhpefSNdyWuzT085l+TVtJH2bZl/eDW4JR1gH0kHpkMlxQdpUHouHXhv1JTVoXpjqObYNf1+16o/70sfowenf343DWM+iPDqWr2Z5F+TfDF9vg+lj+087UyPs4fTqapvpg3lNyK8+ijJn9Lw6ny66uG8q80macBzMCsVYAfSwPp0VqocF8XOrJx3w7Znuu1OQ6pPpx8efDp9PXgovW68kJ6/byd55ZM/GID5El4BsF0dTPJXaZ+m17Ox4dXO9JP9L6X9Yv4sDa9uTwe+t2TzV10lK+HV62mgMKadaSXFUNX2choqPJdOdXolrfrbiOD0pvT/3pceZ7eng+Th65G0Kuzm6b+fSCs8TqYD5o34nbaiM+nx9pskn0/PraNr3mLj3Jrk36fP5Qtp0DRrl9LA6N30enUw4103bk6b1d+fNnH/dZJfJnkxrUJbFAfSkHg4/+5MK6vuTaeaHk4fx4Np+HnT9Oue6ddPTfeZd0gIwCcIrwAYy9Dz6oOMM1jfmw54T6ZTQvamVRMfZP2VA5OsVFcdSAc/h9JB031ps+OvJXkkDay2mnNp1dWfMs5z+kl70xDprvSxfyjJH9Pw6lhWqkWGaqzrrZaZpJUZQyXV0L/qaDroHcKrOz6xHUkHxEOl3dAr6cls/uq7eVpKz9/fpY/30YwXXu1Pw+lXk/wkKwsYzLKyb7hmvpP+Pzenx9EYdqYB0NE0wLonDYaeSa8Bp7PSK+p8+lydyY1dF/amodIkK9WsQwXV6m1Pet4dSB+fI1kJr46mv+t9069rhVJ70vskvAJYAMIrAMaylPb3OZYOcuZtR/op+1fS18OHkvxTOvhaT0+ZnemA6Z60quqB9Gd+fvp3t6ZB1jCo2orOpwPX13Njg9SNsDedEvRAPj518GxaKTIEWdczSN2RDnCHBQCGaVzDIHpoAL162uDqfxsMg+RbIry6XktJ/pA+9n+eBkhjTFfdmT5/X0grOi+kzeQ34jw4nl6njma88GqwKw2Hb06nbr6RVjW+kl7bj6XVYmfT68Lruf5Ab2caDg7B73COHU4f88Of2G5Pz/PD+bfn355V29XO9f3pfbvlGvYFYIMJrwAYy3JWqhPeTz+hH6pX5mGSvg7enk432p8OjJ5LB2An0t/tbD5eiTVJB0TDtJID6cD5YDpYuiMd8BxNp6Xcl05bmdf9GtOFdGD9elZWXVuU+70jK9ODPul8GqSezfUNUodB9MF08L5ee9PjZbscJ7O0nIaOLyZ5PK0CejiXf5430nA9uT/J99Iw9NlsTHj1RrrS4heTfOYq+260SXr87k0D+rvS4Oit6fZmVlYgfWe6XW9Pt53pa8Mt6QcOw2M9VLYeXPX14HS/o7m+c/ly9qX3Z+yAEIAIrwAY36V0QPNeWn0y76qJSTogejQdDH6YBjAvp9PfTqRVOsNAaJL+jjenA5s70sHN0MNoVzrYWr3d6CBqs7iYTrt8Y7rdk4aCix7IDCHmctb3XE2y/tsmHfgPx9F6f8Z2dyrJT9NzcGiEP8ZjeSTtAfVsOn3wtax/GvLlLKeB0O/SnlNLWZlGtwh2p+fSbWnV6aX0d15Of9frDa4Gk6xMyx2+H7Ydl/nzLAwN3Q9P/3w+1181BsCMCK8AGNvFNLx6N+OsUDdUUu1MQ4Rh8Hs0DWLOpL/j6oBi16p9D6YBzf5P/uBtaimddvnbrKzCtujh1bAq4Fgm6XG0NwbH63U2nUp3S7p6521pNc68G5oPqw9+Lcl/SPLPSZ5f8xbX72Qarr+cVjcdyfyvm1cyXB+3gqGy8ra0iva1bEwjfgCuwVZ5cQFg87qQlSkmD66969wcSMOou3PlMGH1p/uz+qR/q3g3yS/Shs6fifcb12JXOk1pfzoNbpbVOtvBxbRi8ul09cE708qfeYdXSYPQh5P8b+nv9Er6+6236uiTLqTn2LNpv6+vpgELs7ecVtU+mJXp7QCMYMxPGQEg6VSMoZHv+avsO0+rp6Fcbls9bYWPezcNEJ5LK2K4NofTQfKhq+zH5S2nYdEP0vB0I/pNXYtJWg31lXQq8t2ZfWXU+XTq4L+klatsnGGK+Lz7qAGwivAKgLGdz8qqVGMNNpmtM2m1yfPp86pa4docTCuG9kcoul6n02bmj2dlJdMxpmLuS/KpJF9P8s10OuMsXcpKk/rX0pB4VpVdrJikz929aW9EAEYivAJgbGeTvDDdVOlsHefS5/RnSV69yr7UMHVw99V25Ioupos/PJM2cH8l44U6u9Pm7f8xDT9maSmdxvZ8On3wrQj/N8qwAIBVBwFGJLwCYGyX0sbof0orJU5kvMEms3MpyUtJ/jV9Xseoftls9qf9dTT/X7/ltJrzxbRZ+h/TQGsMO9Ipg1+dbvdndtMHl9Ow6niSx9IFEs6teQvWQ+UVwIIQXgGwCJbTFep+na6gNdZgk9l6Pckv095XH0aAdTWH0qlmN19tR67qrSQ/SftCfZBxjr2hZ96dSf4qnT446wDkdFph9uO015zgf/ZuSp9DPa8ARiS8AmBRvJNWEDwXA7Ct4kKSN5P8PMmP0sE1V3ZTGl7NOuDYjobVB59KA9Tja+++YSZpGPkXSb6V5PZ0BcRZ9TQ7n/a8+nXavP3FuH7O0iStljuSnpdWTgUYiQswAIviRNpo+ZEk/z7tFzPGMvfM1tk0PNifDtwPpYNBH6D9WweS3JFWeEwyTrXQVnIhnTb4P9Lw4fasrBQ6T3uTfDbJo0k+l4a476dTa2/UUrogwnNJ/jG9bt6W9mdy/ZyNnWlwdXN6bqoiBRiBN44ALIrzad+r59ImxCfX3p1N4mL6vD6W5IdJnozePFeiYftsLaX91n6c5Ok0IJ9FYHS9JmmA9ekkf5v2v5rlB8jLaSD207TC8cn0vjI7O9N+dLenzyUAczbLF04AuBGXkpxKw6ufpxU6N8cHLZvdcvq8vpgOrPemz+sDaVDDir3RsH3WTqTVV79N8oW0snOsVePuSPLvkryR5Pdp4DSr/n5n06DusbQ/U9KQ7FC835+FHWlwdU/6vFkZF2DOvJgBsGheSPJfkxxN8pkYyG8VHyX5VRpmHUkHgw/F1KbVDiZ5MA2wmJ3zaahzJMldGS+8OphOG/yz9Ng/l9k3k38+yX9Kciat+PqzOJ5mYWd67NyfPsYq2wDmTHgFwKJ5L5328njaJ+bhbK8G1ufTaoy92VrBzqW0YuF3aYiwnN6/T0VAOdidBisH0/do59fenWt0MQ3Ff5Gu+HdbWv037/NrZ/r/finJ99JA94m1brAOJ5P8ISvNxS+kAdaRzP/+biVD5dXdcb0CGIXwCoBFs5R+qv3zdCB/IB3szbvJ8jwNlRfDCmnn0sqzQ1e8xeb1XtpY+nT6PuQ7aS+gMRppL6LlNMTaH+HVrAzXlOfSCqzb0umDB9e60Qb6bJL/M+0F91RmN3VwtafSpvAfpdeTb6X32zm2PkPPq6PR8wpgFMIrABbNcjrYej4dwN+XDjLvydZsZD00W34uyctpqHN7GtptxfDqQhok/CZ9Po8n+Yu0wm7o1bOdTdKqmSNpXx3N7W/cchoQvZX2XTuc9lwbK7y6KZ0++LW099UL6fTBWfoovZ78aPrn4+n/93CEL+uxKw2u7onKK4BRCK8AWETLSd5Jp5gNg4W/SgcPu7L5qweW0sH0hTS4ejbJPyX5WdrEfAhzPnWlH7AFvJFWYB1L8kqS/z0dXB9KQ63tOsVpklZ43JVWqQmvZud0Wnl1e9o4/UjGuZ5M0uP80bT66kySDzPb3ldJp+o+lZ5rL6bh3e70A4G96X23IMbVLaVVkDvT16Ltem0CGJXwCoBFtZROe/lJWoFyNsm30xXDNruTaVXE75I8k4ZXz6YD2T3pwPbUlW68RVxKK0KeS5/b40n+PJ3e9IV0ZbbtaJLkljS4fDkaQ8/SUhpgvZDkp2kQ8YWME0bsSgPqD9Pqq5fSoHKWAdZQcTZ8EHA6/X++meTrafXXWNVnm8npNGA/li464ZwEGIHwCoBFNjRaPrXq+2HVp0OZf8XEel1KA5oz6fSgl5P8NsmP00Hln9IqrOH+vDrdb7i/m+V+rseHaYPpV9Pn+v10cPhw2tx6/3TbLu9ZdqT3+0hM79oobyb5YfoY35teS+ZdgTRJr2OPJPlKek04ll4jZm0pDbDeTc+1Y+l59kHab+7gdNt3pR+wTSyl1+Fz02340ORYVj5keCZ9HAGYs+3yRhCAze29JP+SDsCOJfm7tAprswzuhwqj3023P6af5B9PB5AXpvsNVRcn0yk+H6ZBxlZ/vb6U3uc/po/H42mT/oeTfDHJl9Nm09vBrjREGFYcZPbeTReEeDDJN9L+V/MOboZA+vb0enYuyX/KxoRXg+X0mvJ4kteT/CCtPPtWOmX3c5l/iLdIzqVTLI+l0yyfT0PFN9PXoJOrNgDmzJsiYCyTjDNVYzDm/831u5AOKk6n4ca56Z8fSvtg3ZLFqU4apiZ9MN1OJnktydNJnkinCL2atQepZ9L7+07a3HmjTLI4q/wNA+sP08fnpTTwezF9/D6dPhaH0+f7QLbOQPtCGnCeTCtink3DhVkEGcO1dtjmbRGfo3Pp4/tkOg3sQNoHagw3pcHRySS/nn49nV5HNsLQT/CdtArr2TREfyOtAjuSBua3pL/bZvmA4Fotpefa6ek2/PlUGlC9npXw6oX0OnT6sj9pNoZr8Bjn5uqeZ4vwGgCwJuEVMJblbNyb82tx6Wo7sJBOpwOuN5P8IsnfJvleOu3mlivfbG6W0/DhlXRg/Pt0cPhqOlg8lQ6Wzl/pB0ydTwObV9PeRxu5yuJSZttnZxbOZaUy7bdJvp/k/iSfTwfYfzb9/rZs7kHXcvpcv5tWeDyfHt+/ScPOWUxPGq61wzbvQfKY1/mreS7JQNAsoAAACAdJREFUf0tXuRwrvBp6nD2UVhgeTwOTq10jZuFCOmX5vyf5ZZK705D4i0m+mp5vd2XrrK53ISvh+MtpSHVs+v2f0mv0+Xx82uBGL5iw+vyct0sZ5/8FWBfhFTBvy+kbwjfTldU+WvX38zJJ37C+c7UdWTiXsvKJ+fvpYOTNtGLh3jTouSsdjG5kxdLFNIg6lQ6GTqRBw7vpcfVGOgB9KQ2h3s/1Baan0yqtvUneTu/LrM+RSfozH0//j40epF2Ppaz0mzmRPp6vpuft8+lj86m0SuSWtBrrUD5eMbIojagvZeVYOZWVKo9TWam0ejc9jv+Ujw+kL17m512vE2kYdj59vHZm9sfS5Qyh4hOZTxCzHm+noc2d6Xm8O61EmcfjM5hMtzfSSs15hgnD6/HZ9Bh8LQ2NX0qn8D6Qj59nN6Xn2cHpnxep4nUIpi6kx9vqa/NH6X08Nf3+eHq+HU+nZ7+V3v9ZnG/X6/00sL45DdSG6/JGm6SVnU9l5bUUYKEtygsOsH1M0tXUbkn7jdye+bxRW21HOkiYVWUD49iRDjb3poOpB9MVtL6eVufcl4Yak09s12t1ZdKwetfb6WDzzXTANwz2ns/KtMZL032HT7ev5zjflQ4Sj6ah3L5c3+2vxTBIeisdsH6QxQ0ZVk+t2TX9ujcd8N2XDrLvSh+rB6df70yPi935+HN/I8fC5Szn48fH8PVS+nh+mB4nw/bGJ75/PR1UD8fJcNxc7zFzJYfTx+S29Dia1f2+muH4ei0dnC/isTW8Ht2XVh3tz/wr05L+Hh+l5+LxXH/YPQvDObEjK+fYvvS1eqjIuie9Jt216u9uzcfPp+HrLKeLXu4cS1aCvuWsBNwfpefTm1mpsHo7vb69l397rq3+Oovz7XpM0vPzaDb+A5dPmqTXmVezcg0aI7wDuGbzegMDsNoQOhxIBw7zNkk/ZTyZxRxQsT43p4Ore7JSLXBrOvgatmFwei2vf5P00/rj6Rv74ZP9oY/VsA2DouNpGDqryokdWQnmdmXjBlbn0gHfEJhsJpP0eb01K/2wbstKJdae9DG8Y/p9pn83rK62P+uvdJikg97V/XPOpcfJB+mxMqwyeXL6/clPbB9mY/vpJCvX2qGq6FqO/Vk6k54/i3xs7U2PheExGsNSPj5lbT3H5EbYmZ5bt6XX2Jum282r/u5Aej4Nr+n70nPwwGV+3np8lFZMnU3PqUl6XL2dlb5wQ5XVsFrgUGX1XnqOncliVZcOhg9g9ma+M2Im6TF3Jn1cL2ZxjjmAy5r3GxiATxrzOuSN2tazuqpmTzqwOpqGWUfTQdeeXNtxN0kHQC+nA6Cz6VSut/Pxgfjq42gjjqlr+V1vxEb8zvP0ycdn9ffDcfBAGmYupyHFEGredJnbX6shBP8gHSQP05OGQfW7+XjFyGCjj5crWe/9vFHzvI83YqzHZ7VFfazWOsf2ZuXDgcPp+XUwvd4ezmycSKvShg8RdqTh78vTv0vWPs8u9/2iGev4W/THBeD/N9aFEgDmYUc6mDqQj1dWXK3aZnh9vJAOjoZpgMMn/2wu+7Oyatow5XBPVqYUrmcAN1QunF+1DdNEz2SxK41glnam59Oe6Z93p+fcUFm9nvMrWbkOn0/PqQvpeTUEx0NwBQAAAAAAAAAAAAAAAAAAAAAAAAAAAAAAAAAAAAAAAAAAAAAAAAAAAAAAAAAAAAAAAAAAAAAAAAAAAAAAAAAAAAAAAAAAAAAAAAAAAAAAAAAAAAAAAAAAAAAAAAAAAAAAAAAAAAAAAAAAAAAAAAAAAAAAAAAAAAAAAAAAAAAAAAAAAAAAAAAAAAAAAAAAAAAAAAAAAAAAAAAAAAAAAAAAAAAAAAAAAAAAAAAAAAAAAAAAAAAAAAAAAAAAAAAAAAAAAAAAAAAAAAAAAAAAAAAAAAAAAAAAAAAAAAAAAAAAAAAAAAAAAAAAAAAAAAAAAAAAAAAAAAAAAAAAAAAAAAAAAAAAAAAAAAAAAAAAAAAAAAAAAAAAAAAAAAAAAAAAAAAAAAAAAAAAAAAAAAAAAAAAAAAAAAAAAAAAAAAAAAAAAAAAAAAAAAAAAAAAAAAAAAAAAAAAAAAAAAAAAAAAAAAAAAAAAAAAAAAAAAAAAAAAAAAAAAAAAAAAAAAAAAAAAAAAAAAAAAAAAAAAAAAAAAAAAAAAAAAAAAAAAAAAAAAAAAAAAAAAAAAAAAAAAAAAAAAAAAAAAAAAAAAAAAAAAAAAAAAAAAAAAAAAAAAAAAAAAAAAAAAAAAAAAAAAAAAAAAAAAAAAAAAAAAAAAAAAAAAAAAAAAAAAAAAAAAAAAAAAAAAAAAAAAAAAAAAAAAAAAAAAAAAAAAAAAAAAAAAAAAAAAAAAAAAAAAAAAAAAAAAAAAAAAAAAAAAAAAAAAAAAAAAAAAAAAAAAAAAAAAAAAAAAAAAAAAAAAAAAAAAAAAAAAAAAAAAAAAAAAAAAAAAAAAAAAAAAAAAAAAAAAAAAAAAAAAAAAAAAAAAAAAAAAAAAAAAAAAAAAAAAAAAAAAAAAAAAAAAAAAAAAAAAAAAAAAAAAAAAAAAAAAAAAAAAAAAAAAAAAAAAAAAAAAAAAAAAAAAAAAAAAAAAAAAAAAAAAAAAAAAAAAAAAAAAAAAAAAAAAAAAAAAAAAAAAAAAAAAAAAAAAAAAAAAAAAAAAAAAAAAAAAAAAAAAAAAAAAAAAAAAAAAAAAAAAAAAAAAAAAAAAAAAAAAAADfs/wM+CZNr0+N4TAAAAABJRU5ErkJggg==;" vertex="1" parent="1">
                    <mxGeometry x="312.25" y="-80" width="165.5" height="165.23" as="geometry"/>
                </mxCell>
                <mxCell id="11" value="" style="endArrow=classic;html=1;exitX=0.5;exitY=1;exitDx=0;exitDy=0;" edge="1" parent="1" source="10">
                    <mxGeometry width="50" height="50" relative="1" as="geometry">
                        <mxPoint x="320" y="170" as="sourcePoint"/>
                        <mxPoint x="270" y="150" as="targetPoint"/>
                    </mxGeometry>
                </mxCell>
                <mxCell id="12" value="" style="endArrow=classic;html=1;exitX=0.5;exitY=1;exitDx=0;exitDy=0;" edge="1" parent="1" source="10">
                    <mxGeometry width="50" height="50" relative="1" as="geometry">
                        <mxPoint x="320" y="170" as="sourcePoint"/>
                        <mxPoint x="395" y="190" as="targetPoint"/>
                    </mxGeometry>
                </mxCell>
                <mxCell id="13" value="" style="endArrow=classic;html=1;exitX=0.5;exitY=1;exitDx=0;exitDy=0;" edge="1" parent="1" source="10">
                    <mxGeometry width="50" height="50" relative="1" as="geometry">
                        <mxPoint x="320" y="170" as="sourcePoint"/>
                        <mxPoint x="520" y="150" as="targetPoint"/>
                    </mxGeometry>
                </mxCell>
                <mxCell id="14" value="WordPress用のパッケージ等&lt;br&gt;自動インストール" style="shape=ext;double=1;rounded=1;whiteSpace=wrap;html=1;" vertex="1" parent="1">
                    <mxGeometry x="300" y="280" width="210" height="40" as="geometry"/>
                </mxCell>
                <mxCell id="15" value="" style="endArrow=classic;html=1;exitX=0.5;exitY=0;exitDx=0;exitDy=0;entryX=0.448;entryY=1.15;entryDx=0;entryDy=0;entryPerimeter=0;" edge="1" parent="1" source="9" target="14">
                    <mxGeometry width="50" height="50" relative="1" as="geometry">
                        <mxPoint x="320" y="240" as="sourcePoint"/>
                        <mxPoint x="370" y="190" as="targetPoint"/>
                    </mxGeometry>
                </mxCell>
                <mxCell id="17" value="" style="shape=flexArrow;endArrow=classic;html=1;" edge="1" parent="1">
                    <mxGeometry width="50" height="50" relative="1" as="geometry">
                        <mxPoint x="610" y="260" as="sourcePoint"/>
                        <mxPoint x="700" y="260" as="targetPoint"/>
                    </mxGeometry>
                </mxCell>
                <mxCell id="18" value="AMIを利用してTerraformで作成へ" style="text;html=1;strokeColor=none;fillColor=none;align=center;verticalAlign=middle;whiteSpace=wrap;rounded=0;" vertex="1" parent="1">
                    <mxGeometry x="730" y="250" width="40" height="20" as="geometry"/>
                </mxCell>
            </root>
        </mxGraphModel>
    </diagram>
</mxfile>
